<?xml version="1.0" standalone="no"?>
<!DOCTYPE svg PUBLIC "-//W3C//DTD SVG 1.1//EN" "http://www.w3.org/Graphics/SVG/1.1/DTD/svg11.dtd" >
<svg>
<metadata>
Created by FontForge 20090622 at Sun Sep 25 23:19:46 2016
 By deploy user
D-Studio; Dubina Nik., Moskow
</metadata>
<defs>
<font id="B52" horiz-adv-x="563" >
  <font-face 
    font-family="B52"
    font-weight="400"
    font-stretch="normal"
    units-per-em="1000"
    panose-1="4 11 5 0 0 0 0 0 0 0"
    ascent="800"
    descent="-200"
    x-height="416"
    cap-height="586"
    bbox="-102 -266 710 899"
    underline-thickness="10"
    underline-position="-61"
    unicode-range="U+0020-U+2026"
  />
<missing-glyph 
d="M70 0v582h423v-582h-423zM141 70h281v442h-281v-442z" />
    <glyph glyph-name=".notdef" 
d="M70 0v582h423v-582h-423zM141 70h281v442h-281v-442z" />
    <glyph glyph-name=".null" horiz-adv-x="0" 
 />
    <glyph glyph-name="nonmarkingreturn" horiz-adv-x="500" 
 />
    <glyph glyph-name="space" unicode=" " horiz-adv-x="500" 
 />
    <glyph glyph-name="exclam" unicode="!" 
d="M304 582l52 -70l-24 -62l-10 -62l10 -26l-10 -130v-26l-44 -18h-10l-26 44l-6 96v34l6 8l-25 99l19 78l25 35h43zM332 136l24 -53l-17 -78l-43 -8l-54 8l-25 25l-9 28l9 44l44 59z" />
    <glyph glyph-name="quotedbl" unicode="&#x22;" 
d="M250 660l43 -53l-9 -7l-16 -46l-18 -18l-10 -60l10 -17v-36l-10 -9l10 -8v-18l-18 -16h-36l-17 114l9 44l-17 24l17 106h62zM433 650l9 -36l-9 -181l-9 -27l9 -8l-17 -26l-10 -10h-36l-16 61l8 45l-34 156l26 26l26 10z" />
    <glyph glyph-name="numbersign" unicode="#" 
d="M467 223l-13 -23l19 -2l13 -22h18v-3l9 -6l13 -25l-5 -44l-31 -9l-4 -3l-82 -18l-17 14l-3 -18v-10l-4 4l-18 -21v-4l4 -5l-17 -16l-17 -50v-7l-26 -36l-6 -13l-16 -22l-8 -30l-14 -26l-18 -9l-16 -3l-49 -22v3l-16 5l3 4l-8 10v16l5 5l-9 9l12 38l13 14l5 21l26 31v18h3
l6 16l21 32l13 30l19 18l8 16h-25l-31 -3v3l-34 9l-4 -3h-5l-7 7l-18 -7l-25 1v-7l-3 -16v-10l-4 4l-18 -21v-4l4 -5l-17 -16l-17 -50v-7l-26 -36l-6 -13l-16 -22l-8 -30l-14 -26l-18 -9l-16 -3l-49 -22v3l-16 5l3 4l-8 10v16l5 5l-9 9l12 38l13 14l5 21l26 31v18h3l6 16
l21 32l13 30l19 18l26 60l-4 9l9 21l15 11l-2 2l16 9l-4 4l16 31v9l14 3h4l16 36l-14 13h-40l4 4v6l-4 2h-8l4 32l26 16l26 6l14 12l26 -4l8 -9l20 25l10 36l38 48l4 22l19 26v9h7l6 9l12 30l13 8v5l-4 4h9l7 9l-3 25l12 21l6 -2l25 33v13l40 40h4l13 12v14l8 8l13 -3h9
l22 -27l-8 -48l8 -9l-12 -15l-22 -18l3 -5l-17 -14l-4 -25l-13 -22l-4 4l-19 -16l-2 -50l-22 -21l-22 -44l-15 -7v-6l7 -4h-7l-7 -9v-12l-18 -21v-6l4 -4h-4l-4 -9l-8 -7l18 -2l4 -4l9 10l34 3l6 5v-5h12l35 5l43 14l5 -6l6 8l10 36l38 48l4 22l19 26v9h7l6 9l12 30l13 8v5
l-4 4h9l7 9l-3 25l12 21l6 -2l25 33v13l40 40h4l13 12v14l8 8l13 -3h9l22 -27l-8 -48l8 -9l-12 -15l-22 -18l3 -5l-17 -14l-4 -25l-13 -22l-4 4l-19 -16l-2 -50l-22 -21l-22 -44l-15 -7v-6l7 -4h-7l-7 -9v-12l-18 -21v-6l4 -4h-4l-4 -9l-14 -13l6 -4h-6l3 -4v-13l-5 -13v-12
l-26 -19h-8l-8 -16v-3l-7 -6v-15zM224 254h-4l-2 -3v-7l-7 -6v-15l-17 -29h2l25 -14l40 6l3 2v10l31 -4v-6l9 -8h24l16 31v9l14 3h4l12 26l-26 5h-9l-13 -12l-40 2l-4 7l-8 -13l-13 13l-27 -7z" />
    <glyph glyph-name="dollar" unicode="$" 
d="M335 505l-27 25l6 -8l-10 -24v-2l3 -4l-3 -10l-4 -4l5 -14l-1 -2l8 -16l-3 -8l-2 -22h2l3 -56l-3 -13l42 -16l40 4l17 -13l21 -40h9v-4l18 -4l13 -30l-3 -6l16 -16l6 -17h-6v-44l6 -5h-6l-4 -4l12 -17l-2 5l-19 -54v-8h-3l-10 -26v-4l-8 -9l2 -5l-21 -8l-17 -21l-16 -9
l-14 4h-12l-6 -4l-38 -4l-4 -6v-10h-8v-9l-2 -1v-4h-8l-2 -2l-12 -2l-12 14l-2 16l-12 12l-38 -4l-28 22l-14 8l-28 -18v-8h-48l-8 8l-13 26l9 30l-6 22v9h6l8 26l-8 52v40l8 13l30 -4v-5l31 -17v-21l12 -39h9v-10l31 -26h9l4 -18l40 -12v18l4 10l-9 16l9 20l-4 14v19l-5 1
l7 18v15l2 11l-9 14l5 4l-6 13v19h1l3 16h2v6h-15l-29 16l-14 -4h-16l-6 4l-13 27l-21 4l-26 31l-5 4h-7l3 5l-13 21v16l-12 19v31l-9 7l13 9v12h8l10 10l-6 5l9 7v16l4 -7l19 13v15l21 12l12 -5l21 14l7 -5l25 17l4 -4l18 14l9 -3l7 8l4 15l-2 2v40h2l2 14l10 10h5l11 -26
h4l-6 -24l4 -4l-6 -17v-14l4 -9l-2 -14l41 -5l25 -13h15l3 -12l26 -22h4l5 31l5 21h26l12 -9l6 -31h-6l-16 -30l12 -22l-6 -16l10 -10l-4 -48l-12 -13h-9l-13 31l-5 -4v13l-13 13l-4 21l-4 -3l-5 22l-9 4l-12 8h-6l-4 -6v6l-9 4l-12 9zM264 354l4 2l-3 4l7 27l-12 30l-3 -1
v9l17 19l-2 12l-11 6v7h3v13l-7 8l7 13l1 31h-10l-17 -6l-4 -7l8 -9l-30 -12l-28 5v4l-10 9h-6v-13l6 -5l-9 -10v-12l-9 -9l-4 -21l13 -23l-9 -7l5 -27l16 -16l31 -15l4 6l18 -12v-7l4 -3h4l4 3l19 9zM326 282l-12 9v-21l4 -4l-4 -15l-5 -51l13 -24l-8 -13l4 -5v-6l4 -10v-8
l4 -9l-4 -15l2 -4l4 -18l3 -6l-1 -2l26 3l16 25l19 10v8l17 16l-4 6l13 22l-9 16l18 19v3l-4 5h4l3 4l-7 13l4 6l-18 16v5l-12 3l-54 22h-16z" />
    <glyph glyph-name="percent" unicode="%" 
d="M551 137l17 -18l-12 -13l-5 -36l-27 -33l-15 -38l-32 -41l-27 -16l-86 -26l-36 5l-20 13l-19 4l-27 40l-5 21l4 86l15 31l-2 28l-6 6l-7 -4l-23 -40l-16 -21l-5 -19l-27 -29l-6 -34l-16 -11l-20 -34l-2 -16l-36 -44l-15 -33l-33 -23l-27 4l-17 23l10 41l30 48l10 28
l26 36l36 74l66 90l2 40l12 18l-6 6h-16l-32 -27l-42 -21l-32 13h-38l-20 29l-23 42l2 80l11 20l8 36l15 28l19 16l26 32l53 21l27 -6l22 11h6l8 -13l10 -7l14 7h22l18 15h22l30 12l28 28l22 -2l24 16l30 11l30 21l10 4l22 -4l14 -21l8 -45l-40 -54l-25 -57l-21 -23l-6 -30
l-8 -22l-14 -8l-12 -22l-20 -18l-12 -15l4 -19l-22 -21v-15l5 -6h33l34 16h82l35 -33l9 -2l18 -25zM382 484l7 6v6l-5 4h-2l-7 -4v-12h7zM184 356l12 30v26l-36 40l-10 -2l-40 -28l-12 -30l-23 -20l-7 -56l9 -23h11l10 11h10l12 -5h13zM308 432l16 12v14l-20 2l-9 -8l-6 -22
l-11 -11l-2 -42l-34 -51l-4 -27l-23 -15v-34l7 -4l16 9l6 8l5 15l-5 19l26 15l4 12l28 28l16 25v23l-18 12v12zM314 184l2 22l-6 6h-8l-7 -8l-6 -32h11zM450 126l6 32l-8 14l-26 4l-20 -26l-27 -67l-5 -31l19 -17h13l12 13l8 31l26 19z" />
    <glyph glyph-name="ampersand" unicode="&#x26;" 
d="M286 572l6 -4h4l4 4l22 -4l14 -9h7l9 -17h6l4 4v-10l8 -2l9 -10v-34l4 -27v-35l-31 -30v-22l-9 -8l5 -14l-34 -22l-14 -12l5 -4l-13 -9l4 -4h-4v-19l8 -12l22 -9h9l8 19l-8 16l27 12l12 28l38 16l10 14l38 8l23 9v-9l9 -4l48 -44l8 -44h-6l-21 -33l-35 -19h-9l-29 31h-9
l-9 -19v-6l4 -6h-4l-3 -4l-5 26h-10l-6 -10v-21l-6 -29l-10 -14v-26l16 -30l-6 -4l44 -50l16 10l26 28l-3 2l21 23l32 3l6 -7l6 4l16 -13l10 -18v-38h-4l-9 -22l-13 -9v-9l-12 -4h-6l-4 -8h-9l-17 -19l-14 -9l-21 6l-5 3l-12 -9l-30 6l-35 12v10l-17 16l-4 -4v4h-27l-23 -29
l-24 -6l-40 -21l-14 12l-2 -4l-15 -8l-17 4l-8 8l-32 -12v4l-16 8h-9v6l-21 9l-23 21l-12 4h-5l-10 25v19l-7 9v12l-14 21h-4l-9 10l6 4v5l-10 7l4 18v13h6l7 35v5l-4 4l12 9v3l-3 5h3l6 4v12l13 7l9 12l16 13l28 6l50 50v30l-25 44l4 71h4l10 26v21l56 40l22 8h44l2 4v-4z
M300 490l-30 8l-21 5l-31 -23v-12l-9 -9v-3l31 -58l21 -5l31 23l26 24l4 32l-8 12l-6 -4zM234 211l-29 5l-27 38l-26 -26l-4 4l-17 -21l3 -4l-8 -9l5 -4v-8l-9 -22l-12 -6v-8l2 -4l14 -4l5 -49l21 -23l4 7h6l7 -9h21l10 -10h13l36 22l16 22l5 -4l4 44l-13 31h-5l-4 13z" />
    <glyph glyph-name="quotesingle" unicode="'" 
d="M324 683l36 -53l-9 -86l-17 -35l14 -59l-14 -108l-52 -35l-8 -8l-28 8l-26 35l10 108l-36 128l-8 9l8 25l26 64l36 14z" />
    <glyph glyph-name="parenleft" unicode="(" 
d="M431 678v-43l-53 -53v-17l-62 -60l-17 -131l-17 -18l-8 -142l18 -26v-17l-10 -7l17 -18l11 -53l32 -77l70 -78l11 -46v-18l-27 -16l-80 80l-6 34l-46 61l-24 121l-19 114l19 148l34 78l68 124l64 60h25z" />
    <glyph glyph-name="parenright" unicode=")" 
d="M396 391l10 -184l-36 -149l-42 -86l-52 -80l-26 -8h-36l-9 18v36l105 130l35 78l7 78l18 36l-8 43l8 9l-8 33l8 11l-25 103l-35 89l-70 87l-18 33l10 10l36 -10l8 -25l76 -103z" />
    <glyph glyph-name="asterisk" unicode="*" 
d="M496 431l7 -17l-30 -4l-14 -14l-26 10l-12 8h-9v10l-10 7h-2l-10 -7l-12 12h-6l-4 -22l10 -27l-6 -33l-22 -26v-14l-28 -8l-31 -6l-9 22l-4 6l-6 21l-4 5l10 16l-6 32v8l10 8l-14 13l-52 -25h-30l-17 4h-15l-6 -8l-38 29h-2l-14 21l-8 -6v16l8 22v21l48 9l18 10h38
l-38 42l4 4v6l-26 6l10 10l-6 30h-4v14h4v22l-2 -2l-6 4l4 2l4 -4l6 18v12l12 -3h16l5 3v-9l23 -13l43 -30l4 5l21 -27l-4 -4l14 -5h12l5 5l17 10v16l12 22v12l6 -4l22 22l-6 4v6l18 8l32 -14l37 6l9 -13v-19l-13 -68l-25 -6l-8 -47l8 -9h29v-8l15 -10h4l3 6l37 -36h2v-8h-2
v4l-6 4v-30l8 -12z" />
    <glyph glyph-name="plus" unicode="+" 
d="M524 234v-34l-44 -33l-78 8l-42 -8h-18l-18 -27l8 -86l-8 -53l-42 -36l-29 36l-6 77l6 44v34l-17 19l-157 9l-9 8h-8v36l36 24h138l17 18l-6 124l17 32l25 18l35 -32l8 -71l-8 -10l8 -68l45 -17l86 6l53 -6z" />
    <glyph glyph-name="comma" unicode="," 
d="M406 129v-40h-2l-10 -50v-59l-4 6l-8 -22h-10l-25 -40l4 -3l-18 -19l5 -4l-31 -33l-35 -28l-42 -9h-22l-28 49l14 47h8l6 10l9 8l-6 4l9 9v13h14l12 12v15l5 4l-17 3l-4 5h-10l-3 13l-6 4h-9l-4 18l-8 9l4 3l-4 6l-13 26l9 43l16 25v10l18 9l18 17l4 -4l30 21h14l9 -9
l31 6v-6l2 -4h14l-4 -4l13 -9h9v-5l16 -7h9v-15l19 -28z" />
    <glyph glyph-name="hyphen" unicode="-" 
d="M162 303l30 -9l6 -3h7l5 3l22 5h126l40 -8l12 8l74 -5l18 -3l8 -9l5 2l9 -8l10 8l2 -2l-4 -4l4 -6h10l-6 -68l-4 -31l-18 -23l-22 -8h-12l-9 -9h-4l-5 5l-4 -5l-69 15l-17 -6l-10 8l-16 -8l-44 6l-14 -15l-26 5l-43 10l-13 -10l-12 4l-109 8l-37 14l-15 17l-7 31v14l-6 8
l21 38l39 27h40l16 4l6 4z" />
    <glyph glyph-name="hyphen" unicode="&#x2010;" 
d="M162 303l30 -9l6 -3h7l5 3l22 5h126l40 -8l12 8l74 -5l18 -3l8 -9l5 2l9 -8l10 8l2 -2l-4 -4l4 -6h10l-6 -68l-4 -31l-18 -23l-22 -8h-12l-9 -9h-4l-5 5l-4 -5l-69 15l-17 -6l-10 8l-16 -8l-44 6l-14 -15l-26 5l-43 10l-13 -10l-12 4l-109 8l-37 14l-15 17l-7 31v14l-6 8
l21 38l39 27h40l16 4l6 4z" />
    <glyph glyph-name="period" unicode="." 
d="M332 204l22 -23l12 -12v-19l6 -2l9 -22l-15 -37v-21h-4l-2 -17v-12l-40 -19l-26 -18h-18l-4 -3l-9 8l-19 -8l-2 -4l-14 4l-21 21l-5 -4h-14l-12 17l-12 44l-10 5h4v12l-4 48l22 39l31 23h7l14 12l30 10l5 -6h9l4 8z" />
    <glyph glyph-name="slash" unicode="/" 
d="M515 729h9l22 -27l-8 -48l8 -9l-12 -15l-22 -18l3 -5l-17 -14l-4 -25l-12 -22l-5 4l-18 -16l-3 -50l-22 -21l-22 -44l-14 -7v-6l6 -4h-6l-8 -9v-12l-18 -21v-6l4 -4h-4l-4 -9l-14 -13l6 -4h-6l-4 -14l-9 -16l-25 -31l-6 -12v-7l-7 -6v-15l-21 -37h-6l-8 -10v-3l4 -6
l-26 -38l-4 -9l-19 -22v-18l-3 -16v-10l-4 4l-18 -21v-4l4 -5l-16 -16l-18 -50v-7l-26 -36l-6 -13l-16 -22l-8 -30l-14 -26l-17 -9l-17 -3l-48 -22v3l-17 5l3 4l-8 10v16l5 5l-9 9l12 38l14 14l4 21l26 31v18h3l7 16l21 32l12 30l19 18l25 56l3 9h6l4 7l8 28l-2 3l16 9l-4 4
l16 31v9l14 3h4l18 40l16 19l6 25l13 13l-5 4l30 38l10 36l38 48l4 22l19 26v9h7l6 9l12 30l13 8v5l-4 4h9l8 9l-4 25l12 21l6 -2l25 33v13l40 40h5l12 12v14l9 8z" />
    <glyph glyph-name="zero" unicode="0" 
d="M509 386l7 -66l-26 -164l-14 -29l-9 -13l-6 -26l-27 -32l-7 -20l-53 -37l-56 -13l-18 -12h-18l-40 -7l-14 19h-30l-22 17l-26 4l-10 34l-20 35l-18 11l-32 74l-17 113l-5 21l5 42v33l57 118l57 69l36 25l83 9l3 4l33 -6l54 -19l40 -8l38 -1l4 -6v-6l-18 -5h-6l-5 -4
l5 -16l20 -14l26 -60l16 -29zM436 261l4 53l-11 67l-13 21l-6 33l-27 49l-40 20l-83 9l-18 -5l-18 -14l-26 -10l-2 -9l-27 -40v-27l-19 -20l-17 -47l-4 -120l6 -33l13 -25l2 -33l30 -28l18 -28l22 -18l40 -2l34 16l40 -6l60 57l22 31l2 51l16 29zM249 337v-7h-11l2 13h2z
M249 236l5 -6l-12 -22l-6 -5l-8 -3l-17 6l-4 10l8 20l7 12l18 -6z" />
    <glyph glyph-name="one" unicode="1" 
d="M366 306v-9l-4 -6h-12l-13 21l-2 40l13 12h14zM460 582l26 -42l-9 -34l-31 -14l-26 8h-32l-26 -27v-33h-12l-6 4l10 29l-12 17l-11 8h-7l-8 -12l-6 -40l-9 -48l-6 -21l6 -65l-8 -40v-48l-5 -14l5 -31l-5 -33l13 -76l7 -6l34 6l16 -12l48 2l24 19l12 -2l40 -51v-8l-26 -28
l-2 -6l-6 -6l-40 6l-6 -6l-38 17l-63 -3h-21l-40 7l-23 9l-140 -5l-13 9l-4 6l2 19l26 13l24 -5l32 11l52 -6h12l7 14l2 22l19 36l-2 26l-13 24l7 32l6 13l-11 40l-6 76l4 17l15 10l8 8l-14 82l6 21l-8 25l-18 17h-35l-47 11l-12 8h-35l-17 25l4 15l18 12l35 7l40 -7l94 3
h73l120 4zM511 3v-8l-3 -5h-6l-8 7v11h14z" />
    <glyph glyph-name="two" unicode="2" 
d="M486 482l6 -5l-17 -37l5 -28l-30 -110l-40 -22l-38 -34l-14 -20l-10 -9h-36l-21 -15l-27 -6l-34 -30l-24 -8l-27 -23l2 -5l5 -6l31 -5l15 -19h54l36 -30h13l16 20l35 20l34 42l20 18l25 -4l21 -42v-60l-26 -31l5 -25l-3 -3l-25 -2l-13 -6l-24 -2l-22 -13l-60 -4l-14 6
l-26 2l-32 22h-38l-37 35l-25 -4l-40 -36l-16 -8l-20 4l-18 19l-6 40l6 25l18 23l7 29l7 13l20 14l6 8l4 20l30 21l14 2l32 27l10 6l11 20v14l6 6l23 -6l6 -4l20 4l25 22l17 4l32 31l40 31l11 42l-4 16l-17 18l-4 20l-40 45l-94 2l-34 -15l-17 2h-8l-13 -21l-6 -31l25 -56
l-11 -18l-44 -26l-14 4l-44 50l6 66l7 40l33 26l12 19l57 31l40 5l13 6l80 -6l24 -13l34 -4l66 -30l12 -10l4 -32l13 -12z" />
    <glyph glyph-name="three" unicode="3" 
d="M496 198l11 -12l-21 -92l-23 -20l-7 -31l-35 -17l-7 -17l-38 -9l-14 -12l-34 -2l-112 2l-34 12l-30 16l-19 6l-53 40l-18 32l10 78l10 16l11 8l61 2l42 -48v-27l-6 -9l13 -34l12 -12l34 -6l33 -13l32 13l26 -6l20 6l29 32l7 14l20 11l11 13l-7 54l-18 17v17l-40 20h-22
l-6 14l-12 9h-33l-27 19l-46 -2l-7 14l11 28l29 25l33 -6l12 13v8h24l38 4l37 42l-10 28v30l-27 34l-16 6h-12l-8 -22l-13 -8l-7 6l-6 26v6l-5 5l-29 -5l-13 -11l-5 -19l-14 -14h-12l-13 14l-7 -2l-21 -34v-20l-48 -40l-15 6l-19 29l-7 65v40l-6 12l8 23l34 30l26 -5l25 -6
l36 8l25 -6l20 11l122 -11l24 -16l63 -52l31 -28v-52l-22 -22l-3 -33l-33 -40l12 -13l-21 -16v-16l21 -14l15 -6l17 -16v-26l14 -20z" />
    <glyph glyph-name="four" unicode="4" 
d="M505 188v-40l-15 -13h-58l-22 -27l-4 -12v-10l19 -14l11 7l14 31l13 -2l5 -36l28 -16l7 -34l-5 -17l-20 -19l-55 -4l-33 4l-54 -4l-80 4l-18 22l4 25l21 12l38 7l31 34l-2 20l-40 34l-64 -5l-63 -13l-32 4l-15 9l-27 -9l-19 4l-12 16v67l14 31l30 20l67 92l13 35l56 73
l12 26l28 23l14 17l11 28l40 33l8 2l7 -2l52 -40l6 -33v-118l-10 -32l4 -24l6 -20l-10 -33l6 -27v-20l44 -33l34 -1zM345 272l4 17l-13 15l-6 16l8 44l-20 40l10 14l-6 6l-8 -8l-22 -32l-56 -58l-4 -10l-23 -27l-11 -30l13 -29l21 -11l50 -6l16 19h30l4 6l4 13z" />
    <glyph glyph-name="five" unicode="5" 
d="M524 521v-2l-4 -3h-9v8h11zM530 343v-2l-6 -5h-13l-2 3v8l6 2l13 -2zM488 524v-3l-6 -5l-18 3l-6 5l-62 -18l-28 10l-12 -6h-28l-24 -18l-28 2l-21 16h-27l-13 -4l-21 13l-17 -5l-7 -8l3 -18l11 -18l-9 -26l-5 -4v-14l11 -12l53 9l17 7h31l7 6h19l14 -10l32 -5l16 -17
l26 -4l66 -70l9 -31l4 -45l7 -14l-2 -66l-9 -47l-23 -53l-60 -67l-20 -11l-50 -4h-18l-18 -16l-58 10l-9 8l-38 6l-21 18h-19l-29 35l-18 28l-9 38l-13 17l2 27l14 23l11 8l33 2l9 4l40 -14l25 -32l-2 -18l-19 -20l3 -8l16 -12l8 6h9l6 -6l-6 -15l27 -13l20 12l24 -10l28 19
l21 -6l17 17h14l22 32l6 35l12 23v78l-50 48l-23 12l-27 -8l-17 2l-2 8v6l-5 5h-8l-2 -15l-4 -4h-6l-9 21h-21l-34 -17l-23 -23l-21 -7l-10 -10l-18 2l-30 21l-10 27l6 43l-6 55l10 56l-4 10l10 68l17 14h43l60 13l67 -2l11 4l54 -9l28 5l58 -9l22 -29l-6 -23l24 -4z
M310 132v-9h-19l-7 6l-14 -6l-9 4l-6 15h15l6 -6h8l13 14l11 -2z" />
    <glyph glyph-name="six" unicode="6" 
d="M488 247l4 -76l-10 -27l-8 -46l-26 -38l-6 -14l-21 -13l-21 -7l-42 -38l-106 -2l-24 5l-30 19l-20 8l-36 40l-21 14l-30 46l3 34l-2 14l-11 13l-2 40l-1 77l-6 13l13 51l34 100l15 20l6 23l25 23l7 19l28 13l14 2l24 30l14 4l40 4l9 5l61 -11l17 -24l35 -4l18 -12l18 -32
l14 -17l-3 -23l-42 -42l-61 12l-26 57l-40 11l-34 -13l-20 -2l-24 -32l-7 -31l-27 -30l1 -10l59 -7l21 -13h33l15 24h19l24 -28l29 -10l25 -22l36 -6l6 -29l31 -37zM414 144l11 27l-6 13v42l-27 38l-24 2v4l-20 21l-36 2l-15 11l-25 -8l-26 10l-20 -20l-19 -6l-29 -27
l-17 -36l-7 -27l4 -17l7 -44l9 -13l31 -26l27 -10l16 -14l24 -8l12 12l15 2l13 -6h10l13 38h19l14 -14h11l29 26z" />
    <glyph glyph-name="seven" unicode="7" 
d="M466 572l18 -25v-87l-20 -48l-8 -28l-12 -8l-12 -16l-2 -11l-60 -63l-22 -33l-30 -55l-21 -69v-25l7 -13l-7 -27l-7 -12v-26l-14 -35l-24 -13l-26 8l-14 13l-10 34l6 33v32l2 35l7 23l4 28l15 25l19 55l15 10l20 32l26 32l23 16l31 39l7 57l-25 15l-42 21l-24 8l-18 19
l-64 -10l-32 -43l-14 -40l-8 -31l-25 -58l-19 -7l-34 7l-6 13l-4 36l8 45l-8 27l4 34l-12 32l10 40l21 16l27 -2l20 -12l40 4l40 23l40 -3l43 -6l31 -20l30 -6l28 6l22 -6l20 6l22 16z" />
    <glyph glyph-name="eight" unicode="8" 
d="M510 198l5 -18l-17 -74l-14 -32l-20 -25l-8 -25l-34 -15l-92 -29l-14 -6l-110 10l-20 7h-23l-19 18l-38 5l-18 32l-38 40l-14 90l22 84l40 52l-2 26l-32 76l-2 56l23 37l13 29l32 29l22 7l32 26l22 1l20 8l31 -6l21 6l78 -19l30 -4l31 -12l39 -22l28 -3l4 -2v-9l-18 -12
l-6 -6l13 -40v-34l11 -19v-13l-18 -32l-22 -26l-4 -34l26 -28l5 -20l29 -25l6 -9v-40zM396 404l10 42l-8 13l-26 13v6l7 6l7 4v8l-2 2l-36 16l-45 12l-11 -8l-64 -6l-38 -7l-25 -13l-15 -46l29 -66l17 -8l74 -12l22 6l72 4l8 21zM435 140l5 25l-14 19l-2 29l-12 17l-6 2
l-27 22h-35l-18 18h-40l-10 -4l-17 -14l-15 -2l-16 13h-24l-27 -21l-21 -4l-14 -14l-10 -15l14 -57l-4 -10v-20h10l2 28h14l8 -8v-20l3 -6l11 -6l26 6l14 -12l6 -8h16l18 -14l56 -10h38l26 36l18 2l9 8z" />
    <glyph glyph-name="nine" unicode="9" 
d="M498 396v-13l-14 -13l-7 -36l11 -18l-4 -30l-9 -12l2 -30l-25 -37l-4 -17l-16 -30l3 -23l2 -6v-7l-20 -12l-11 -14l-10 -40l-17 -7l-17 -31l-32 -16l-67 -20l-65 7l-12 7h-32l-42 42v13l-27 34l11 31l23 19l13 26l22 2h9l27 -19l13 -2l9 -20l24 -24l23 12l19 -2l14 -17
l34 17l49 61l-5 47l-6 6l-20 6l-58 -14l-50 -3l-10 -2l-16 5l-16 10l-29 12l-23 16l-14 4l-43 42l-6 16l-17 14l-8 10l2 79l8 40l15 53l23 33l52 39l54 23l20 3l37 -3l13 -6l44 -2l86 -36l48 -35l34 -32v-52l-6 -19v-15zM390 370l2 8l-10 18v29l-34 63l-43 26l-19 4l-34 -11
l-31 17l-13 -12l-4 -14l-14 -14l-34 -25l14 -3l20 -12v-10l-25 -36v-20l39 -62l12 -2l22 -20l34 9l23 -19l35 19l14 21l18 2l8 8l7 26z" />
    <glyph glyph-name="colon" unicode=":" 
d="M354 354l12 -13l-4 -65l-8 -17h-10l-12 -27l-4 6l-6 -6l-25 -9l-13 -3l-4 -4v-5l-14 9h-9v3l-43 5v4l-4 6l-3 13h-9l-22 31v59l10 19l12 12l-6 4l27 22l21 4l14 4l18 10l48 -14l24 -26zM362 89l10 -9l-6 -43l-4 -21l-21 -32l-9 -8l-31 -4l-21 -17l-23 4l-17 9l-4 -6
l-13 14l-4 -4l-19 18v9l-14 7l-10 14l-13 13l4 4l-9 9v18h5l4 4l-4 2l16 32l7 6l12 2l21 36h4l5 -4l48 31h8l10 -9l3 3l4 -13l15 -4v-4l21 -10l17 -16z" />
    <glyph glyph-name="semicolon" unicode=";" 
d="M335 362l14 -34l-5 -21l-4 -4v-14h-8l-4 -21l-10 -14v-16l-40 4l-12 -14l10 -12l-6 -9h-4l-4 -5l-14 21h-29l-49 31l-16 28l-6 28l10 22l-4 6l13 12v12h3l18 28l26 22l43 -6l9 10l35 -23v-3l13 -5zM349 86l13 -22l-13 -48l5 -17h-5l-9 -27l-8 -10l3 -3h-7l-10 -19l4 -21
l-30 -29l5 -6l-31 -30v-8l-12 -4l-6 -14l-4 4l-12 -13l-57 -3l-17 26l3 48l9 16l14 9l8 9v16h6v28l-14 22l-30 3v35l-10 9l14 65l12 8v10l40 26l9 12l-14 18l14 12h13l16 -30l14 15l8 -9l6 3v-9l2 -4v4l2 4l4 -4l-6 -4l14 -12h14l8 -9h18v-4l8 -5v-4l4 -6z" />
    <glyph glyph-name="less" unicode="&#x3c;" 
d="M381 442l33 -24l15 -41l-33 -15v-31l-30 3l-40 -18v-25l-37 -9l-36 -14l-40 -42l4 -34l23 -12l49 -38l43 -13l15 -36l46 -5l5 -18l16 -33l-16 -43l-21 -10h-21l-70 36l-33 20l-5 22l-22 12l-12 20l-58 38h-18l-36 50l14 48l40 34l17 41l36 3l17 31l27 31l27 7v23l6 4v12
l16 5l24 -5l6 36z" />
    <glyph glyph-name="equal" unicode="=" 
d="M521 320v-13l-5 -13v-12l-26 -19h-8l-9 -19l-31 -6v4l-16 9l-14 -7v-2h-14v2l-50 10h-9l-13 -12l-40 2l-4 7l-8 -13l-13 13l-27 -7l-10 10h-26l-12 9l-34 -9l-22 -3l-22 21h-40l4 4v6l-4 2h-8l4 32l26 16l26 6l14 12l26 -4l12 -14l18 9l44 -3l56 -6l4 -4l9 10l34 3l6 5
v-5h12l35 5l43 14l9 -10h35l31 -22h3l6 4zM412 220v-13l-4 -5h-10l6 5v4l-6 5v7l6 -3h8zM513 167l13 -25l-5 -44l-31 -9l-4 -3l-82 -18l-22 18l-62 -9l6 3h-71l-31 -3v3l-34 9l-4 -3h-5l-7 7l-18 -7l-62 3l-26 9l-4 -5v9l-14 8l-12 23l9 21l31 22l-6 4h6l12 14l4 -6h14v-2
l48 -6l18 14h22l25 -14l40 6l3 2v10l31 -4v-6l9 -8h29l15 18l22 9l7 -9h14v-4l21 -6h5l3 -2l18 16l35 -4l13 -22h18v-3z" />
    <glyph glyph-name="greater" unicode="&#x3e;" 
d="M188 -18l-32 24l-16 41l33 15v31l31 -3l38 18l2 25l36 9l36 14l40 42l-4 34l-22 12l-50 38l-42 13l-16 36l-46 5l-5 18l-15 33l16 43l20 10h22l70 -36l32 -20l6 -22l22 -12l12 -20l58 -38h17l37 -50l-16 -48l-38 -34l-18 -41l-36 -3l-16 -31l-28 -31l-27 -7l1 -23l-6 -4
v-12l-16 -5l-26 5l-4 -36z" />
    <glyph glyph-name="question" unicode="?" 
d="M479 412h3l-30 -50l-26 -24l-47 -47l-15 -7h-12l-26 -16l-8 -9l4 -31l8 -12v-22l-16 -34l-62 4l-3 3h-9l-12 21l-7 6l9 10v16l-9 8l-9 14v9h6l3 17l9 14h10l4 9h12l26 43h14l9 12l17 10l26 4l16 25v27l-2 4l-4 34l-15 22l-21 8v6l-14 12l-78 5l-18 5l-22 -22h-6l-15 -14
l31 -13l21 -26l-3 -12l-6 -5l9 -10l-9 -6l6 -7h-6l-3 -12l-4 4l-15 -13h-21l-17 -12h-8l-13 12l-21 -10l-28 19l-4 35h4l5 17l9 53l29 34v10l40 25l23 9l2 4l19 6l40 6l16 10l34 -4l31 -6l9 -6l44 -6l9 -13h25l35 -52l14 -35l13 -9l-6 -43zM370 64l9 -10l-5 -21l-12 -21
l-4 -5h-15v5h-13l-16 -13l-36 -6l-8 -3h-14l-28 17l-16 -5l-28 18v31l4 -5l12 26l56 48l14 18h4l8 -9h14l40 -21l3 2l6 -8l5 4l2 -4l-4 -4l16 -18l6 -12v-4z" />
    <glyph glyph-name="A" unicode="A" 
d="M560 48l8 -22l-5 -14v-7h-9l-3 -5l-35 -22l-40 6h-40l-12 2h-14l-8 -8v6l-60 2l-36 32v8l22 13l-4 4l13 9v10l40 12l3 30l-8 10l-8 16h-8l-10 12l-127 -7l-7 -9l3 -40l23 -8v-4l2 -4h10v-14l12 -17h6l4 4l12 -25l-8 -13l4 -5h-18l-3 -9l-31 -13l-82 6l-4 2h-14l-22 -21
l-12 9l-6 -6l-28 18h-19l-25 26l8 18v26l14 8h12l16 6l10 8l5 -4l4 4l21 -4l31 40v26l9 25l4 17l4 10l18 25l-4 5l13 14v38l3 17l14 18l-4 13h4l5 25l3 -3h6l12 22v38l10 21l4 19l12 21l5 19l7 12l-3 4l13 5h12v-5l6 -4h3l9 9l-9 16l-3 -3l-14 16l4 22v9l13 5l31 -9l13 -12
v-19l12 -34v-18l9 -13l10 -47l-4 -6l16 -30l6 -22l12 -60l16 -18l-4 -4l14 -26l-4 -14l9 -8v-4l-5 -4l9 -9v-43l13 -18v-22l8 -4l10 -40l22 -22h38l14 -8zM337 230l12 18l-3 30l-4 4v18l-26 16v10l-4 12l12 22h4l-16 58l-6 4v9l10 34l-10 13l-4 -4l-3 -9l3 -3l-18 -18
l-8 -10l4 -56l-12 -22h-9l-4 -21v-35l-9 -9v-43h-6v-22h10l26 -9l44 19l8 -10l5 4h4z" />
    <glyph glyph-name="B" unicode="B" 
d="M534 203l12 -47l-4 -14l-14 -30v-34l-13 -14l-25 -8l-10 -18h-3l-6 -4v-12l-38 -19h-31l-4 -3h-8v3l-5 4l-9 -7l-16 3l-23 -12l-9 9l-34 3l-28 4l-64 5l-4 -5h-78l-18 -4l-4 4l-9 -7l-25 28l16 22h9l9 10l26 -4h12v-6l10 -7l30 13l12 12l-2 4h2l10 28l-4 25l-6 21l10 10
v99l-10 49l-2 26l8 8v26l4 6l-10 7l-8 40l8 39l-12 34l10 10v7l-10 9l-34 -22l-13 6l-9 7l-31 -3v3l-12 5l-19 22v22l19 16l25 10h8l4 -4l6 4l12 5v4l18 -4l8 -9l18 4l26 -4l21 13l28 -9l33 5v-5h19l7 9l50 -4l16 -5l22 -14h35v-3l7 -6v-3l10 -9l6 4v5l24 -18l-3 -4l13 -8
v-5l-6 -5l10 -9v-13l21 -22l13 -24l-4 -36v-14h-4l-22 -51l-18 -9l-3 -12v-14l7 -8l-4 -5l44 -44v-38zM440 377l6 17v31l-13 25l-5 6l5 4l-3 4l-4 -6l2 -2h-9l-17 34l-17 -4l-4 -4l-21 4v14l-23 -6l-34 -4l-31 17l-9 -7l-4 -22h-5v-9l-10 -21l-2 -76h-4v-12l4 -9l2 -18
l10 -7l30 4l10 -10l12 18h26l61 -5l13 14l18 4v9zM468 121l9 21v61l-14 14l-4 -5l-9 8v4l-31 31h-7l-27 13h-35l-30 8l-10 6l-12 -8l-26 -6l-21 14l-9 -6v-12l-14 -9l10 -9l-6 -4h-4l4 -8l6 -4l-6 -34l10 -40v-66l9 -26h65l77 4l40 4l4 6v16l13 22h6z" />
    <glyph glyph-name="C" unicode="C" 
d="M478 217l10 -12l-4 -19l-10 -30l10 -8l-10 -22l4 -5l-30 -13l-8 -16v-6l4 -3l-40 -44l-8 -13l-5 -21h-9l-7 -9l-19 9l-8 -9l6 -5l-38 -5h-38l-8 10l-22 -5h-12v5l-22 4h-14v18l-21 16l-27 28l-22 8v30l-9 8v13l-3 5h-14v9l-12 13l-9 25l4 23l-9 17l5 25l4 28l5 4l-14 12
l5 118l4 18l9 13v13l-4 4l12 14l4 -6l13 22v10l-3 2l22 19l4 31l30 21l12 21h28l47 17h21l6 6h38l9 -13l9 -5h12l14 -13h12v-4l22 -9l22 21h14l4 5l12 9l13 -9l9 -35h-4l-5 -24l-7 -10l4 -22l-10 -8l6 -14h-6l-12 -22v-8l4 -4l30 -58l-4 -44l-5 -3v-13h-7l-22 13l-14 12
l-14 9h-8l8 10l-16 34v4l8 8l-17 22l4 28l-12 22l-4 -6v6l-9 6l-6 -2l-4 2l-2 -2v-10h-15l5 12l-12 28l-16 3l-34 9h-4l-8 -9l-26 7l-14 -16v-16l-25 -12l-5 4l-30 -32l-9 -16v-18l-21 -31v-77l-5 -5v-14l5 -4l4 -13l-9 -21l17 -21l9 -23l4 -40l9 -25l26 -27v-7l14 -10l8 -9
v-12l26 -9l47 4l37 30l24 6l31 34l-5 22h5l9 9l4 -6l19 23l-7 26l-2 4l16 18l22 4h8l13 -12h9v-19z" />
    <glyph glyph-name="D" unicode="D" 
d="M538 331l10 -17l-10 -23l4 -69h-4v-17l-4 3l-4 -26v-9h-4l-9 -33l-5 -14l-4 -5v-7l-22 -22l4 -6l-13 -12l5 -4h-8l-6 -6v-12l-22 -9l-46 -43h-22l-10 -9h-46l-10 -7h-9l-9 7l-24 -13l-23 18l-17 -10h-57l-17 -2l-18 -6l-3 -4v4l-6 6h-13l4 2h-25l-4 -2l-31 2v5l-12 5
l-18 26l9 17v13l33 18h44l34 -6h14l9 14l-4 43l9 9v56l-5 50l5 24l4 6v4l-4 4v64l8 58v48l14 12v6l-10 3l-8 9l-13 22v16h-19l-12 -7l-12 7l-54 6l-16 3l-8 9l3 22l13 26l18 4l4 5l18 -9l25 14l31 -5l13 9v-4l17 -10h75l5 5v-5l33 -4l5 -13l14 5l21 -9l4 4v-4h13l8 9l13 -5
v-4l59 -19l6 -14h15l-5 -7l21 -9l19 -47l2 -21l14 -26l14 -14h4l8 -17v-56zM477 282l5 40l-17 13v9l3 3v28l-3 37l-4 -2l-9 8l-18 44l-34 34l-26 4l-14 12l-17 -3v-4l-21 -5l-14 12h-8l-14 6l-8 -40h-6l-2 12l-5 6v9l5 4l2 -4l-2 13l-10 -9l-4 -44l-18 -40h9l4 -3v-4l5 -18
l-9 -9v-37l9 -16l-9 -16h4l5 -40l-9 -8h-3l3 -4l-3 -109l12 -61l-9 -17h31l8 -9l5 4l31 -4l12 -4l26 8l21 22h9v8l12 10l6 12h13l19 12v14l-10 14v12l10 10l2 4h10l-6 4v5l10 8l-4 4l13 13l3 40zM316 260l6 -30h-10l-4 -4l-30 -4l-8 8h-5l7 8v22h6v10l34 -4z" />
    <glyph glyph-name="E" unicode="E" 
d="M528 186v-10h-4l-14 -34l4 -84l-7 -9v-16l-7 4l-2 -21l-6 -14l-6 -9l-19 9h-31l-4 4l-26 -13l-17 -3l-13 9l-40 -6h-108l-18 -3h-30l-26 -6l-14 15l-9 -9l-31 3h-16l-26 -3l-8 16h-9l-9 14l9 34l21 16l31 -6l57 6l8 10l-4 6l17 24v78l4 28l5 4v3l-5 5l-9 16l5 189l-5 61
l-4 12h-34l-5 -3h-35l5 3l-35 6h-14l-8 24l14 23l22 13h82l4 4l66 -17l22 5h68l14 8h21l9 -13l18 -4h13l9 9l8 -9l21 13l36 -4l29 -14l6 -14l9 -42v-38l7 -10v-53l10 -17l-17 -16l-15 2l-22 40l-3 31l-9 23l5 3v9l-5 4l-10 18l-16 13h-9l-3 12l-14 13l-4 -4l-22 18l3 4h-17
l-8 -10l-44 -2l-9 -14h-37l-6 -5v-3h-9v3h-17l-18 -9v-113l-8 -12l8 -27l14 -22l26 -4v-4h26l12 22h16l16 14v30h5l7 16v10l14 3h8l18 -17l3 4v-21l6 -31l3 -30l-12 -21v-52l3 -19l6 -21v-13l-49 -22l-12 31v52l-14 17l-2 -4l-10 10l-78 2l-18 -21l9 -25l3 -40l-8 -10v-52
l18 -22l-4 -25l-6 -3l18 -18l48 -4l12 -10l32 10l21 4h13v-4l36 -10l8 14l21 12v13h5l10 21l6 10l-2 26l21 23v25l9 9v13h24v3l3 5l4 -5l-7 -3l7 -4h12z" />
    <glyph glyph-name="F" unicode="F" 
d="M508 391l18 -31l-12 -38l-14 -13l-35 17v34l-4 18l-9 9v13l18 25l-9 6l-17 17v30l-14 12h-24l-10 28h-13l-21 -18l-13 9l-49 3l-4 -16l-22 -12l-9 4l-12 17v-27l3 -4v-5l-8 -7l-8 -14l13 -26l-13 -35l4 -33h-4l-6 -7l14 -9l8 -7l6 4v-4l3 -5l5 5l14 4l7 -9l9 9l-4 3h4
l12 28l31 9v29l6 18l3 3l-9 19l9 18h10l-4 2l6 5l2 -4l-4 -3l12 -14v-14l-8 -9l21 -25v-25l-9 -15v-122l5 -21l4 -47h-4l-5 3l-8 -8h-21v8l-6 6h-8v17l-4 4h4l5 5v3l-9 5l4 13l5 26l-14 18l-14 4l-7 -8h-21l-22 -9l-14 3h-4l-4 6l-14 -36l8 -8l-8 -9l8 -13l-2 -52l-6 -6
l8 -7v-49l22 -24l87 -6l-1 4l3 2h4l-6 -6l13 -8l10 -18l-17 -34h-96l-5 -5h-4l-10 9l-59 -4h-105l-10 30l10 13l-4 13l34 10v-6l31 -4l13 10v-6l4 -4l30 26v36l10 12l4 16v14l-10 9l-4 65l-3 22l7 57l-7 17v99l-14 23l5 40l-10 17h-12l-49 -5l-4 -4l-8 9h-13l-26 35h4l10 21
l12 13h13l17 4l78 4l40 5l8 -9l30 14l32 -10h52l9 -4h13l-4 4l6 2l2 -2l-4 -4l8 -8l13 12v-4h53l29 -13l5 5l30 -49v-9l-4 -3l4 -4l5 -15h-5l-4 -12v-13l9 -9l-5 -4l14 -27l-6 -25l-3 -4z" />
    <glyph glyph-name="G" unicode="G" 
d="M540 274l9 -14l-5 -30l-70 -8l-26 -5v-25l-14 -40l10 -31l-4 -57l8 -8l-4 -17v-13l-10 -8l6 -6h-9l-5 -4h-22l-22 10l-3 12l-4 4l-36 -29l-17 -9h-96v4l-9 8l-4 -3v3l-13 4l-42 44v8l-23 22l-9 35l-18 31l-4 21l-9 13v52l-3 6l8 8l-5 43h-8l5 127l27 32l-5 4l4 4l3 -6
l14 44l23 30h7l17 40l14 4l4 4l44 21l22 -3h12l4 9l44 -13h28l6 -14h40l4 4l14 10h4l4 -5l5 5l21 -14l10 -22l-6 -38l-12 -40l4 -47h-4v-21l4 -6v-22l-17 -16l-21 9h-14v3l4 4l-13 14l4 4v10l-12 2l-13 22v22l-10 18l-25 22h-9l-22 22h-5l-3 -6v6l-18 3h-8l-9 -16l-9 7h-26
l-36 -22l-12 -12l5 -4h-5l-13 -22v-12l-9 -15l6 -34l-23 -31v-22l7 -7l-7 -9l5 -18l2 -30v-36l-2 -2l2 -6l16 -25v-57l24 -27l4 5v-12l10 -10l10 -19l4 5l3 -4l-5 -3l14 -9l16 9v-5l19 -8l35 8l24 17h10l21 23h7l2 3v9l4 -4l10 22l-4 4l13 21v27l3 5v12l-22 9l-6 -9h-10v5
l-35 4h-27l6 4v6l-6 2h-8l4 22l4 6l13 12v4l-3 6l34 16l9 -9h127l59 -4h9l10 -9l-6 -4z" />
    <glyph glyph-name="H" unicode="H" 
d="M544 542l4 -37l-35 -15l-19 6l-2 -6l-23 -2l13 -26l-16 -22l-5 -86l-5 -23l-4 -5l9 -12l-5 -19l-4 -21l-8 -17l12 -13l-4 -44l-4 -4l8 -10v-4l-4 -3l9 -14l-9 -9v-16l-4 -19l4 -3l4 -66l22 -4h14l21 14l25 -23l-4 -27l-18 -16l-16 4l-6 5l-2 -5l-26 -9v5l-131 4l-15 12
v18l-2 4l21 14h4l5 -5l35 27v-8l3 -6h10l8 22l-4 14v12l8 10l-8 42l8 9l-8 14l8 29l-4 36l-4 -6v10l-14 4h-12l-4 18l-19 12l-3 -4l-34 -4l-15 -22l-13 14l6 4l-31 8l-31 -4h-9l-16 -22l-9 8l4 6v4l-10 8l-12 -8v-26l-4 -74l-5 -5h5v-4h-5l-4 -13v-22l9 -18v-52l12 -8l10 -9
l21 9l17 -5l6 5v4l16 -13v-31l-26 -12l-40 4h-12v5h-26l-40 -9h-30l-4 -5l-31 17l-3 4v36l38 4l26 -13l22 4l-5 49l-3 8v14h3v12l-7 9l7 35l-7 9l4 38l3 9v12l-7 10l-6 -4v38l18 13l-8 14l3 5l-17 8l10 9v23l4 2v10l-4 4l-14 21l18 21l-4 19l-14 13l14 34l-18 18l-25 16h-23
l-5 6h-9l-8 16l5 22l21 18h26l5 -4l9 12v-4l44 -8l6 8l63 -4h40l3 -4h9l-5 -5l14 -9l4 -4h4l4 9h10l4 4v-4l3 -5l27 22l34 -4l4 -4l6 4h112l22 -4l9 8l19 -8l6 -21zM383 356l8 10v21l-12 23l12 24l-5 6l-12 8l-4 17l13 25l-23 10l-9 -4l-3 -6l-44 19l-18 9v10l-16 6v-29h-14
l-7 -9l-7 4l-21 5l-12 -15h-23v-6l4 -15l-6 -29l6 -9l-4 -13l-2 -43l6 -21l31 -7l28 -9l15 -3l10 12h40l6 -12h28l31 25zM209 456v-8l-9 4v22l9 10v-10h-4l-5 -5zM205 400v-9h-5v13z" />
    <glyph glyph-name="I" unicode="I" 
d="M478 70l31 -33l-25 -38l-22 -15h-36l-70 -4v4h-61l-7 -4h-14l-8 10l-18 -6v-4h-12l2 4l-12 9l-34 -9l-13 6l-27 -10l-10 4l-16 15h-34l-5 29l-9 5l5 13v3l38 15l21 4h16l34 12h16l9 -10l5 7l8 -7l6 -2l8 12l-6 6h6l4 16v31l-4 40h4v13l-4 2l8 10v34l5 6v6l-9 10l9 22
l-5 18v112l8 27l-8 7l5 23l3 5l-8 9v21l-39 5h-8l-9 -9l4 -4h-14v4l-44 4l-28 5l-19 17v35h5l4 4l26 13l70 4l-4 -4l52 -4l12 8h49l30 -4l8 8l28 6l12 -10l25 4l62 -8v-4l10 -9l-6 -31l-16 -16h-14l-36 -14l-8 8l-4 -3l-9 9l-21 -9v-5h-10l-13 14l-21 -9h-4v-19l9 -28
l-5 -23l-4 -5l9 -12l-9 -10l9 -186l8 -70l-4 -4l4 -4l15 -62l25 6h12v-6l40 -3z" />
    <glyph glyph-name="J" unicode="J" 
d="M517 565l13 -23l-9 -8l5 -4l-12 -34h-9l-5 -6l-14 -6l-24 4l-6 -4l-16 -15l-13 9h-9l-10 -53v-71l10 -10l-12 -35v-35l-10 -36l10 -21l-10 -9l4 -3l-4 -57v-70h-9l-25 -26v-18l-22 -12l-14 -17h-8l-9 -14l-5 5l-13 -12h-3l-6 2l-4 -2v-10l-74 4l-26 8l-43 26h-12l3 6
l-18 8l-8 26l-17 26l3 5l-3 3l-9 49v7h5l7 10v34h5l4 19l21 21l32 4l25 6v-6l5 -4l4 4l18 -8l4 -5l13 -25l-4 -13l9 -9l-9 -9l4 -5l-13 -16h-4l-6 2l-6 -7l-22 7h-18l-10 -7v-27l6 -4l12 -34l22 -22h4l12 -14l6 5l38 4l6 5l9 -14h4l3 5l31 4l27 19l-6 2l28 36v4l-5 4h5l7 32
l-12 12l5 13l7 31v4l-2 -4l-5 4l3 5l4 -5l5 5l-9 17l4 35l-7 9v16l-5 6l8 82l-8 12l-9 58l9 8l-4 4l4 4l-13 32l-22 -4v4l-22 2l-4 -2l-14 -4h-3l-9 6l-4 -2l-27 24l-4 30l13 10v9l8 9h14l5 4l21 4h4l10 -8l12 12h22l4 5l14 -5h12v-4l16 -4l7 -4l16 12l49 -4l37 -8l15 4z
" />
    <glyph glyph-name="K" unicode="K" 
d="M520 52v-52l-9 -16l-9 7l-65 5l-4 4l-14 -14l-47 10h-35l-43 16l-35 -16h-5l-4 4l-12 -14l-22 5l-28 14h-2l-10 -9l-9 9l-17 -9h-58l-43 4l-12 5l-4 25v13l21 9l10 10l25 -6h9l16 18l6 66l9 12l-5 34l-10 10l10 12l-4 18l9 10l-5 52l-4 21l12 22l-3 39l-5 34l8 8l-8 97
l-14 12l-46 -9h-10v6l-17 3l-9 21l5 14l31 14l28 -9l54 13l17 -4h4l5 4l16 -4h10l4 4l17 8v5h19v-5h-6l-4 -4l35 -13l3 5l23 -30v-10l-5 4l-8 -13l-32 7l-50 -23l-15 -71v-125l7 -18l12 -25l9 8v14l21 3l14 25l2 10l6 12l13 18l17 10l4 4v12l36 28l4 8v13h4l4 3v10h9l13 21
l-8 19l8 16v9l-8 9h-30l-6 12l10 22l21 18l49 4l16 8l22 -8l43 8l49 -8l-5 -4l5 -5v-47l-9 -22l-17 25l-32 -3v-9l-25 -9h-4l-9 -10v-2l4 -4l-26 -28v-12l-21 -13h-9l-26 -31l-14 -13l5 -5l-13 -12l4 -4l-25 -40l-6 -26l-3 -5l22 -29l4 4v-4l17 -9l44 -87l43 -49v-13l13 -8
l22 -22l-5 -4l17 -4l44 -14zM381 74l3 12l-34 32l-30 24l-17 10l-19 18v12l5 14l5 34l-10 27h-4l-14 -27l-3 6l-25 -14l-6 -14l-9 -12l-4 4l-12 -21l-13 -6v-12l4 -19v-34l-10 -8l6 -5l8 -33l5 2h47l12 6l37 -18v-9h7l6 -4l21 23l4 2l31 -2z" />
    <glyph glyph-name="L" unicode="L" 
d="M540 74l4 -31l-35 -52h-69l-14 -7l-56 7h-14l-2 -5h-40l-26 10l-10 -10h-73v5l-9 9l-4 -4l-18 -5l-4 -5l-9 10l-13 -10l-70 -2l-16 12l-36 -10h-14l-7 19l4 3v4l-9 10h5l4 30l3 12h109l14 6l5 4l8 -10l22 6h9l7 8l-4 48l-3 4l7 10l-4 25v31l4 12v96l10 18l-10 32l14 6
l-4 6v9l9 7l-9 14l-4 48l-6 12v13l6 -4l16 31v13l-12 9l-17 3l-18 -9l-9 9l-52 -3l-17 -9v3l-9 6h-12v3h-19l-25 -12l-13 19l4 2v10l-9 9l9 7l-4 5h4l3 13l14 8v-4l14 -4l9 -4h13l2 4l32 8l78 -4l8 9l32 -5l22 -8l2 4v-4l28 -9h8l21 17l75 -8l26 -13v-9l4 -3v-19l-18 -9
l-7 -12l-19 3l-2 -3v-4l-28 13h-56l-4 3h-5v-90l5 -93l4 -3l4 -53l8 -22v-16h-4l-8 -36l4 -3l-8 -9l-5 -31l-4 -4l13 -19l-4 -34v-13l16 -25h62l52 -6l14 10h9l15 18l22 12l6 78v23l-10 12l4 5v14l13 12v22l21 12l23 6l17 -18v-13l10 -9l-6 -22v-4l-4 -5l10 -9v-29l4 -6
l-10 -8l6 -35v-16l-6 4v-26z" />
    <glyph glyph-name="M" unicode="M" 
d="M572 28v-6l-23 -15l4 -3l-57 3l-8 -7l-17 -9h-9v4l-18 5l-16 7l-44 -16h-12l-28 21v10l-3 4l-13 -14l-6 4l-8 -12l-8 -9h-30l4 5v4l-26 12l-14 -4l-14 -17h-21l-73 -4l-5 -5h-13l-22 18l-24 8l-32 -5v5l-8 10l-4 29l4 -4l17 25l4 -4l3 4v6h10l8 -10l5 4l17 10l4 43l6 5
l-6 4l-7 26v21l7 15v44l6 59v9l-6 4l-4 27l-3 4l7 8v13l14 18l-8 14l8 33v19l-4 4l-10 17v4l10 9l-10 22l-12 12l-4 -3v3h-35l-31 24l12 30h63l13 -10l16 10v2l5 6l23 -13h38l4 -17l14 -4l21 -28l-4 -8v-47l13 -44l-9 -19l3 -2l14 -32v-30l4 -35l13 -21v-22l9 -9l10 -17
l13 -18l17 28v-6l4 -4l18 22l4 22l9 8l-13 22l8 35h5v52l21 26h10v-35l-10 -12l4 -22l-8 -9l8 -9h-4l-8 -22v-4l-10 -9l6 -5l-9 -8l17 -18l-8 -8l4 -4l-10 -10l6 -2l-9 -10l9 -21l-6 -13l-8 -22l5 -5v-13h-5l-8 -31l4 -31v-7l12 -15l-3 -4v-2l25 -6l9 8h31l4 -2h4l5 12h9v52
l3 4l-9 18v34l9 26l-9 9l9 26l-3 21l9 10l-6 61l-3 4h9v55l7 10l-4 92l-18 30h-3l-5 -8h-4l-10 -49v-9l-2 5l-5 -21l-31 16h-8l-4 5l12 35h4l6 22v22l3 -4l4 4v8h5l14 16l42 6l35 -8l9 8h10l21 -22l21 9h4l6 -5v-9l-22 -3l-36 -18l-13 -26l-9 -40v-12l-7 -10l12 -7l9 -49
l8 -22v-13h-4l-9 -8l5 -35l4 -13v-39l10 -22l-6 -38l-4 -40v-31l4 -17l8 -14v-22l13 -6l31 2v-2l13 -6l15 -32h4zM240 47h9l-5 4v21l-12 22l4 6l4 25l-8 9v10l-6 30l-3 43l-31 39l18 8l4 31l-12 39l-4 5l7 35l-3 -4l-4 4v3l4 5h3l-3 4v18l-10 10v3l6 4l4 21l-4 6v8h-10
l-30 26h-10v-30l-12 -14v-64l4 -4v-19l-4 -39l4 -30l14 -14l-6 -4l-2 -24l21 -10v-9l-13 -12l8 -57l5 -22l3 4l14 -9v-17l8 -14l-8 -7l14 -15h12l16 6l10 -10zM332 47l9 9h-5l-8 -5zM165 381v-7h-7v7h7z" />
    <glyph glyph-name="N" unicode="N" 
d="M377 446v-4l-7 -2l-2 12h2zM389 356l9 -65h-5l-4 -19l-9 -7l-16 29l22 66zM568 551l4 4v9l-30 -60h-4l-10 -8v-10l-21 4h-27l-16 -8v-30l16 -27l-16 -17l-6 -22l9 -8l-13 -44l10 -66l-10 -9v-55h-8l-4 -4v-10l12 -9l-4 -3l8 -9v-40l-4 -3l13 -18v-17l6 -14l7 -38l-7 -9
l3 -4v-14l-18 -26h-8l-4 -4h-17l-31 13l-5 -5v5l-4 4h-9l-10 43v5l-28 4l-14 3l-4 28l-4 -5l-4 17v10l8 8l13 -4l21 18l-21 22l-17 -6l-4 -13h-14v19l-9 8v25l-3 5h-6v8l6 -4l3 4l19 6l12 -14l-4 -17l4 -5l18 14v16l-9 18l-5 4h-8l-4 18l-17 17l-15 8l-4 19l-8 25l4 5
l-14 23l6 3l-22 22l-22 -32l-9 19h-3l-6 3l-12 -30v-4l4 -4h-4v-17l9 -9v-23l-9 -8l9 -44l-5 -21v-8l8 -9l-3 -5l9 -8v-14l-6 -4l6 -4v-18l-9 -8l9 -44l50 -10h22l9 -3v3h13v-3h-4l-3 -4l3 -5v-52l-22 -14l-30 6h-92l5 4h-53l-25 -10l-25 14l-15 -4l-21 9v17l14 8v22l47 22
l-4 6h13l10 7v35l2 14v12l-2 4l-6 22l12 14v26l-6 8h2v44l-8 30l12 5l9 8l-15 35l2 47l4 5v-5l18 -7l9 7l-12 21l-6 -2l-3 21l-10 9l-2 52l-32 8v6l-18 2h-13v6l-25 13v9l-6 4l31 18l23 22v-6l2 -4l10 16h18l4 6v-6l56 -12l27 6h25l32 -19l2 4l28 -21l12 4v-18l4 -3v-9l-4 4
l-8 -8l-4 4l-13 -18l7 -22l6 5v-9l25 -24l6 -19h-6v-31l13 -22l6 -37l25 -37v-3l9 -5l-4 -30v-12l4 -6l-4 -10v-12l7 -4l9 -12h12l10 -10h13l15 -4l6 -8l15 8l-5 18l-4 22l-10 12l4 30l-4 4h-2l12 10l-10 9l4 31v42l-4 14v12l4 6l-4 4l-2 21l-10 12l4 44l-13 13h-33l-14 8
l-18 -2h-12l-10 21v25h4l6 6v7l-4 -2l-4 4l2 3l6 -5l12 15h34l12 6v-2h19l53 2h90l6 -2h13v-4l3 -6h9v-9zM238 356v30l-14 4l-9 -12h-17v-10l17 -12l9 12z" />
    <glyph glyph-name="O" unicode="O" 
d="M511 266v-30l-13 -10l-8 -18v-12l4 -4v-19l-14 -21l-3 -31l-23 -26l-2 5l-22 -52l-16 -14l-2 5l-4 -5v-8h-8l-7 -4v-10l-3 6l-9 -13l-4 3l-17 -22l4 -2l-30 -6l-10 -13h-8l-4 -4l-32 -5h-38l-30 9l-31 26h-18l-21 17l-10 10l6 4v8l-18 4l-10 9l-16 40l4 3l-26 28l-8 28
v14l-10 9l10 17l-10 23l-3 21l-6 31v13h6l3 65l14 56l26 53h4l6 12v13h6l10 9v12l12 19v12l28 21l3 7l13 -9l50 30l16 12l21 -4h15v-4l6 -9h19l17 -9h8v-7l28 -9l12 2l34 -24l10 -9l34 -25l13 -50l21 -30v-8l-3 -5l21 -13l4 -52l9 -12v-26l-9 -14zM400 217l14 21v19l-6 21
v31h4l-4 17l6 18l-12 10v37l-12 5l-22 48l-4 4l4 4l-18 13h-13l-9 9l6 4l-14 22h-14l-26 9l-2 -4h-22l-37 -9h-16l-34 -27v-21l-19 -8l4 -6l-8 -9l-14 -29l-3 -52l9 -70l4 -78l8 -31h4l27 -25l-5 -5l27 -35l23 -17l-7 -5l19 -16l18 -10l-6 -4h9l4 4l21 -9l10 5l5 4h4l13 -4
l30 16l10 19h4l-4 3l21 22v27l23 51v31z" />
    <glyph glyph-name="P" unicode="P" 
d="M550 431l7 -39l-13 -38l-12 -23v-13l-19 -16l-3 4l-10 -13h-8l-8 -21l-9 -10h-19l-16 -9l4 -3l-44 -10h-40l-28 -8h-27l-4 -4l-19 8l-16 -4l-5 -17v-15l13 -12l-13 -13v-3l5 -6h-5l-9 -16l6 -6l-6 -4l14 -17l4 -44l22 -21l34 4l10 -14l22 5l12 9l13 -9h9l6 -33l-10 -10
v-12l-12 -18l-18 2l-40 10l-29 -4l-9 -8l-71 2l-4 6l-3 -6l-18 -2l-10 8l-47 -6l-9 10l-10 -10l-24 6l-22 10h-9l-4 16h-9l4 12v15l22 12l-4 5h8l5 -5l3 5l15 8l25 -4l18 17l22 -9v-4h22l4 22v10h4l4 4v12h4v122l6 166l7 16l-4 22l-3 6v38l7 14v7l-17 9l-4 5l-8 -8l-9 8
l-9 -14l-22 6v3l-4 5l-9 -8l-31 3l-18 10l-12 21v9l27 16l-6 6l40 -6l4 -4l17 10h57l53 -6l24 -12l14 5l22 13l14 -6l16 -4l87 -12l19 -18l21 9l1 -1q1 -2 2 -3l4 -5l4 -4l10 -18l22 -9l-5 -3l15 -26l-6 -5l12 -13zM466 358l22 26v8h-4l-5 22v18l-9 8l-16 22l-6 14l-13 -9
l-3 4l-32 8l-8 13l-26 13l-34 -13l-14 22l-13 -9l-39 -3v-14l-5 -26v-22l5 -38v-74l14 -22l12 -4h74l17 4l17 -9l26 27h9l5 -6l23 13v6z" />
    <glyph glyph-name="Q" unicode="Q" 
d="M508 -20l13 -30l-8 -22v-26h-5l-3 -8l-44 -40l-49 4l-16 5l-6 5l-12 16l-4 -3l-10 9l-2 -6v6l-10 8l-5 -4l-13 21v9l-16 12h-15v4l-7 10h-49l-34 9v9l-23 4l-17 18h-13l-25 30v8l-23 21v15l-17 13l-4 16l-12 15v12l3 4l-12 18v12l2 4l-8 9l6 13l-10 8l4 28l-13 16l5 88
l8 40l22 42l-4 17v6l9 8l-5 4v9h5l13 17l4 9h4l4 12l34 36l32 8l-4 6l12 2h10l13 28l34 4l6 4l71 -4l19 -18l-3 -4l38 -18l18 -16l25 -14l9 -14l18 -34l13 -10l13 -15v-49l18 -30l6 -39l-2 -48l9 -8l-9 -31v-32l-10 -8v-34l-12 -36l-9 -8v-4l5 -5h-5l-13 -47v-13h-18
l-26 -34l-4 3l-8 -9l4 -21l18 -13l12 3h4l6 18v13l52 9zM421 211l13 17h-4l-3 23l-6 12l9 19l-9 21l-3 4l9 55l-23 23h-8l-22 13v30l-12 12h-10l-5 28h-4l-3 12l-16 10l-16 -10l-12 14v4h-10l-4 -4h-17l-31 4l-18 -21l-7 -18h-5l-22 -22v-12l6 -6l-32 -29v-22l-8 -18h-4
l4 -4v-5l-13 -17l-6 -35l15 -13v-13l-6 -4h-3l-6 -31l15 -30l-15 -22l15 -26l12 -26h26l8 -10l32 6l16 16l6 10l21 8l9 -8h12l10 4l7 -14l19 -7v-5l18 -10v-4l34 -17l16 21v28l10 8zM286 33l14 16l-9 9h-5l-12 -12v-18h12v5z" />
    <glyph glyph-name="R" unicode="R" 
d="M536 37v-9l-8 -8h-18l-3 -4v-10h-28l-12 10l-13 -10l-52 14v8l-22 30v31l-4 4v40l4 65l-10 9l6 4l-6 5h-8l6 4l-6 3h-13v15l-25 16h-10l4 5l-29 13l-5 4l-4 -4l-18 -4l-9 8l-35 -4l-8 10l-16 -10l-10 -9v-12l-4 -65v-36l4 -4l4 -53l6 -4l2 -25l10 -10l26 4v-9l48 -3l9 -9
v-21l-17 -17l-23 13h-21l-10 -10v-3l-24 13l-19 -6l-35 -4h-87l-12 4l-9 10l4 4l-8 8l8 14l5 4l31 8l38 14h18l12 21v21l4 4l-4 6l4 82l6 5l-13 9v22l-6 4l9 17v35l-3 4l-6 62l-8 8l5 30l9 14l-6 21l-21 17l-4 6v16l13 8l-13 14l-6 -4h-28l-31 13h-5l-4 -5l-18 30l8 36l54 8
h24l6 -4h8l5 4l44 4l3 4l62 -4v-4h30l14 4h8l16 -17h9l9 13l31 -8l35 -5l18 -9h22l14 -14l4 4l4 -4l-6 -2l34 -50v-7l6 -5l12 -70l-9 -21l7 -13h-7l-12 -30l-19 -10l6 -4h-12l-6 -14l-34 -26l-4 5l-15 -17v-13l9 -8v-13l6 -6l8 -12l4 3l4 -25l9 -25l-3 -27l3 -4l4 -9l-7 -9
l3 -54l19 -12l16 -4l9 -8l3 3l18 9l-2 6h14l7 -6l3 6l18 -18l4 3zM406 456l8 7l-12 14l-4 -5h-6l-16 12v10h-14l-22 18l-12 -18l-44 4l-16 -8l-15 13l-7 -9l-18 -10h-13l-5 -4l-4 -142l34 8l9 -8l9 -14l16 -8v-6l10 10l28 12h24l9 14l31 4l16 12l6 28l12 3v26l-4 6v31z" />
    <glyph glyph-name="S" unicode="S" 
d="M478 152l12 -17l-2 5l-19 -54v-8h-3l-10 -26v-4l-8 -9l2 -5l-21 -8l-17 -21l-16 -9l-14 4h-12l-6 -4l-50 -5l-22 -13l-14 8l-14 14l-38 -4l-28 22l-14 8l-28 -18v-8h-48l-8 8l-13 26l9 30l-6 22v9h6l8 26l-8 52v40l8 13l30 -4v-5l31 -17v-21l12 -39h9v-10l31 -26h9l4 -18
l48 -16l4 4l10 -10h16l6 6v8l42 5l16 25l19 10v8l17 16l-4 6l13 22l-9 16l18 19v3l-4 5h4l3 4l-7 13l4 6l-18 16v5l-12 3l-54 22h-16l-12 9l-6 -3h-53l-29 16l-14 -4h-16l-6 4l-13 27l-21 4l-26 31l-5 4h-7l3 5l-13 21v16l-12 19v31l-9 7l13 9v12h8l10 10l-6 5l9 7v16l4 -7
l19 13v15l21 12l12 -5l21 14l7 -5l25 17l4 -4l18 14l26 -10l8 -4l9 -8l44 -5l25 -13h15l3 -12l26 -22h4l5 31l5 21h26l12 -9l6 -31h-6l-16 -30l12 -22l-6 -16l10 -10l-4 -48l-12 -13h-9l-13 31l-5 -4v13l-13 13l-4 21l-4 -3l-5 22l-9 4l-12 8h-6l-4 -6v6l-9 4l-12 9l-4 -4
l-27 25l-22 -2v2l-16 4h-15l-17 -6l-4 -7l8 -9l-30 -12l-28 5v4l-10 9h-6v-13l6 -5l-9 -10v-12l-9 -9l-4 -21l13 -23l-9 -7l5 -27l16 -16l31 -15l4 6l18 -12v-7l4 -3h4l4 3l19 9l3 -2l10 6l77 -29l40 4l17 -13l21 -40h9v-4l18 -4l13 -30l-3 -6l16 -16l6 -17h-6v-44l6 -5h-6z
" />
    <glyph glyph-name="T" unicode="T" 
d="M358 433v-21l-9 4l-9 21zM502 376h5l-9 -16l4 -19l-16 -34l-40 3l-10 71l6 4l-6 5l-9 35v12l5 31l-12 9l-10 21l-8 8l-13 -3h-6l-7 9l-14 -35l-8 -9l-9 12v23l9 9l-5 12l-13 -4l-12 -26l-6 -35v-22l10 -12l-10 -9v-48l6 -6l-10 -8l4 -34v-10h-4l-2 -3l2 -4l4 -40l-13 -9
v-12l-3 -4l3 -6l7 -9l-10 -7l3 -30l7 -22h-7v-62l28 -16l3 3l34 -19l19 19l21 -12l22 -7l4 7l18 -9l9 -10l4 -34l-21 -4l-10 -8l-4 4l-9 -10l-40 6l-134 12l-9 -8h-12l-13 -10v6l-21 12l-28 -4l-16 -8l-27 4l-17 21l4 21l9 22l39 9l13 -12l23 3h8l4 6l18 3l16 -12h9l9 9v24
l4 40l10 8l-10 18l6 22l-10 9l-5 25l9 10v74l-9 16l5 6l-9 16l4 14l19 25v13l-4 6l-6 13h-4v81l-9 14l-39 4v4h-14l-25 -13l-5 -21l14 -14l-5 -17h-17l-14 -7l-4 -58l-3 -5l13 -21l-6 -26l-13 -14l6 -4l-27 -21l-31 13l-17 30v18l17 22l-3 29l-4 14l12 17l-5 18v12h5v70
l-8 9l43 34l25 5v-5h36l4 5l10 -8l12 12l12 -4l44 -5l6 -3l4 3l8 -3h13l9 8l31 -5l29 -3l21 -4l15 12h8v-5l52 -7l21 -14l7 -26l2 -4l4 4v-18l15 -4l-15 -26l6 -4v-54l-10 -7l14 -40l-4 -12z" />
    <glyph glyph-name="U" unicode="U" 
d="M547 546v-31l-47 -9l-14 9l-23 -9l-13 -12l10 -78l3 -48h-3l-12 -22l8 -30v-57l7 -8h-3l-4 -63l-6 -38l13 -17v-13h-3l-4 -18h-6l-8 -9v-13l-8 -10l-14 -42l-16 -12l-6 4l-7 -18l-6 4l-3 -4l-14 -12l-26 -6l-14 -16h-12v4l-12 12l-22 -8l-22 8h-26l-23 9v6l-25 3l-18 10
l-16 42v4l-28 31l-12 35v96l18 18l-22 44l13 25l-9 61h9v25l-9 23l4 3l-4 6v15l4 6l-4 4l4 6l-8 16v31l-15 21l-16 -12l-13 8l-30 4l4 4l-4 6l-6 25h6l12 13l4 -4h14l8 8v-4l18 -8l26 8l5 -4h3l9 8l25 -8l6 4l-6 4l22 -8l10 8l34 -4l27 -13v-39l-5 -5l-48 -9v6h-21l-13 -22
l4 -27l9 -7l-4 -16l-17 -21l2 -3l-6 -10l16 -16l-10 -44v-36l-6 -16l4 -5l8 -21l-6 -30h-2v-31l8 -9l-6 -4l10 -8l-10 -10l10 -26l12 4l-3 -4l3 -4h10v-13l6 -4l-10 -9l4 -12v-10l27 -12l25 -6v-3l9 -9l65 2l26 7l26 31l-8 6l8 10h17l19 22l-6 4l-4 8l10 9l-6 6l-4 38l-9 9
v31l6 -7l7 32v22l10 9l-10 13v18l-4 12l4 4l-4 6l-3 30h3l4 3l-13 23l6 17l-4 -3l-3 3l1 4l6 -4l13 23l-6 21l-7 7l-6 14l-17 14h-35l-29 3l-9 19l3 2v10h6l12 22h26l9 8h9l8 -8l23 4l13 4h8v-4l26 -17l12 9h32l8 8h13l9 -4l16 -4zM372 198l5 -4l-23 -8l-3 25l21 -9v-4z" />
    <glyph glyph-name="V" unicode="V" 
d="M532 592l17 -36l-3 -26l-4 -2l-50 -10l-8 10h-8l-14 -19h-12l-17 -25l3 -15l-17 -17v-18l-5 -3l-2 -27l-10 -17v-5l4 -4l-10 -8l-3 -32l-18 -43l5 -4v-13l-18 -21l6 -5l-10 -8v-8l4 -6l-8 -8v-30l-17 -31v-9l9 -10l-9 -7l4 -5v-26h-9l-8 -9v-43h-6l-2 -22l-36 -25l-8 -9
h-13l-44 52l8 8l-4 14l9 8l-9 8l-9 66l-10 13l7 14l3 3l-12 14v4l2 5l-12 12v27l-9 16l5 6v4l-5 4l-7 17l3 4l-12 27v60l-19 40v12l-2 31l-19 19v4l-3 2h3l5 6v9l-3 -3l-4 3l2 4l5 -4v25l-26 10l-48 -12l-9 2l-9 10l-3 -6l-19 22v22l-4 4l14 10v7l9 9l16 6l101 -6h90l19 -16
l3 -52l-22 -10l-40 4h-12l-4 -4l10 -12v-40l-6 -4l6 -5l16 -38v-35l9 -5h13l6 -13l6 -3l-6 -9v-35l2 -74l19 -40l3 -17l26 5l14 21l7 44l-7 39l16 7v40l6 -2h4l9 28l12 18l9 10l-4 2v50h4l4 3v13h6l4 6v4l-10 2l-4 31l-4 13h-26l-10 8l-2 -2l-19 25v13l12 21l23 6h36l78 -6
l4 6h34z" />
    <glyph glyph-name="W" unicode="W" 
d="M350 542h10l-6 -27h-32l-2 -3h-14v3l-9 9l4 12v6l-4 4h-13l22 13v-4l26 -5h12v-4zM276 515l8 -9l-4 -43l-14 -13l-12 18l9 22l-6 13v9l9 3l14 13l-4 -2l-4 10h4l8 -16h-4zM320 440l8 -7h-18zM524 546l4 4l-4 -16v-14h-6l-7 -8l-15 12h-2l-4 -4l-6 -40l-9 -34l5 -34v-22
l-9 -30l4 -6l-7 -8l3 -14h-3l-9 -22v-38l-9 -9l-10 -69l-3 -61h-6l-7 -19l4 -4v-12h-4l-5 -5l5 -4l-10 -21l5 -26h-5l-12 -36h-4l-5 -4v-9h-9l-3 -3l-15 -6v-4h-6v4h2l4 6l-12 9h-17l-9 21l-8 8l-4 40v65h4l2 3v14l-2 4l-4 53l-22 25l12 36v14l-9 7l-8 31l5 4v4l-10 10h-4
l-8 -10v-12l-15 -18v-16l6 -28h-6l-3 -31l-10 -56l6 -13v-8l-8 -10l2 -3l6 -31l7 -22h-3l-4 6l-8 -37l2 -25l-12 -4l-22 -18l-47 4l-21 31l4 105l-19 25l5 19v8l-5 4l-13 34l9 10l-3 12v14l-6 4l-8 12l4 40v30l4 18l-8 18l8 8l-4 4h-8l4 35l4 3l-21 28v12l-5 4l5 31v5l-5 4
l-8 -9l-27 5h-12l3 4l-22 18v4l27 18l31 -5l8 -9l8 14l6 -5h12l-4 -4h26l4 4v5l31 -22v-8l4 -6l5 6l-13 -6l-43 6l-6 -6l6 -4l-6 -4v-14l18 -22l-5 -16l-4 -22l4 -6l15 -12l-6 -3l10 -9v-62l12 -8v-14l9 -4v-39l9 -17l10 -9l16 19l-4 2l9 10v22l7 8v8l-7 9l12 21l13 6l12 30
l-2 4l2 4l10 6v-27l-4 -13v-4l22 -14l22 6l16 8l12 38l44 -74v-56l10 -4l-4 -13v-17l4 -4h5l7 6v19l10 13l-5 13v9l-5 5l14 4l12 13l-4 21v27l14 8v43l7 9l-12 35l18 21l17 6l8 16l-16 18h-22v18h4v-6l3 -2l6 2l53 6l4 8l12 14l5 -5h13l-6 -4v-5zM176 244l3 7l-3 17v-24z
M171 238h8v4h-8v-4z" />
    <glyph glyph-name="X" unicode="X" 
d="M284 570l4 -30l-16 -22l-34 12l-19 -2l31 -76l-6 -27l-6 -7l-19 4l-21 26l-14 30l-8 10l3 2l-21 10v12l-16 9l-53 -9l-31 9l-13 31l13 9v9l22 12l22 5l8 -9h100l30 -4zM563 48l7 -9l-7 -39l-27 -9h-34l-4 -5l-8 10l-22 -5h-32l-8 14l-35 -5l-25 -9h-10l-9 9l-3 -4l-18 4
l-4 18l-8 8l2 30l19 8l25 -2l10 21l-4 3h-6v14l10 8l-10 18l-8 9l4 5l-4 2h-5l-12 10l-5 53l-22 39l-8 8h-8l-10 -14v-30l-25 -12l-9 -14l-6 -3l6 -6l-6 -31l-6 -12l-10 -9l4 -3v-10l-4 6l-5 -22l-13 -18l18 -10l22 -2l22 -6l4 -4h8l10 -34h-6l-8 -18l-73 -4l-23 -10l-5 5
h-7v5h-118l-12 12l-6 -3l-16 17l-6 21h6l4 19l12 8l6 -6l7 10h31l52 4l18 22l8 35l36 17v21l6 23h16l12 21l-5 5h5l4 16l22 22l-4 6l16 12l10 26l-4 5l12 13l-12 22l-32 16l4 44h22l31 -38l27 9l8 16v27l14 22l-5 4l21 25l10 15l-4 21l-22 16l-9 9h-19l-2 19l-6 -7v14l27 18
h44l15 4v4l40 -4h26l6 4v-4l52 -4l16 -9l13 -23l-3 -12l-22 -9h-53l-3 -3l-32 -9l4 -4l-12 -15l-16 -42l-19 -17l-4 -13l-21 -36l4 -4l-18 -12l-13 -40v-10h-4l-5 -2v-14l9 -9l13 -47l14 -31h4l3 -17h18l-4 -4l25 -19l19 -65v-13l13 -9l8 -8l5 5v-9l21 -18l22 6l22 2h22
l8 -12z" />
    <glyph glyph-name="Y" unicode="Y" 
d="M538 574v-25l-18 -7l-30 -8l-21 -22h-9l-12 -12l2 -12v-14h-17l-7 -12l-9 -10v-18l-9 -9l12 -15l-16 -10l-8 -9v-9l-19 5l-5 -5v-7h-4l-4 -31l-8 -28v-16l-5 -5v-7l-5 3l-16 -21v-26h-6l-8 -22l8 -49v-38l6 -5l12 -26l14 -4l8 -8h62l16 -14h8l-2 -4l12 -31l-6 -13v-8h-6
l-6 -10l-78 -7h-22l-3 3l-6 -3l-47 -5l-12 -4v4l-6 5l-9 -9l-13 9h-4l-4 -5v5l-4 3l-4 -3v-5h-15v5l-25 3h-46l-7 -3l-12 13l-19 25l19 35l12 14h78l23 3l4 57l10 21l7 9l-13 26l6 30l7 22l-13 40l-4 4l-4 18l-23 13h-7l4 3l-9 16v12l-9 9l4 3l-4 4l4 5l-4 4l-4 19l-13 8
l-19 38l-30 44l-43 12l-7 9l-40 9l3 4l-17 18l4 22v8l66 10l64 4l19 12l53 -16l12 -5l4 -13v-9l18 -13l4 4l18 -22v-4l-8 -9h-32l-25 -25v-34l13 -14l12 -30l18 -14l26 -13l34 34h9l13 19v4l-4 4l9 10l-5 12l10 10l-5 4l17 24v9l-22 19l-26 2l-12 23l4 13v4l12 14l180 3v-3
l9 -4z" />
    <glyph glyph-name="Z" unicode="Z" 
d="M472 228l8 -8l-3 -62l-14 -25l-7 -19l7 -46l-4 -10l-3 -34l-31 -12l-23 4l-9 8l-8 -8l-4 4l-19 -14l6 -4h-22v4l-8 10l-14 -10l-26 6l-4 -6v-7l-12 -6v6l-31 17l-40 -10l-25 14l-62 -4l-4 -4l-10 -6l-24 22l7 30h5l10 19l34 43l4 13l4 -4l17 21l5 36h8l14 37h8l9 21l9 10
l-4 5l12 13l4 22l6 9h6l19 21v14l13 8l6 26l28 18l6 43l38 39v26l-8 14h-40l-12 -14l-22 5h-9l-9 12l-3 -3v3l-31 9l-18 -30h-14l-8 -14l8 -24h-8l-4 -10l-12 -13l3 -40l-13 -8v-9l-21 -8l-19 17v21l-6 19l2 15l10 23v57l4 22v8h5l7 18l6 -4l16 16h18l10 10l21 -4v-6h16
l31 10l14 8l16 -5l19 -3l47 -4h18l4 4l13 -10l21 10h13l31 -18h13l14 -22l-5 -16h5v-14h-5l-16 -17v-9l-19 -17l9 -9l-9 -9l3 -3l-21 -16l-17 -38l-9 -9v-3l5 -5l-22 -13l-16 4l-19 -26l5 -4h-5l-9 -36l6 -3h-6l-4 -4l4 -5l-38 -26l-5 -30l-30 -4l-5 -10l-10 -12v-22h-6
l-6 -14l-21 -13l-39 -43l-5 -22l-13 -22v-10l-8 -6l18 -15l12 15v13l4 3l14 -10h4l4 7v-9l14 -4h35l17 6l14 10l12 -3v-9l22 -10h16l6 6l38 6l5 7l31 31l7 16v26l9 26l-3 18l-6 13v13l21 22h6l4 -4l9 6l18 -2v-10z" />
    <glyph glyph-name="bracketleft" unicode="[" 
d="M390 721l20 -46l-23 -57l-63 -4v2l-64 -27l10 -15l-36 -59l2 -71l8 -19l-6 -49l-4 -14v-17l10 -50l-10 -53l12 -32l-16 -29l-2 -52l8 -37l-16 -32l16 -38l-6 -22l-2 -44l32 -24l92 6l50 -42l-6 -25v-31l-45 -15l-52 5l-36 12l-14 8l-39 -13l-46 7l-12 16l-12 24l8 128
l6 22l-6 47l-10 44l12 21l-4 74l14 75l10 17l-12 28l-10 102l6 16l4 34l-6 25v17l10 21l-14 48l14 36l-18 23l16 44l38 2l54 13h48l14 -4l38 4h38z" />
    <glyph glyph-name="backslash" unicode="\" 
d="M514 -124l10 -34l-15 -5l-25 17l-26 58l-31 16l-9 19l4 3l-12 18l4 4l-14 12h-4l-3 18v10l-18 25h-9l-12 27l-5 25l-5 19l-26 12l-4 13h-5l-9 40l-16 21l-52 109l-36 21l-14 52l-21 28l-13 42l-25 31l-13 29l-36 49v21l-50 76l-6 -6v12l6 15l-10 7l4 22l18 6l16 -12
l22 -7l14 -12l22 -47l34 -54l31 -94l13 -5l17 -31l-5 -21l70 -101l18 -52l-4 -4l47 -48l23 -53l24 -38l-3 -5l39 -75l22 -12l8 -31l-4 -22l12 -12h6l13 -32l-9 -12l9 -13l3 4l18 -4v-13z" />
    <glyph glyph-name="bracketright" unicode="]" 
d="M412 463l12 -42l-14 -21l4 -76l-12 -73l-11 -17l13 -28l6 -115l-4 -4l8 -37l-6 -28l-4 -4l6 -8v-32l4 -36l-8 -14l2 -13l4 -10l5 -21l-15 -46l-40 -1l-53 -12l-48 -1l-13 4l-39 -3l-37 -1l-20 46l23 56l63 4l63 26l-9 16l43 61l-1 7l-18 30l16 32l-10 21l8 49l4 12l-1 18
l-9 51l10 52l-12 33l15 28l3 53l-8 37l15 32l-14 38l4 21l-3 42l-22 13l22 22v-2l-69 4l-27 -6l-28 -13l-49 42l5 25v30l45 16l50 -4l37 -12l14 -8l40 12l48 -6l8 -17l15 -23l-11 -128l-6 -24z" />
    <glyph glyph-name="asciicircum" unicode="^" 
d="M398 698l48 -36l-4 -56l-30 -12l-22 3l-49 40l-17 25l-42 31l-28 5l-16 26l-44 -12l-4 -6l-23 14l-3 -48l-18 -39l-32 -31l-25 10l-12 37l59 87l16 6l21 25l69 57l30 -10l4 6l44 -13l34 -36l22 -44l22 -15v-14z" />
    <glyph glyph-name="underscore" unicode="_" 
d="M618 -108h10l-10 -63l-18 -23l-22 -9h-12l-9 -8h-4l-5 5l-4 -5l-69 15l-58 -7l-9 9l-17 -9l-44 7l-14 -15l-107 5l-44 10l-13 -10l-13 3l-159 9l-37 14l-16 17l9 55l39 27h40l15 4l6 5l17 -5l82 -9l4 -3h8l5 3l23 5h206l81 -8l13 8l74 -5l18 -3l8 -9l5 3l9 -9l10 9l2 -3
l-4 -4z" />
    <glyph glyph-name="grave" unicode="`" 
d="M364 530l16 -9l-6 -35v-4l-26 -8l-64 38l2 5l-12 7l4 6l-8 16l-17 15l-4 -6l-49 21l-12 28l-32 29l13 37l15 7l65 -13l25 -17l4 -5l-8 -9l26 -25v-32l22 -2z" />
    <glyph glyph-name="a" unicode="a" 
d="M524 120l8 -10l-8 -64l-6 -4v-14l-22 -22v-7l-59 -9l-13 9l-5 -6l-35 23l-12 21l-10 -9l-30 -4l-22 -18h-26l-8 -7h-36l-4 3l-4 -3l-22 -9l-10 9l-2 -6v6h-22l-6 -6l-12 13l-38 -4l-40 40h-10v7l-12 9l4 12l-8 16l-9 24l13 23l-9 17l5 26l22 10l26 37l8 9h17l19 6v6
l-36 10v9l-4 5l-17 35v21l-6 17v21l15 19l-6 4l10 8l-4 13h8l4 6l10 7h7l5 -3l35 24l9 -7l3 4l35 9l40 -6l3 -3l6 3l55 6v-6l44 -3l19 -9l-6 -3l18 -6h9l17 -26l5 -3h-5l-5 -5l17 -17l6 -27v-174l3 -21h-3l-6 -4l9 -18l6 -4h6v-6l10 -6l28 12l21 4h13v-4zM350 316l16 -9v25
l-12 18h-17l-15 10v8l-50 4l-9 9h-44l-9 -9l-18 4l-8 -16l8 -19l-4 -3l19 -35l-31 -27l-28 -4l6 -13l65 -5l9 18h4l4 -4v-5l4 5l32 8l8 18h14l34 -5l9 18zM350 142l8 12h-14l-16 13l4 6l9 21l3 -6v10l-12 4v-4l-56 -12h-26v2h-14l-4 -2h-40l-8 -10l-5 4v-7l-3 -6l-6 6h-12
l-4 -6h-8l-4 -13l6 -8l-6 -17l4 -31l12 -12h12l9 -9h9v3l4 6h36l44 -6l16 18h18l26 26l-4 5l13 13h9z" />
    <glyph glyph-name="b" unicode="b" 
d="M475 247v-19l-9 -30v-44l-10 -6l5 -15l-21 -39v-8l-61 -66l-27 -18h-13l-8 -7h-9l-4 -5v5h-36l-2 -5l-10 9h-12l-44 31l-9 9l-53 -32h-18l-12 32l9 21l-4 22v12l7 10l-3 38l-4 6l7 12l-7 21l-5 5v73l9 9l-4 23h4v12l-4 4h4l3 15l-7 16v70l-5 22l-4 56l-6 4l-12 13l-47 5
l-23 12l-8 14l-4 21l35 40l22 -5l96 -4l29 -35l-8 -34l8 -58l-8 -7l-4 -50h-4l-6 -2l10 -10v-4l-4 -5l12 -9h9l16 21l7 -3l8 22l38 13l12 8l50 -8l34 5l4 3v4l18 -7l12 -22v-18l6 -4l7 -14l6 6l9 -10l-6 -4l18 -8v-13l17 -27v-44l9 -13l5 -3l-5 -5zM396 176l6 14l-10 26
l-4 4l-9 22l9 17l-14 23v34l-22 8l-13 22l-17 14l-8 -14h-40v10h-13l-9 -10v-3l-16 -19l-15 -33h-3l-22 -32l-4 -17h-4l8 -8l-4 -6h-4l8 -8l-4 -4l-8 -18l4 -12v-36l30 -42l12 -4l31 -32l21 -4l14 -8l22 8l30 14v7l4 5h6l4 16l26 32l4 12z" />
    <glyph glyph-name="c" unicode="c" 
d="M475 98l9 -9l-18 -21l-12 -8l2 -6l-24 -30l-9 -8h-13l-8 -14h-4l-6 5l-13 -12h-17l-8 -15h-18l-14 -6l-17 2l-23 -12l-12 10l-2 -6l-10 8h-30l-88 54l-13 12l-31 56l-3 -4l-13 14l4 2v10l-4 6l-5 50l-5 31v5l10 8v27l4 25l34 56l13 10l-4 5h4l9 17l22 12l5 14l5 6l-5 4
l4 4l3 -7h6l4 7l48 12l4 -4l13 8l27 9l4 -4l2 9v-5l10 -4l40 -5h13l9 -8l16 4l32 -31h4l4 5l22 -18v-8l3 -4h9l-4 -6l23 -22v-12l9 -9l-9 -13l3 -3h6l-16 -40v-4l7 -5h-9l-31 -26l-31 4l-13 8l-9 -8l-12 6l-4 12v4l-6 5v25l31 35l-3 9l-28 18l-3 12l-40 14l-29 4l-27 -18
l-21 -8h-14l-18 -16l-29 -31v-7l-15 -12l6 -4v-12h-6v-14l15 -61l4 -5h-4v-28l21 -40h17l23 -31l21 -9l31 -17l30 3l31 18h4l3 -4l10 26h8l32 32l-6 3l52 19l35 -10v-28z" />
    <glyph glyph-name="d" unicode="d" 
d="M526 42l6 -30l-36 -26h-26l-9 -10l-17 4l-4 6h-14l-3 -6h-31l-13 15l-5 -5v-4l-22 9l-13 17l-17 -17h-17l-23 -31l-21 4h-5l-7 8l-9 -8h-31l3 6l-7 6h-36l-13 22l-8 10l-4 -5l-26 26v6l4 3l-22 35l-18 21l5 22l-5 6l-12 28l5 6l-5 4l5 64l3 23l4 12l9 9l-4 6l9 6v23l8 9
v6l-4 2h4l8 22l10 14l4 -4l43 37l19 9h21l21 14l40 -8h16v-6l19 -2h13v-14l8 -8l26 3l10 12v9l2 -2l6 2v6l-8 8v14l-14 16l14 22l-14 22l-12 8h-14l-4 -2l-57 2l-27 32l18 44l4 -6l9 14l31 -8h30l5 -6h8l9 8l35 -2l21 -10l10 -22l3 -69v-43l-9 -14l9 -60l-3 -32v-8l3 -4v-61
l-3 -4v-5l9 -8l-6 -44l9 -9v-27l4 -68l14 -14h26l9 -12h25l13 -9zM348 164l4 30l-16 32l3 58l-8 19l-26 4l-23 27l-17 4l-47 5l-22 -15l-12 -25h-10l-9 -21l-13 -14l-8 -17l4 -35l4 -56l13 -34h13l18 -16v-6l25 -40l-3 -4h31l3 8h4l9 18l13 3l8 15l19 4l31 30v10l7 16h5z
" />
    <glyph glyph-name="e" unicode="e" 
d="M461 272l9 -13l-4 -5v-12h-5l-5 -19v-3l5 -4l-5 -22h-33v4l-9 4h-12l-32 -22l-31 22l-43 -14l-12 -15h-10v13l-13 8l-56 -6l-27 -8l-16 8l-12 -12l12 -22l-10 -8l13 -17l-3 -5l16 -31l27 -13v-3l44 -19l12 -12h25v-4l6 -5l22 12h34l14 9l12 28l22 12l27 26l17 5l16 -21
l-2 -22l-19 -22l-9 -18l-24 -18l-14 -16l-52 -10l-14 -12h-21l-9 -10l-12 4l-15 9l-60 6l-31 21v8l-3 5h-9v9l-12 7l-6 5l-4 23l-22 16l-12 21l-6 32l-4 48l-17 26v18l12 4l9 17v35h6l16 34v10l28 22l34 16v14l21 12l4 -4l12 14l9 -10l10 14l61 -4l61 -10l8 -9h13v-8l5 -4
h14l8 -21l25 -22v-14l19 -35l12 -13zM345 244l3 72l-22 30l-4 14l-4 -10h-4l-6 4v6l-24 -6l-10 -8l-4 4v4h-9l-3 6v2h-18l-12 -12l2 -18l-9 -8l-3 -26q0 -5 -13 -22l-13 -8l-4 -5l8 -21l9 -4v-6h13l22 -4l21 12l11 4l8 -2l12 -14l9 10h7l10 13l4 -7h23z" />
    <glyph glyph-name="f" unicode="f" 
d="M464 551l56 -48l-7 -47l-6 -4l-15 -15l-40 5l-4 4v27l12 35v12l-6 4l-6 18l-19 -4h-17l-8 8l-6 -4l-2 13l12 5l21 16l23 -21zM448 51v-49l-40 -22l-22 15h-4l-10 -9l5 -6h-38l-21 -4v4l-10 10l-66 -10l-8 -6l-4 2h-9v4l-9 10l-4 -4l-48 -10l-16 -2l-7 -6l-8 8h-8l-5 -2v2
l-10 10l-24 4l-4 5l-10 21l4 14l10 9l-4 3v4l51 22h15l2 9l40 -23l14 6h12l12 22l6 38l4 84l4 3l-4 5v44l8 7l-12 44l4 31l-31 22h-26l-9 -10h-39l-17 10l-6 -4l-21 16l-3 9v12l12 15l22 -6l21 -2h13l22 8h31l18 -15h3l14 15v13l4 4l-8 27l8 21v4l-4 3l14 16v7l22 21v18h4
l12 13h18l16 5l-4 4l22 12l14 -8h8v-8l13 -9h5l-10 -13h-21l-9 -8l-3 4l-15 -14l-25 -12l-19 -12v-10h-2l-10 -53l6 -3l21 -22v-8l17 -10l27 3l21 15l17 -6l19 -2h12v-10l9 -9v-17l-49 -4l-4 -4v4h-40l-12 4h-13l-19 -18l10 -104l-4 -22l4 -4l9 -22l-9 -56l5 -5v-17l4 -48
l25 4l6 5h12l9 -13l9 8h48l4 5l26 -17z" />
    <glyph glyph-name="g" unicode="g" 
d="M513 -20l5 -28l-9 -10v-12h-3l-10 -9l-8 -44l-4 4l-15 -16l-3 3h-14l-4 -10h-4l-9 -8l-9 6h-12l-4 -6l-35 -25l-15 9l-16 -6l4 -3l-13 -4l-9 -9l-60 13l-22 -9h-18l-17 18l-39 3l4 5l-26 4l-8 10l-4 -6l-28 18l-2 -3l-14 3l-5 13l-21 13v4l4 4l-4 6l-10 26l-7 12l3 30v10
l10 9v21l13 26l-5 4v5l8 9l-3 22l-9 22l4 4v8l-4 4v34l26 40h35l13 10v22l-13 12l3 4l-3 5v60l-5 5l36 52h3l31 29h8l5 7l-5 -4l-2 6l7 -2l12 21l31 12l9 -8l25 5h13l23 -18h14l3 4l13 -14l6 6l4 -15l21 -15l12 3l9 21l10 10h12l4 4l22 9l30 -4l10 -21l18 -14l3 -14v-38
l-3 -6v-6h-10l-4 -6l-26 -13l-22 21l4 4l-13 32h-9v4h-16l-10 -21v-5l-2 -4l6 -10l10 -40v-21l-4 -4l4 -3l-10 -22l6 -6l-19 -8l-9 -13l-7 -21l-36 -17l5 -5l-30 -16l-48 -6l-43 8l-23 23h-4l-10 -9h-21l-7 -10l-36 -34l14 -12l4 2l18 -6l3 -15h39l26 19h18l4 2v-2l40 -4h13
l13 12h4l8 -8l6 2l7 -6l5 4l26 -22h5l4 8h56l40 -26h9l12 -29l10 -37v-16zM360 228l10 19l-4 12l-6 40l10 17l-10 8l6 4l-12 15l-10 3l-49 32l-15 -10l-32 13l-22 -3l-21 -14l-9 -26l-4 -31l8 -39l9 -9v-12l-4 -5l-5 -26l9 -9l5 -3v-6h16l6 6l4 -6h64zM422 -54l13 30l-13 26
l-3 -3h-15l-22 17v4h-12l-22 4l-13 -12h-13l-12 21l-58 -9v-8l-4 -4h-18l-7 18h-9l-14 -10l-39 -4l-3 -14l-18 -7l-4 -21l16 -6v-4h9l4 -5l-7 -17l3 -6v-2h4l14 -10l30 -3l5 -13l34 4l9 -14l17 4h30l10 10l21 3l13 -7l12 7l6 6l4 -6h12l28 19v2l12 6v4zM310 -10v-4h-9l3 4h6
z" />
    <glyph glyph-name="h" unicode="h" 
d="M548 54l9 -24l-4 -18l-15 -36l-42 4h-48l-18 6h-16l-18 -10v4h-32l-21 -12l-21 18l-4 -6v10l-13 12v10l-13 12l-18 -17l-4 -12l-9 -9l-21 4l-22 -16l-9 2h-21l-10 -8l-22 6l-12 12l-18 -12h-14v2l-2 4l-6 -4l-4 4h-4l-5 -6l-44 6l-15 10l-10 9v13l10 8v31l47 3v-3h31
l8 13l-6 22v12l6 6l-8 6l8 16v16l4 6l-4 2l-8 14l2 48l6 4l-8 10l2 30l6 3l-8 13l-6 22l8 18l6 38l4 6l-10 8l6 48l-8 9l12 56l-4 19l-31 7h-17l-4 -5l-10 5l-17 5l-23 22l16 30l-6 4l30 18l48 -14l22 -4h14l4 4h22l18 -22l-10 -48l-5 -2l15 -28l-6 -26l-9 -9l9 -43h-4
l-5 -18v-29l9 -15l22 6l18 26l12 4h4l18 26l32 22h15l6 4l13 5v4l21 8v-3l23 -14l42 -4l19 -12v-22l12 -10l9 -4l4 -21v-9l4 -6l4 -16l5 -86h5v-10h-5l-5 -22v-65l10 -65l22 -4h56zM386 198l10 9l-4 44l-9 8v53l-9 16h-10l-2 6v9l-4 -5h-15l-12 8l-32 4l-29 -26l4 -2l-4 -6
l-26 -9l-4 -25l-40 -31l-16 -35h-6v-12l-4 -6l-5 -44l9 -12v-22h-4l4 -16l6 -6v-30l21 -14l13 10l26 -10l8 10l13 -10l9 -21l25 6l32 25h31l2 4l6 -4l13 -4l-4 50l7 23l-12 27l5 4l4 9z" />
    <glyph glyph-name="i" unicode="i" 
d="M350 545l4 -38l-28 -21h-6l-4 2l-6 -2h-38l-30 2l-4 50v13l-4 -4l-2 7l6 -3l13 21h4l13 12l4 -2h4l27 12l35 -18zM502 41l9 -9l-6 -16l-9 -18l-22 -10l-43 -4v4l-17 10l-18 -4h-59l-5 -6l-10 10l-22 -10h-38l-26 -12l-14 8l-8 10l-4 -6l-75 6v4l-3 3l-5 -3l-23 3l-12 6
l-9 25l5 30l22 14h25l13 9l62 -4h47v29l-7 15h-10l4 7h6l3 -4l13 22l-4 4l10 65l-6 17l-4 78h4l10 40v4l-14 12l-12 -2l-28 -26l-8 12l-14 14h-25l-9 -10h-22l-17 22l5 6l-5 3l-8 13l4 31h12v9l44 -9l5 3v-3l78 -9h10l4 -4l8 9l34 -5l19 -35v-99l3 -40v-31l-8 -16l5 -66
l3 -21l9 -28v-3l9 -9l22 5l26 4h61l25 -4l13 -21l-3 -15v-4z" />
    <glyph glyph-name="j" unicode="j" 
d="M398 520v-40l-26 -16v-8h-10l-12 -14l-18 4l-4 6l-4 -6l-40 10l-21 34h-4v8h4l3 19l14 21l14 8l3 5v9l31 14l22 -10l18 -22h13l3 -12zM398 194l4 -4l-9 -14l-3 -72l-6 -6v-12l9 -9l-3 -26l-6 -31l9 -8l-3 -70l-18 -27v-25l-10 -25v-19l-2 4l-23 -29l-34 -19l-6 4l-13 -6
l-4 -6v-9l-14 5l-3 -5l-35 5l-21 4l-19 6h-12l-9 -15l-31 52l-4 -3l-9 8l-3 -5l-6 19l-12 12l-4 34l10 78l2 6l22 21l4 -5l14 14l4 -4l4 4l14 8l47 -34l4 -26l9 -22v-12l-4 4l-9 -19l-9 -13h-12l-4 6l-22 -14v-8l16 -14h10v-4h40l2 4l40 5v17l26 21h4l10 9l-4 31l8 13l-4 22
l-10 12l6 14l-10 4l10 10l-6 3v6l8 5l-6 3l4 4l4 -5v26l-10 61v27l10 13l-10 39l6 4l-6 4v36l6 28l8 10l-4 13v9l-17 12l-37 10l-22 -10v-4h-65l-12 14h-4l-5 -4l-8 9l-4 -5l-14 12l10 28l21 12v10l9 2l26 -2l18 -7l60 -3h70l16 10l22 -19l14 -35l-5 -3v-9l9 -10h-4v-130z
M280 -26l23 -10l-6 -12l-17 -16h-14v32z" />
    <glyph glyph-name="k" unicode="k" 
d="M496 390h13l-9 -26l-22 8v9l-4 5l16 7zM412 400l44 -7l-4 7v-32l-30 -12l-10 -10l-56 -3l-5 -15h-4l-3 6h3l9 16v6l-21 8l-35 -8l-5 -6l-4 28v8l44 14l9 -10h12l4 -12v-10h12l22 22zM526 33l8 -17l-8 -9l4 -5v-3l-4 3l-8 -7h-28l-59 -5v5h-63l-12 -5v-4l-9 -10l-12 4h-9
l-31 32l-4 27h25l14 15h8v18l-8 32h-4l-12 12v22l-19 10l5 28l-9 10l-5 21l-8 9l-21 -12l3 -6h-3l-9 -17h-14l-4 -5l-13 -12v-10h-4l-5 -4v-8h-10l-2 6l-10 -10v-30l10 -14v-5l-10 -7l10 -28l64 -8l14 -7v-32l-4 -8l-13 -19l-40 19l-13 -9h-18l-13 -14l-33 4h-36l-30 -6h-12
l-28 42l5 17l13 13l4 -4l8 9l48 9l18 17l-4 5h-5v12h5l7 16v38l7 2l-10 10v21l-4 13h4l3 22v26l-3 36v13h10l8 16l-6 43l10 10l-10 12l6 40l-6 4l-9 9l9 55l-12 32l-47 5v3l-40 14v17l21 17l22 -4h4l5 -4l9 8l60 -4l6 -4h7v-18l5 -4l4 4l-4 -25l-9 -19l9 -21l-5 -31v-100
l9 -3l-9 -27l-7 -13l3 -21l4 -4h9l6 -40l12 -10l22 -8l16 8v6l18 8l31 30l16 27h19l4 4l5 -25l-35 -36l14 -44l24 -4l6 -4h7l15 -17l6 -53l28 -16l8 -27l14 -17l34 -9l4 -5l14 14l16 -6l22 -3h9l9 -12z" />
    <glyph glyph-name="l" unicode="l" 
d="M494 33l9 -17l-5 -14v-3l-35 -23h-17l-30 -8l-18 8l-22 -8l-18 8v4h-16l-14 -6l-4 2h-10v4l-56 6l-3 -6l-31 -4l-21 -8l-13 6h-10v2l-64 4l-23 22l9 10l-4 4l8 17h6l7 18l39 -5l40 18l13 -4h13l18 22l8 7l-8 31l8 30l14 10v9l8 7l-26 28h-4v12l22 26l12 40l-4 52l-4 4h8
l14 26l-10 8l-8 30h4v28l-4 87l-26 -9l-10 9h-52l-28 -14l2 5l-2 4h-6l-4 -4l-34 16l-10 14v26l31 10l4 -6l3 8l80 -2v-6l8 -8l40 4l4 4h21l14 -8l13 -5l13 -25l-5 -88l-8 -21l8 -9l-8 -12v-28l4 -4v-34l9 -35l-9 -8l-4 -79l-6 -5l10 -9v-22l4 -3l-8 -9v-31l13 -44l-5 -3
l5 -4l9 -28l9 -8h17l4 5l13 9l23 -21l21 -6l3 6l40 7z" />
    <glyph glyph-name="m" unicode="m" 
d="M570 49l4 -21l-12 -26l-22 -9l-27 6h-59l-75 3l-5 -9v6l-29 3h-14l-9 -9l-61 9l-3 -9l-22 9l-8 18l2 17l14 5l14 7l3 -3l25 22l-2 2h2l10 19l-10 21l-2 14l8 9l-6 3l10 18l-16 32l16 37l5 5l-5 4l-10 12v28l-2 4l24 27v7l-3 6l-4 -6l-9 10l-6 12l-46 14l-4 4l-31 -18
l-17 -22l-4 -28h-10l-12 -31l9 -53v-109l7 -12v-9l-4 -4l22 -6l18 -16l-9 -26v-17l-61 -6l-22 -3h-31v9l-63 -3l-14 30l16 27l9 -9l8 5l23 19l17 -4h13l10 13l-4 3l6 13v71l6 22l4 34v31l-12 17l8 30l9 22l-5 4l-4 17l-18 19l-16 -10l-31 18v4l-6 4h-7l-5 14l-3 3l34 32
l21 3l9 -9l4 6l10 -9h12l34 -18l9 -13l6 5l7 -9l27 17l4 14l5 -6l22 19h16l6 3l7 -9l15 6l42 -49h9l8 9l19 -4l21 12v9l39 14l22 3l56 -21l-4 -5l12 -8l6 -35l9 -9l-9 -78l-14 -47l14 -36v-100l9 -26l25 -5l4 5v4zM456 259l10 35l-10 13l-8 21l-4 -4h-4l-8 8l-6 14l-30 14
l-13 -6v-13l-4 -17h-9l4 -4l-12 -13h-4l-19 -35v-18l-13 -26l22 -30l-3 -4v-6l-9 -38v-14l-14 -26l26 -30l-3 -3v-13l3 -6v-4l35 10l9 -18h4l14 8h16l18 10v4l-4 12l-5 40l19 22v12l-10 57l17 33l-7 10z" />
    <glyph glyph-name="n" unicode="n" 
d="M507 51l27 -52l-18 -9l-4 -4l-14 13h-60l-6 -4l-56 -5l-8 9h-35l-9 13l4 34l5 -4l5 4l16 5l71 3l7 10l-3 4h-4l7 9l-3 5l-13 44l4 24l12 14l-12 17l5 13v10l-9 3l9 65l-15 22v22l-38 30l-12 4h-15l-12 -12l-31 -16h-16l-10 -19l4 -4l-25 -40v-12l-4 4h-9l-8 -13l2 -12
l-2 2l-26 -59l3 -21l9 -44l-12 -10v-17l12 -23l66 -3l9 9l3 -6h9l-18 -8l-9 -34l-25 -26l-21 9l-26 -9v4h-80l-4 5h-8l-10 -9l-13 9l-21 -5l-4 -4v-6l-27 22l-4 -3h-3v21h3l9 22l14 12h24l28 14l12 -4l4 13l9 17v14l-4 2l13 16l-4 7v57l-5 4l-4 13v87l-5 5l9 8v15l-25 2
l-12 4v15l-44 29l-6 18l-4 18l26 25l40 -12l4 4v-4l21 -5l21 17h6l4 13l3 -13h9v-8l18 -17h17l5 -6h10v-12h38l27 22h12l31 21l13 4l9 -7h8l4 3v4l22 -7l4 3h8l32 -25h8l36 -52h-6v-28l6 -25l12 -25v-10l-18 -21l6 -187l21 -14z" />
    <glyph glyph-name="o" unicode="o" 
d="M505 207v-40l-9 -13l-10 -52v-9l-12 -7l-6 -6v-12l-16 -19l4 -3l-14 -13l-34 -27l-6 -13l-38 -9l-30 -16h-10l7 4l-9 8l-52 -4h-40l-9 17l-31 9l-30 31l-25 21l-15 23h-8l-17 16l3 5l-7 12l-5 23l5 43v10l4 2l-4 6l7 26v52l18 31v7h4l9 28h6l3 3v9h4l18 22l44 40l26 4
l4 3l22 9l52 -3l23 12l25 -4l22 -21l3 4h6l9 -10h12v-8l17 -17l5 4l26 -35l-4 -4l16 -22l9 -8l-3 -6l16 -16l6 -12v-6l2 -4l-8 -9l8 -12v-28zM408 186l13 25l-13 31l-8 9l2 17l-6 8h-6l-3 34l-31 18v4l-18 6v3l-16 5l-19 14l-21 -10l-4 -4l-6 4l-12 -9l-44 -3l-22 -18
l-12 -17l-4 -27l-14 -17l9 -31l5 -26l4 -52l12 -14v-7l40 -59l22 -2v-4h47l28 16h12l9 -10l12 16l-4 3l30 31v13l-3 3l21 22v28z" />
    <glyph glyph-name="p" unicode="p" 
d="M528 142l8 -13l-26 -5l-3 -22l-15 -16l-4 -22h-9l-16 -18l-5 -18h-4l-6 -4l6 -4l-18 -8l-4 4l-26 -17l4 -15v-4l-12 -12l-28 8l-21 4l-4 -4l-17 8l-16 -16v-13l-7 -5l-3 12l-18 10l5 4l-5 4h-10v10l-12 12l-4 -3l-18 -6l-8 -13l4 -52l10 -9h12v-4l16 -9l15 9l39 -21l12 4
v-40l-4 -4v-12l-3 4l-15 -14h-38l-6 5h-6l-15 -12l-35 12l-12 -12l-22 3l-9 -9l-31 6l-4 3l-9 -9l-38 6l5 3l-36 9l-21 17l3 4l-8 10l5 34l17 13l4 -3l4 3h22l5 -3l17 7l21 -4h9l14 13l-4 31v13h4v74h4v12l-4 12l8 16l-4 22h-8l-10 16l14 43l8 21v80l9 16l-5 78h-12l-26 -2
v-6l-9 -8l-40 14l-17 21l4 35l34 12l6 9l34 -4l14 -8h30l4 3l8 -9h13l6 -17l31 -12l3 3l13 -3l10 8h17l16 18h9l19 17l43 -5l4 -3h12l14 -13l14 7l28 -13l19 -15l-15 -31l30 -6l10 -16l22 -31l5 -25l5 -75v-31l-5 -18v-8zM436 167l6 -3v16l-28 22v9l9 12l13 28l-13 8l-3 23
l12 12l-9 16l-21 10v4l-22 14l-18 -10l-4 -4l-22 4l-12 4l-19 -8l-33 -35l-4 -21h-6v-14l-4 -10l-5 7l-2 -4l4 -3h3l-12 -12h-10l-4 -21l17 -25l-3 -6l22 -26v-12l-10 -9v-13l10 -10l16 -12l9 -21l3 3l28 -22l34 -4l18 23h22l16 12v19l9 6l4 10l-13 12l-4 14l13 17h13z" />
    <glyph glyph-name="q" unicode="q" 
d="M515 -102l27 -17l-10 -39l-12 -14v-9l-22 -9l-18 9l-12 -3v3l-4 6l-5 -6l-31 -3l-16 -10l-19 4l-4 6l-5 -6l-26 6l-2 -6h-28l-16 -4h-15l-7 10l-27 3l-16 18v17l3 4v14h4l5 3h-5v9h5v-3l4 -6l9 9h12l6 6l26 12l8 -8l26 -4l8 38v12h4l6 15v4l-6 3l-12 14l6 4v4l-19 9h-21
l-19 -17l-13 -4l-12 -13l4 -4l-22 4l-7 9h-44l-31 8l-52 61l-10 21l-4 6l-4 13h-8l-5 16l-4 5l-5 38l-4 18v13l4 6l-8 7v74l4 -3l4 8v13h5l9 17l8 9v18h4l10 16l38 36h9l4 4l43 26l14 -8l16 8l28 -8l35 3l9 -17l22 -4l12 -4l22 17h44l2 -17l10 -18l-3 -30l3 -4l4 -22h-4
l-10 -18l10 -13v-21l9 -14v-17l-5 5l-4 -43l9 -9l-5 -35v-5l8 -10h-3l-9 -72l9 -9v-17l9 -36l-6 -21v-23l6 -30l26 -8l24 8l16 -4h7v-4zM350 146l8 52l-8 9v4l-16 5l-6 -5l-10 9l6 3l-8 9l12 12l-10 19l-2 13v13l-26 5l-14 13v17l-13 14l-9 -10l-22 4l-22 -29h-12l-31 -21
v-62l-17 -18v-48l13 -30l21 -26l-3 -5l7 -7v-9l19 -9v2l3 7l14 -19l56 -4l10 10l-6 4l10 18l24 12v16l19 19l13 3v10z" />
    <glyph glyph-name="r" unicode="r" 
d="M532 372v-44l-8 -8v-26l-36 -22l-30 22l-4 16l-4 6v12l4 4l-18 28h-34l-4 -6l-44 -30l-26 -35l-8 -7l4 -6l-26 -17l-14 -27l5 -21l-13 -17l4 -6h-4l-4 -24l-4 -6l12 -8l4 -14v-47l5 -3l16 -22l9 6h19l3 7v-7l6 -2h12v-4l44 -10l12 -8l4 3v-43l-22 -16h-24l-23 -10l4 -4
h-21l-8 8h-22l-5 6l-17 -10h-18l-3 -8l-37 8l-7 4h-17l-10 -8h-13l-3 -4l-31 -4v4l-13 4h-14l-12 14l-5 -6l-33 40l2 18l19 16l56 10l9 9v-7l38 -12l12 10l-6 18v12h12l9 16v66l-5 6h5l4 34l3 12v10l6 2l-18 15l5 13l7 44v4l-12 12l5 6v3l-15 13h-25l-3 6l-5 -6l-39 -8h-5
l-3 -5l-10 13l-4 -4l-18 22v26l14 27l60 -9h70l27 -23l13 -21v-26l-10 -18l4 -4l6 -14l8 -7l17 21v4l-4 4l31 14l4 30l40 14l16 16h40l3 6l9 7h18l26 6l22 -19v-8l21 -13l5 5z" />
    <glyph glyph-name="s" unicode="s" 
d="M475 176v-34l-4 -32v-12l-31 -30v-10l-3 6l-39 -40l-44 -8l-4 -4l-32 -10l-8 -9l-4 6l-12 -9l-28 22l-3 -6h-13l-10 10l-4 -4l-22 12l-38 -4l-49 -14h-13l-25 31v33l3 44l6 19l4 3l-4 6l-6 16v15l6 7l8 14l21 4l21 -22v-9l22 -17h9l-3 -4l22 -10h12l4 -12l-7 -14l21 -12
l12 4l14 8l18 -17l-6 -16l6 -7h8l4 16h32l6 -9h6l13 12l-4 13l4 6l13 -15l18 5l9 44l17 8l4 4v4l-4 6l-5 12l-35 26l-17 5l-23 16l-2 -3h-15l-7 8l-6 -5l-38 -7l-18 7l-44 5l-40 31h-6l-6 -5l-22 30l-8 36l-4 26v14l34 56l12 3l71 27l21 -6l4 -3l10 9l30 -9h26l22 -18l30 -3
l10 -14h9l17 26h4l8 9l18 -4l3 -5h6l-4 4l5 3l2 -2l-3 -5v-9l3 -3l12 -31l-12 -35l-3 -4l9 -8h-6v-14l10 -21l-10 -14h-21l5 5l-31 30l-9 26l-56 43l-27 -3v3l-21 5l-23 4h-21l-22 -4l-44 -36l-7 -8l13 -16v-10h-6l-3 4l-9 -12l9 -10v-16l21 -18h52l23 -4l43 -4v-5l22 -12
l16 8l49 -5l31 -26h16l10 -26z" />
    <glyph glyph-name="t" unicode="t" 
d="M440 180v-47l-4 -4v-15h-5l-4 -6l-17 -19l4 -3h-4l-8 -28v-4l-18 -8v-13l-9 -9l5 -4l-36 -4l-12 -10l-10 -16h-6l-7 -6l-12 15l-53 -6l-8 -9l-17 18l3 18l-34 22l-13 38h-5l-3 6v12l12 12l-9 48l9 49l5 75l4 42v44l-13 8l-43 -8h-43l-9 -8l-18 12l-4 -4l-9 8h-9l5 5l-5 4
v40l26 21l10 -6h13l3 10l44 -4l22 -13l21 13v130l5 14l23 12l25 -4l4 -5h14l7 -13v-16l15 -9h4l-22 -43l12 -35l-12 -27l12 -13h83l26 3v6l9 -9h22l21 -18l-3 -29l-5 -5v-9l-17 -8l-14 4h-44l-3 -4l-57 4l-12 -12v-22l-18 -10l-10 -8l13 -38v-40l21 -22l-12 -9l-12 -13v-10
l18 -8h16l-4 -4l4 -3l-16 -40l6 -13l10 -10h18l12 54l-9 9l7 21h6v-36l10 -8h9l13 23h8l34 38l35 -9h5z" />
    <glyph glyph-name="u" unicode="u" 
d="M532 46v-34l-4 -6v-7h-2l-6 -9h-22l-4 3h-12l-22 -13h-14v4l-38 6l-22 9h-35v7l-14 14l-47 -4v-4l-18 -10h-4l-4 4l-18 -13l-56 -13l-6 -4l-34 26h-22v10l-16 4h-18l4 4l-8 8l-5 61l-9 35l9 18v161l-9 21l-4 23l-10 13l-23 2l-11 -6l-16 6l-14 25l-1 19l8 21l15 7l12 -2
l22 4l2 -5l12 -15v1l-4 4l4 4l4 -6l4 9l36 -16h22l-6 -6l18 -8l10 -8l-6 -5l8 -17l-12 -44v-160l4 -71l27 -16l4 3v-3l13 -7l18 -2l16 9l6 -7h12l40 40l22 26l4 37l18 7v18h3l13 25l-4 28l9 8v25l5 32l21 22l-21 22l-80 2l-17 10l5 30l35 14l52 -4l17 -10l12 4h28l12 -13
v-130l9 -109l-5 4v-16l9 -40v-4l21 -9h13l9 -12l10 -9h21l9 -10h12z" />
    <glyph glyph-name="v" unicode="v" 
d="M532 400l6 -22l-22 -10l-18 -4l-16 -8h-40l-12 -13l-6 -27l-12 -13v-35l-14 -21l-2 -27l-15 -22l5 -17h-5l-4 -12l-13 -21l-8 -32l-13 -8l3 -26l5 -5v-17l-14 4l-3 4l-10 -8l6 -36l-10 -12l-26 -26l-16 -10l-28 4l-3 6l-13 13h-6l-7 40l-5 12l-13 43l-3 -5l-6 21l-8 10
v13l-5 5l-4 31l-17 17l3 34l-13 14v8l6 5l-18 25l-13 27v23l-19 34l-8 8h-13l-9 -8l-29 8l-21 4h-6l-13 13l9 9l-4 26l21 17h21l10 9h8v-5l10 -7l139 3l17 -8l12 -4h6l3 -35l-38 -30l-21 -6l-10 -7l4 -19l32 -52l2 -21h28l3 5l9 -18l-9 -26l13 -14l6 6l-6 -28l-13 -12
l19 -16l21 46l-5 18l-4 4h9l9 18v4l-5 4h5l4 9h8l17 31l6 42l8 10v12l-14 10l-7 8l-6 -4l-34 21l4 21l36 31h16l10 -8l2 5v-5h19l19 8l6 -8h109l19 -13v-10z" />
    <glyph glyph-name="w" unicode="w" 
d="M345 398v-30h-21l-4 -6l-13 -2l3 -40l-12 -4l-4 38l-26 -16h-10v12l-16 18l-19 4l-9 13v8h70l26 9zM524 398l4 -5h-4l-5 -3v-9h-7l-6 -5l-12 -14v-24l2 -6h-2l-12 -25v-25l-10 -10v-21l-13 -23l-17 -17l4 -13v-18l-4 6l-10 -19l10 -9l-5 -25l-12 -31l7 -25l-4 -44v-13h-3
l-6 -18h-3l-6 -12h-34l-14 3l-17 23l-7 48v34l-10 10l-4 28l-8 31l8 9v18l4 13l-4 4h-8v9l-9 3l3 31l-3 5h-6v13l19 10l4 -28l4 -12l26 -35v-13l22 -58l12 -3h10l21 31v30l23 17l-5 5l-9 56v17l9 35l-5 4h5v26l-12 14l-9 -8l-6 12v18l6 3l59 19v4l40 -4v-10zM254 244v-21
l-18 -16l-4 -13l4 -6v-68l-16 -22l10 -12l-7 -6l9 -16l-12 -36v-16l-13 -22l-15 -6h-2v-12l-4 4l-6 -4h-16l-31 48l-9 8l3 65l-13 17v32l-8 8l4 48h4v18l-12 7l-4 49l-5 4h-9v22l-7 5l-15 43l-16 16h-9l-19 23l15 21l13 6l34 -10h53l3 -4v-22l-22 -22l19 -30l-6 -30l-7 -10
l22 -33l-15 -44l15 -27l12 -4l26 -26l18 8l22 53l-6 5l-7 12v23l13 12l24 -4z" />
    <glyph glyph-name="x" unicode="x" 
d="M549 46l13 -22l-9 -29l-59 -9h-14l-9 9h-12l-9 -9h-71l-7 9l-14 -9l-30 9h4l4 4l-8 17l4 26v9l52 3l-40 35l-8 21l5 6l-5 4l-22 44l-17 -4l-8 -10v-30h-9l-4 -4v-8h-6l-13 -48l27 -18v-3l5 -6l-5 -31l-18 -16l-22 9l-12 -5l-9 -10l-21 19l-4 -4l-14 -5l-109 -4l-7 9h-16
l6 4l-13 21l4 13l21 21l40 6l4 4l32 4l2 4l10 10l4 12l14 4l16 18v17l13 9h14l23 18v9l12 7l12 5l10 9l-6 4l10 10l-4 24l-13 10h-9l-5 13l-26 31l-25 34l-10 27l-12 13h-36l-34 -6h-10l-4 -4l-8 14h-14l-8 12l8 28l97 8h12l26 -8l31 2l30 6l23 -18v-22h-23l-24 -4v-14
l7 -12l8 -10h6l3 6l10 -35l-6 -5l6 -3h8l5 -19l3 -16l22 3l18 19v6l9 10l-5 5l30 17l40 40l-18 16l-26 -16h-12l-6 -6l-8 28v24l22 14h14l38 -23l49 7l35 2l30 6l16 -15v-21l6 -4l-40 -12l-31 4l-4 4h-9l-18 -21l-13 -5l-25 -14v-25l-13 -8v-9l-9 -10l4 -4l-16 -5l-10 -7
l4 -5l-25 -44l3 -13v-8l18 -10l22 -22l4 6l22 -27l4 -13h5l4 -22v-9l21 -12l10 -13l5 4l7 -8h14l48 -9l4 -5l4 5z" />
    <glyph glyph-name="y" unicode="y" 
d="M244 412l22 -12l-3 -14l-19 4l-12 10h-13zM509 393v-21l-7 -8l-8 8h-19l5 6l-9 3h-12l-9 -25h-6l-4 -6v-7h-3l-14 -15l5 -21v-13h-5l-9 -35l-14 -8l6 -31h-6l-12 -39l-9 -12v-5l5 -4l-12 -18l-18 -22l4 -10v-12h-4l-13 -38l3 -18l-8 -9l8 -9l-3 -12l-19 -44v-16l-25 -37
l-8 -7l3 -6h-3l-5 -8v-13h-4l-10 -9v-4l6 -3h-6l-4 -7v-8l-3 6h-6l-13 -14l-30 -17h-30l-17 -9h-19l-8 9l-38 9l-13 16l-5 -4v10l-9 9v-7h-7v7h2l5 3l-13 9v17l-4 4l-9 38l19 50l12 13h9v1l-4 4l4 3l3 -5l10 14l25 -4l5 -5h14l12 -12l-4 -5l25 -44h-3l-30 -31v-13l30 -12
l8 -9l26 27l16 7l18 37l-2 3l15 19l19 21l4 25l-10 4h6v22l-6 26l-16 10v4l-5 3l-5 40l-21 31v4l3 5l-12 12l9 9l-21 38v19l-4 44l-6 3h-8v9l-13 13l-4 22l-13 22v12l-18 6l-66 3l-2 19h-6l30 16l48 -14l22 10l17 4v-4l5 -4h4l10 8v-4l7 -4v-30l-3 -6l8 -16l-8 -10l8 -8
l-5 -39l14 -8l17 -65l6 -14l2 4v-9l19 -9l7 -25v-4l-4 -5l10 -10v-16l8 -22h8l-3 -12l8 -10l17 10l14 12l-6 4l10 9l4 31l5 21v13h3l18 53l14 12v25l17 32l-5 6l10 16l2 18l-16 25l-40 -3l-8 8l-4 26l9 9l13 -5l39 -8h13v-6l4 -2h13l5 2h22l12 -9h22l10 9l8 -9h7z" />
    <glyph glyph-name="z" unicode="z" 
d="M471 58v-4l-12 -12v-18l-23 -34l-40 9l-15 -6l-19 -17h-18l-12 17l-56 -3l-10 -28l-12 -16l-10 4v34h-37l-28 -4l-21 -25l-4 4l-10 17v14l-2 3l-10 -9l-28 -4l-6 10h-18l-10 9h-8v17l-4 26h4l4 7l4 19l32 34l-4 6l12 2h13l19 23l21 21l13 10l-6 3h9l21 21v6l-2 4l9 9
l21 9l22 28l44 45v5l34 16v10l13 4l31 36v2l-28 6l-7 -8l-9 2h-19l-109 -8h-24l-9 -13l3 -3l-7 -10v-74l-5 -16l-4 -6h-10l-2 -9l-10 -12l-5 -4v-5h-13l6 5l-10 9l-12 16v75l4 21l8 10v47l10 8l-6 5l18 18l4 -4l6 4l12 12h9l4 -3l9 8l16 -8h36l104 -6l17 -3h13l4 3h65v-3
l5 -4h10l4 -22v-22l-22 -18l-14 -4l-21 -26v-13h-5l-4 -4v-9h-22l-13 -22l9 -13l-9 -21h-12l-19 -22l-2 -18l-32 -12l-12 -28l-18 -4l-18 -8l-4 -13l-13 -13l13 -34l8 -9l26 9v-6l10 -10l12 7l6 12l12 -3l3 -6h7l2 6v7l4 -4l6 4v9l16 -22h31l9 40h9l9 9v35l29 43h15l16 -13
l9 -14v-87l-12 -7v-9l3 -7z" />
    <glyph glyph-name="braceleft" unicode="{" 
d="M434 696l10 -22l-13 -31l-59 -4l-2 -3l-23 -10v10l-33 3l-17 -19l44 -46l-31 -44l-9 -9l4 -25l21 -27l-28 -17l16 -14l-5 -40l-6 -13l19 -47l-82 -6l-12 -31l71 -15l4 -28l11 -28l-13 -23l-3 -82l7 -31l-37 -40l37 -38l-4 -18l6 -22l-43 -34l6 -4l-10 -8l31 10l31 -25
l9 -11l16 -6l19 17l28 7l14 6l26 -32l-3 -23v-15l-23 -6l-42 2l-31 10l-21 13l-40 21l-24 8l-24 45l10 56l6 26l-4 18l-2 34l-10 35l12 18l-4 102l-28 24l-41 10l-7 52l44 14l42 16l-6 84l13 8l-3 4l-12 44l2 16l13 14l-13 16v28l-2 29l24 55l39 20l17 22h40l26 -10l12 14
l10 -8l13 4h17z" />
    <glyph glyph-name="bar" unicode="|" 
d="M288 88l2 -6l-4 -10h-2v-24l-2 -10l6 -22v-18l-6 -12l-2 -10h-6l-2 -9l-2 -1v-4h-7l-2 -2l-12 -2l-11 14l-2 14l-6 18v20h-2l4 6l-4 14l6 9l-6 13v26l4 10l-8 16l8 20l-4 14v19l-4 1l6 18v15l2 11l-8 14l4 4l-5 13v19h1l2 16h2v13l-2 2v40l2 19l-4 4l6 27l-11 30l-3 -1v9
l16 19l-2 12l-10 6v7h3v13l-7 8l7 13l1 43l-1 15l-4 21v6l7 9l4 15l-2 2v40h2l2 14l12 10h4l11 -26h4l-6 -24l4 -4l-6 -17v-14l4 -9l-2 -16v-11l9 -19v-6l8 -10l-11 -24v-2l3 -4l-3 -10l-4 -4l5 -14l-1 -2l7 -16l-2 -8l-2 -22h2l2 -56l-6 -38v-6l10 -14l-4 -7l4 -9l-2 -16
l4 -4l-4 -15l2 -15h-2l-4 -36l12 -24l-6 -13l4 -5l-2 -6l6 -10l-2 -8l4 -4l2 -5l-4 -15l2 -4z" />
    <glyph glyph-name="braceright" unicode="}" 
d="M309 590l23 -2l-23 -29l-14 6zM438 276l14 -36l-14 -23l-34 -19l-38 -8l4 -84l-12 -6l4 -6l12 -43l-4 -16l-12 -15l12 -16v-28l4 -28l-25 -54l-39 -21l-17 -21h-40l-25 8l-13 -14l-9 8l-14 -2h-17l-9 21l12 31l58 4l4 3l22 9v-9l34 -3l16 18l-3 48v42l5 12l-4 25l-17 25
l16 12l-4 18l5 42l-2 30l-10 29l33 17l51 20l-31 14l-4 29l-41 29l12 58l4 46l-8 30l12 40l-12 38l35 19l-6 23l-4 23l-5 3l9 9l-25 -1l-30 26l-10 11l-16 5l-18 -16l-29 -8l-15 -6l-25 32l3 24v14l22 8l44 -4l30 -9l61 -34l25 -8l24 -45l-10 -56l-8 -26l15 -18l-7 -34
l9 -35l-13 -19l6 -101l22 -21z" />
    <glyph glyph-name="asciitilde" unicode="~" 
d="M480 293l10 -15l-4 -42l-17 -8l8 -10l-2 -9l-11 -3l-28 -18l-22 -4l-6 -21l-6 3l-16 -12h-22l-6 -6l-16 8l-18 -8l-12 -4l-13 12h-6l-17 -6l-17 16l-21 10l-12 33l-13 9l4 14h-17l-10 8l-13 -8l-9 10l-14 -2l-2 -12l2 -52l-26 -22h-8l-10 -10l-6 10l-16 -6l-24 15l-4 -7
l-7 32l-8 12l13 12l8 32l15 13v5l17 26l22 5l5 -5l15 28l31 12h34l23 -12l28 2l20 -13l-2 -15l17 -8l-5 -14l13 -9l9 9l14 -32l19 8l13 -8l4 13l16 1l2 15l-6 9l2 10h8l-3 11l11 5l16 16l55 -7z" />
    <glyph glyph-name="quotesinglbase" unicode="&#x201a;" 
d="M406 129v-40h-2l-10 -50v-59l-4 6l-8 -22h-10l-25 -40l4 -3l-18 -19l5 -4l-31 -33l-35 -28l-42 -9h-22l-28 49l14 47h8l6 10l9 8l-6 4l9 9v13h14l12 12v15l5 4l-17 3l-4 5h-10l-3 13l-6 4h-9l-4 18l-8 9l4 3l-4 6l-13 26l9 43l16 25v10l18 9l18 17l4 -4l30 21h14l9 -9
l31 6v-6l2 -4h14l-4 -4l13 -9h9v-5l16 -7h9v-15l19 -28z" />
    <glyph glyph-name="quotedblbase" unicode="&#x201e;" 
d="M471 112v-32h-3l-7 -40v-47l-3 4l-8 -17h-6l-21 -32l3 -2l-14 -16l4 -2l-25 -28l-27 -22l-36 -7h-16l-22 39l11 38h6l5 7l8 8l-6 2l8 7v12h10l10 9v11l4 4l-14 2l-4 4h-6l-2 10l-6 4h-7l-3 14l-7 7l4 3l-15 26l8 34l13 20v8l15 8l14 13l3 -5l25 18h10l7 -7l25 5v-5l2 -3
h11l-3 -3l10 -7h7v-4l13 -6h8v-12l14 -22zM251 112v-32h-3l-8 -40v-47l-2 4l-8 -17h-7l-20 -32l3 -2l-14 -16l4 -2l-25 -28l-27 -22l-36 -7h-17l-21 39l11 38h6l4 7l9 8l-6 2l8 7v12h10l10 9v11l4 4l-14 2l-4 4h-6l-2 10l-6 4h-7l-3 14l-7 7l4 3l-15 26l8 34l13 20v8l15 8
l14 13l3 -5l25 18h10l7 -7l25 5v-5l2 -3h10l-2 -3l10 -7h7v-4l13 -6h8v-12l14 -22z" />
    <glyph glyph-name="ellipsis" unicode="&#x2026;" 
d="M488 204l21 -23l13 -12v-19l6 -2l8 -22l-14 -37v-21h-4l-3 -17v-12l-40 -19l-25 -18h-19l-3 -3l-9 8l-19 -8l-2 -4l-14 4l-22 21l-4 -4h-14l-12 17l-12 44l-10 5h4v12l-4 48l22 39l30 23h8l14 12l30 10l5 -6h9l3 8zM209 200l21 -23l14 -12v-19l5 -2l9 -22l-14 -37v-21h-4
l-4 -17v-12l-40 -19l-25 -18h-19l-2 -3l-10 8l-18 -8l-3 -4l-13 4l-22 21l-5 -4h-13l-13 16l-12 44l-9 6h3v12l-3 47l21 40l31 23h7l15 12l29 9l5 -5h10l2 8z" />
    <glyph glyph-name="quoteleft" unicode="&#x2018;" 
d="M172 578v32h3l7 40v48l4 -5l6 17h8l20 32l-3 2l15 16l-4 3l24 27l28 22l34 7h18l22 -39l-12 -38h-6l-4 -7l-8 -8l4 -2l-6 -7v-12h-10l-11 -8v-12l-4 -4l15 -2l2 -4h8l2 -10l4 -4h8l3 -14l7 -7l-4 -3l4 -5l10 -21l-7 -34l-13 -20v-7l-14 -9l-15 -12l-3 4l-24 -18h-10l-8 8
l-24 -6v6l-4 2h-10l4 4l-11 6h-7v4l-14 7h-6v11l-15 22z" />
    <glyph glyph-name="quoteright" unicode="&#x2019;" 
d="M384 756v-31h-3l-7 -40v-47l-4 4l-6 -18h-8l-20 -31l3 -2l-15 -15l4 -4l-24 -26l-28 -22l-34 -8h-18l-21 39l11 38h6l4 7l8 8l-4 2l6 8v10h10l11 10v11l4 5l-15 2l-2 4h-8l-2 10l-4 3h-8l-3 14l-7 7l4 4l-4 4l-10 21l7 33l13 21v7l14 8l15 14l3 -4l24 17h10l8 -7l24 5v-5
l4 -3h10l-4 -3l11 -8h7v-4l14 -6h6v-11l15 -23z" />
    <glyph glyph-name="quotedblleft" unicode="&#x201c;" 
d="M280 578v32h2l8 40v48l3 -5l7 17h7l21 32l-4 2l15 16l-4 3l25 27l27 22l35 7h18l21 -39l-11 -38h-6l-4 -7l-9 -8l5 -2l-7 -7v-12h-10l-11 -8v-12l-4 -4l15 -2l3 -4h7l2 -10l5 -4h8l2 -14l8 -7l-4 -3l4 -5l10 -21l-8 -34l-12 -20v-7l-15 -9l-15 -12l-2 4l-25 -18h-10l-7 8
l-25 -6v6l-3 2h-10l3 4l-11 6h-6v4l-14 7h-7v11l-15 22zM46 578v32h3l7 40v48l4 -5l6 17h8l20 32l-3 2l15 16l-4 3l24 27l28 22l34 7h18l22 -39l-12 -38h-6l-4 -7l-8 -8l5 -2l-7 -7v-12h-10l-11 -8v-12l-4 -4l15 -2l2 -4h8l2 -10l5 -4h7l3 -14l7 -7l-4 -3l4 -5l10 -21
l-7 -34l-13 -20v-7l-14 -9l-15 -12l-3 4l-24 -18h-10l-8 8l-24 -6v6l-4 2h-10l4 4l-11 6h-7v4l-14 7h-6v11l-15 22z" />
    <glyph glyph-name="quotedblright" unicode="&#x201d;" 
d="M251 756v-31h-3l-8 -40v-47l-2 4l-8 -18h-7l-20 -31l3 -2l-14 -15l4 -4l-25 -26l-27 -22l-36 -8h-17l-21 39l11 38h6l4 7l9 8l-6 2l8 8v10h10l10 10v11l4 5l-14 2l-4 4h-6l-2 10l-6 3h-7l-3 14l-7 7l4 4l-4 4l-11 21l8 33l13 21v7l15 8l14 14l3 -4l25 17h10l7 -7l25 5v-5
l2 -3h10l-2 -3l10 -8h7v-4l13 -6h8v-11l14 -23zM484 756v-31h-2l-8 -40v-47l-3 4l-7 -18h-8l-20 -31l4 -2l-15 -15l4 -4l-25 -26l-27 -22l-35 -8h-18l-21 39l11 38h6l4 7l9 8l-5 2l7 8v10h10l11 10v11l4 5l-15 2l-3 4h-7l-2 10l-5 3h-8l-2 14l-8 7l4 4l-4 4l-10 21l7 33
l13 21v7l15 8l14 14l3 -4l25 17h10l7 -7l25 5v-5l3 -3h10l-3 -3l11 -8h6v-4l14 -6h7v-11l15 -23z" />
    <glyph glyph-name="bullet" unicode="&#x2022;" 
d="M372 255l9 -21l-15 -38v-21h-4l-2 -17v-12l-40 -18l-26 -18h-18l-4 -4l-9 8l-19 -8l-2 -4l-14 4l-21 22l-5 -4h-14l-12 16l-12 44l-10 6h4v12l-4 47l22 40l31 23h7l14 12l30 9l5 -5h9l4 8l56 -24l34 -36v-18z" />
    <glyph glyph-name="endash" unicode="&#x2013;" 
d="M618 236h10l-10 -63l-18 -23l-22 -8h-12l-9 -9h-4l-5 5l-4 -5l-69 15l-58 -6l-9 8l-17 -8l-44 6l-14 -15l-107 5l-44 10l-13 -10l-13 4l-159 8l-37 14l-16 17l9 55l39 27h40l15 5l6 4l17 -4l82 -10l4 -3h8l5 3l23 5h206l81 -8l13 8l74 -5l18 -3l8 -9l5 3l9 -9l10 9l2 -3
l-4 -4z" />
    <glyph glyph-name="emdash" unicode="&#x2014;" 
d="M536 272h10l-6 -68l-4 -31l-18 -23l-22 -8h-12l-9 -9h-4l-5 5l-4 -5l-69 15l-17 -6l-10 8l-16 -8l-44 6l-14 -15l-26 5l-43 10l-13 -10l-12 4l-109 8l-37 14l-15 17l-7 31v14l-6 8l21 38l39 27h40l16 4l6 4l46 -13l6 -3h7l5 3l22 5h126l40 -8l12 8l74 -5l18 -3l8 -9l5 2
l9 -8l10 8l2 -2l-4 -4z" />
    <glyph glyph-name="nonbreakingspace" unicode="&#xa0;" 
 />
    <glyph glyph-name="currency" unicode="&#xa4;" 
d="M618 794h10l-10 -63l-18 -23l-22 -8h-12l-9 -9h-4l-5 5l-4 -5l-69 15l-58 -6l-9 8l-17 -8l-44 6l-14 -15l-107 5l-44 10l-13 -10l-13 4l-159 8l-37 14l-16 18l9 54l39 27h40l15 5l6 4l17 -4l82 -10l4 -3h8l5 3l23 5h206l81 -8l13 8l74 -5l18 -3l8 -9l5 3l9 -9l10 9l2 -3
l-4 -4zM618 600h10l-10 -64l-18 -22l-22 -9h-12l-9 -9h-4l-5 6l-4 -6l-22 6l-47 9l-58 -6l-9 9l-17 -9l-44 6l-14 -15l-107 6l-44 9l-13 -9l-13 3l-130 6l-29 3l-37 14l-16 17l9 55l39 26h40l15 5l6 4l17 -4l82 -9l4 -4h8l5 4l23 4h206l81 -8l13 8l74 -4l18 -4l8 -8l5 2
l9 -9l10 9l2 -2l-4 -5zM618 410h10l-10 -63l-18 -23l-22 -8h-12l-9 -9h-4l-5 5l-4 -5l-69 15l-58 -6l-9 8l-17 -8l-44 6l-14 -15l-107 5l-44 10l-13 -10l-13 4l-159 8l-37 14l-16 18l9 54l39 27h40l15 5l6 4l17 -4l82 -10l4 -3h8l5 3l23 5h206l81 -8l13 8l74 -5l18 -3l8 -9
l5 3l9 -9l10 9l2 -3l-4 -4zM618 226h10l-10 -63l-18 -23l-22 -9h-12l-9 -8h-4l-5 5l-4 -5l-69 14l-58 -6l-9 9l-17 -9l-44 6l-14 -14l-107 5l-44 9l-13 -9l-13 3l-130 6l-29 3l-37 14l-16 17l9 55l39 27h40l15 4l6 4l17 -4l82 -9l4 -4h8l5 4l23 5h206l81 -9l13 9l74 -5
l18 -4l8 -8l5 2l9 -8l10 8l2 -2l-4 -4zM618 32h10l-10 -64l-18 -22l-22 -10h-12l-9 -8h-4l-5 6l-4 -6l-22 6l-47 8l-58 -6l-9 10l-17 -10l-44 6l-14 -14l-107 6l-44 8l-13 -8l-13 2l-130 6l-29 4l-37 13l-16 17l9 56l39 26h40l15 4l6 4l17 -4l82 -9l4 -3h8l5 3l23 5h206
l81 -8l13 8l74 -5l18 -3l8 -9l5 3l9 -9l10 9l2 -3l-4 -4zM618 -163h10l-10 -63l-18 -23l-22 -9h-12l-9 -8h-4l-5 5l-4 -5l-69 14l-58 -6l-9 9l-17 -9l-44 6l-14 -14l-107 5l-44 9l-13 -9l-13 3l-130 6l-29 3l-37 13l-16 18l9 55l39 27h40l15 4l6 4l17 -4l82 -10l4 -2h8l28 8
h206l81 -8l13 8l92 -8l8 -10l5 4l9 -10l10 10l2 -4l-4 -4z" />
    <glyph glyph-name="section" unicode="&#xa7;" 
d="M442 316v-95l-24 -45l-4 -26l-25 10l-9 -38l-3 -30l16 -26l3 -23l-3 -27l-18 -58l-33 -44l-43 -18l-10 -12l-29 12l-16 2l-23 6l-16 2h-13l-13 10l-9 18l-16 -2l-29 16l5 62l31 54l31 8h19l17 -25l18 2l22 -41l12 -11l36 -1l2 38v17l-14 27l-36 36l-5 32l-23 52l-27 17
l-8 23v22l-21 18l-38 13l-25 -7l-15 32l-14 16l1 96l23 10l-12 25l17 23l21 17l12 23v29l20 -13l-18 34l-8 34l26 68l20 12l-6 16l29 15l38 9l29 1l25 -4l27 -17l44 -56l-5 -30l-13 -27l-18 -13l-26 8l-19 18v37l32 31v8l-13 12l-38 -20l-12 8h-18l-35 -8l15 -24l-17 -13
l-2 -25l8 -32v-42l17 9l14 -21l54 -40l26 -17l28 -31l-6 -24l16 -14l36 -11l6 -31l-4 -24zM336 177l32 83l-19 56l-69 86l17 -9l-29 35l-30 2l-2 24l-17 -6h-31l-9 -8v-68l53 -48l18 -23l-4 -23l20 -12l33 -50l5 -26z" />
    <glyph glyph-name="guillemotleft" unicode="&#xab;" 
d="M289 442l33 -24l15 -41l-33 -15v-31l-30 3l-40 -18v-25l-38 -9l-35 -14l-40 -42l4 -34l23 -12l48 -38l44 -13l15 -36l46 -5l5 -18l16 -33l-17 -43l-21 -10h-21l-69 36l-33 20l-5 22l-23 12l-11 20l-58 38h-18l-37 50l15 48l40 34l17 41l35 3l17 31l28 31l27 7v23l6 4v12
l16 5l24 -5l6 36zM510 438l32 -24l16 -40l-32 -16v-30l-32 3l-38 -19l-2 -24l-36 -8l-36 -16l-40 -41l4 -33l22 -13l50 -39l43 -12l15 -36l46 -5l6 -19l14 -32l-16 -43l-20 -11h-22l-70 36l-32 21l-5 23l-23 10l-11 21l-59 38h-16l-38 50l16 47l38 35l18 41l36 3l16 31
l28 30l28 8l-2 24l6 2v12l17 6l25 -6l5 36z" />
    <glyph glyph-name="degree" unicode="&#xb0;" 
d="M505 560v-40l-9 -12l-10 -52v-10l-12 -6l-6 -7v-12l-16 -19l4 -2l-14 -14l-34 -26l-6 -14l-38 -9l-30 -15h-10l7 2l-9 10l-52 -4h-40l-9 16l-31 10l-30 30l-25 22l-15 22h-8l-17 16l3 6l-7 12l-5 22l5 44v8l4 4l-4 6l7 26v52l18 30v8h4l9 27h6l3 3v10h4l18 21l44 40l26 4
l4 3l22 10l52 -4l23 12l25 -4l22 -21l3 4h6l9 -9h12v-10l17 -16l5 4l26 -34l-4 -4l16 -22l9 -10l-3 -4l16 -17l6 -12v-7l2 -2l-8 -10l8 -12v-28zM408 538l13 26l-13 31l-8 9l2 16l-6 8h-6l-3 36l-31 18v3l-18 6v3l-16 6l-22 16l3 -4l-21 -8l-4 -4l-6 4l-12 -10l-44 -3
l-22 -18l-12 -17l-4 -28l-14 -16l9 -30l5 -27l4 -51l12 -14v-8l40 -58l22 -3v-4h47l28 16h12l9 -9l12 16l-4 2l30 31v13l-3 4l13 14l8 7v27z" />
    <glyph glyph-name="paragraph" unicode="&#xb6;" 
d="M526 60l8 -23l-8 -21l-50 -19l-44 -4l-198 -5l-31 22l-51 -16l-18 13v9l8 8l18 32l26 -6l30 22l22 40l9 93l-27 31l-44 17h-60l-36 13v43l-10 36l-17 27l-9 63l14 61l26 36l8 27l58 17l36 22l117 3l103 -8l84 8l40 -29l4 -20l-22 -20h-40l-22 -10l-40 10l-8 -10l6 -45
l-4 -15v-12l4 -62l-6 -95l17 -31l-7 -43l-2 -59v-60l19 -18l21 -10zM318 385l14 17l-10 67l4 49l-12 14l-28 -6l-12 -17l12 -167l14 -14l14 14zM332 116l-10 66l6 84l-34 10l2 -36l-14 -88l18 -63h5z" />
    <glyph glyph-name="guillemotright" unicode="&#xbb;" 
d="M44 -18l-32 24l-16 41l32 15v31l32 -3l38 18l2 25l36 9l36 14l40 42l-4 34l-22 12l-50 38l-43 13l-15 36l-46 5l-6 18l-14 33l16 43l20 10h22l70 -36l32 -20l5 -22l23 -12l11 -20l59 -38h16l38 -50l-16 -48l-38 -34l-18 -41l-36 -3l-16 -31l-28 -31l-28 -7l2 -23l-6 -4
v-12l-17 -5l-25 5l-5 -36zM262 -18l-32 24l-16 41l33 15v31l31 -3l38 18l2 25l36 9l36 14l40 42l-4 34l-22 12l-50 38l-42 13l-16 36l-46 5l-6 18l-14 33l16 43l20 10h22l70 -36l32 -20l6 -22l22 -12l11 -20l59 -38h17l37 -50l-16 -48l-38 -34l-18 -41l-36 -3l-16 -31
l-28 -31l-28 -7l2 -23l-6 -4v-12l-17 -5l-25 5l-4 -36z" />
    <glyph glyph-name="FLW161" unicode="&#xa1;" 
d="M389 768l65 -26l-8 -66l-19 -10l-38 4h-21l-38 -32h-20l-19 20l-32 -6h-21l-6 18h-38l-22 -18v6l8 8l-32 18l-19 24v27l19 19l24 -12l14 -34l19 -19h13l8 9v-9l44 -5h8l13 -14l57 38l28 55zM498 593l42 -46v-13l-42 -27h-25l-21 -21l-12 -2l-15 -26l-3 -48l-22 -26
l-14 -51l-6 -7l-12 -56l-24 -19l-18 -101l-33 -42v-50l11 -26v-20h-11l-13 14l-33 -8l-28 -24l-65 -4l-23 -12l-7 2l-54 36l-18 4l-22 32l-8 27v47l30 24l28 10l46 -12l20 -29l-4 -27l-2 -6v-7l10 -7l21 7l36 47l13 40l4 57l-18 63l-12 18l-26 87l-31 65l-6 15l-21 23l-4 19
l-6 7l-28 -3l-31 13l-8 10l2 7l11 17l20 14l38 4l10 5l28 -5l26 5l47 -9l27 -21v-17l-23 -16l-12 -4l-13 -14v-35l19 -40l2 -31l5 -28l40 -46l8 -2l14 2l24 34l16 17l4 27l-4 25l22 50l-20 34l-4 5l-25 -1l-17 27v22l4 6h16l14 -8l19 8l33 6l32 13l29 -9l50 11h23z" />
    <glyph glyph-name="FLW161" unicode="&#x40e;" 
d="M389 768l65 -26l-8 -66l-19 -10l-38 4h-21l-38 -32h-20l-19 20l-32 -6h-21l-6 18h-38l-22 -18v6l8 8l-32 18l-19 24v27l19 19l24 -12l14 -34l19 -19h13l8 9v-9l44 -5h8l13 -14l57 38l28 55zM498 593l42 -46v-13l-42 -27h-25l-21 -21l-12 -2l-15 -26l-3 -48l-22 -26
l-14 -51l-6 -7l-12 -56l-24 -19l-18 -101l-33 -42v-50l11 -26v-20h-11l-13 14l-33 -8l-28 -24l-65 -4l-23 -12l-7 2l-54 36l-18 4l-22 32l-8 27v47l30 24l28 10l46 -12l20 -29l-4 -27l-2 -6v-7l10 -7l21 7l36 47l13 40l4 57l-18 63l-12 18l-26 87l-31 65l-6 15l-21 23l-4 19
l-6 7l-28 -3l-31 13l-8 10l2 7l11 17l20 14l38 4l10 5l28 -5l26 5l47 -9l27 -21v-17l-23 -16l-12 -4l-13 -14v-35l19 -40l2 -31l5 -28l40 -46l8 -2l14 2l24 34l16 17l4 27l-4 25l22 50l-20 34l-4 5l-25 -1l-17 27v22l4 6h16l14 -8l19 8l33 6l32 13l29 -9l50 11h23z" />
    <glyph glyph-name="FLW162" unicode="&#xa2;" 
d="M383 608l65 -26l-8 -66l-19 -10l-38 5h-21l-38 -33h-20l-20 20l-31 -6h-21l-6 19h-38l-22 -19v6l8 8l-32 18l-19 25v27l19 19l24 -13l13 -33l19 -19h14l8 8v-8l43 -6h9l12 -13l58 38l28 54zM596 381v-21l-16 18l-19 -18h-25l-27 -26h-27l-47 -56l-4 -14l-13 -9l-4 -13
l4 -31v-17l-22 -32l2 -10l18 -12l-2 -6l-38 -28l-10 -12v-49l-4 -13l6 -27l7 -13l-9 -22l-16 12h-15l-9 -8v-9l9 -9l19 6l21 -26l-5 -22l-14 -9l-12 2l-9 21l-9 6l-8 -6l-4 -6v-42l4 -11l8 -7h18l14 13h8v-19l-16 -16l-24 14h-44l-25 -40l-27 12l-56 -31l-26 7l-14 6l-36 6
l-51 42l-5 56l1 42l13 28l35 25l21 -2l40 -23l22 -35v-9l-9 -6v-7l9 -7l22 2h8l6 8v16l20 3l8 7l-2 26l16 8l9 8l-4 58l-29 58l-5 22l5 24l-5 8l-20 13l-7 13l-2 27l-40 39v44l-33 32l-49 6l-21 7l-8 11l6 23l13 19l27 12l87 -4l14 -4h52l26 -17l29 -6l19 17h12l16 10l64 8
l20 -14l72 17l28 -5l21 -21l27 5zM344 300l18 2v10l-31 20l-43 8l-18 -20h-9l-19 18l-8 -4l-4 -32l6 -18l12 -4l13 4l4 -4l3 -20l-5 -5l-15 -2v-7l15 -22l2 -26l23 -32l26 -12l4 32l19 33v28l-6 35z" />
    <glyph glyph-name="FLW162" unicode="&#x45e;" 
d="M383 608l65 -26l-8 -66l-19 -10l-38 5h-21l-38 -33h-20l-20 20l-31 -6h-21l-6 19h-38l-22 -19v6l8 8l-32 18l-19 25v27l19 19l24 -13l13 -33l19 -19h14l8 8v-8l43 -6h9l12 -13l58 38l28 54zM596 381v-21l-16 18l-19 -18h-25l-27 -26h-27l-47 -56l-4 -14l-13 -9l-4 -13
l4 -31v-17l-22 -32l2 -10l18 -12l-2 -6l-38 -28l-10 -12v-49l-4 -13l6 -27l7 -13l-9 -22l-16 12h-15l-9 -8v-9l9 -9l19 6l21 -26l-5 -22l-14 -9l-12 2l-9 21l-9 6l-8 -6l-4 -6v-42l4 -11l8 -7h18l14 13h8v-19l-16 -16l-24 14h-44l-25 -40l-27 12l-56 -31l-26 7l-14 6l-36 6
l-51 42l-5 56l1 42l13 28l35 25l21 -2l40 -23l22 -35v-9l-9 -6v-7l9 -7l22 2h8l6 8v16l20 3l8 7l-2 26l16 8l9 8l-4 58l-29 58l-5 22l5 24l-5 8l-20 13l-7 13l-2 27l-40 39v44l-33 32l-49 6l-21 7l-8 11l6 23l13 19l27 12l87 -4l14 -4h52l26 -17l29 -6l19 17h12l16 10l64 8
l20 -14l72 17l28 -5l21 -21l27 5zM344 300l18 2v10l-31 20l-43 8l-18 -20h-9l-19 18l-8 -4l-4 -32l6 -18l12 -4l13 4l4 -4l3 -20l-5 -5l-15 -2v-7l15 -22l2 -26l23 -32l26 -12l4 32l19 33v28l-6 35z" />
    <glyph glyph-name="FLW165" unicode="&#xa5;" 
d="M574 550l18 -22l-6 -67l-2 -7l-6 -4h-6l-28 58l-14 6l-20 -4l-10 -10l10 -30l-12 -26l-14 -27l-32 -15l-26 6l-12 32l-24 10v18l4 8l-2 14l-22 18l-44 -14v-68l-8 -22v-61l-6 -34l6 -21v-48l6 -58l-12 -76v-12l4 -14l34 -24l16 -7l21 -21h17v-12l-30 -9l-48 -25h-34
l-12 -6l-26 2l-16 8l-26 -8l-54 10l-20 -8l-51 -4l-34 24l-21 28v19l48 27l24 6l36 47l-8 67l14 26l-6 40l4 39v25l-6 13l8 65l-8 26v54l-20 21h-44l-25 47v32l7 8l37 3l13 4h40l4 4l30 -6l30 6l80 -8h84l11 4l36 -7h31l62 -27l12 -2l6 -11l6 -6l27 6h9zM278 240l12 28
l-6 31l6 13l-12 44v48l-6 26l4 33l-16 27h-10l-6 -14l3 -10v-32l-11 -26l8 -27l-8 -17l-2 -201l-8 -27l6 -20l-6 -27l6 -9l15 -4l21 7v40l4 11l4 40l-4 29zM414 826l6 -14l-18 -38h-22l-38 -34l-30 -32l-28 -21l6 -19l-22 -21l-6 -21l-16 -14l-34 19l-6 -5h-10l-36 59l24 19
l4 26l33 54l21 10l42 58l88 47l20 -35l18 -16l10 -22h-6z" />
    <glyph glyph-name="FLW165" unicode="&#x490;" 
d="M574 550l18 -22l-6 -67l-2 -7l-6 -4h-6l-28 58l-14 6l-20 -4l-10 -10l10 -30l-12 -26l-14 -27l-32 -15l-26 6l-12 32l-24 10v18l4 8l-2 14l-22 18l-44 -14v-68l-8 -22v-61l-6 -34l6 -21v-48l6 -58l-12 -76v-12l4 -14l34 -24l16 -7l21 -21h17v-12l-30 -9l-48 -25h-34
l-12 -6l-26 2l-16 8l-26 -8l-54 10l-20 -8l-51 -4l-34 24l-21 28v19l48 27l24 6l36 47l-8 67l14 26l-6 40l4 39v25l-6 13l8 65l-8 26v54l-20 21h-44l-25 47v32l7 8l37 3l13 4h40l4 4l30 -6l30 6l80 -8h84l11 4l36 -7h31l62 -27l12 -2l6 -11l6 -6l27 6h9zM278 240l12 28
l-6 31l6 13l-12 44v48l-6 26l4 33l-16 27h-10l-6 -14l3 -10v-32l-11 -26l8 -27l-8 -17l-2 -201l-8 -27l6 -20l-6 -27l6 -9l15 -4l21 7v40l4 11l4 40l-4 29zM414 826l6 -14l-18 -38h-22l-38 -34l-30 -32l-28 -21l6 -19l-22 -21l-6 -21l-16 -14l-34 19l-6 -5h-10l-36 59l24 19
l4 26l33 54l21 10l42 58l88 47l20 -35l18 -16l10 -22h-6z" />
    <glyph glyph-name="FLW168" unicode="&#xa8;" 
d="M314 698v-6h-11v8h6zM476 712l12 -27l-4 -25v-8l-23 -16l-43 -8h-29l-35 21l-7 23l7 36l20 17l36 23l21 -2l32 -31zM510 171l10 -63l-12 -62l-28 -53l-13 -7h-31l-13 -4l-67 2h-26l-27 -4l-35 4l-61 -2l-21 4l-17 -2l-13 -6l-29 8l-34 -4l-13 -10l-18 2l-29 30l-11 26v16
l60 26h38l15 19l11 40l-4 109l-2 194l6 25l-6 48l-13 13l-59 2l-22 26l1 26l15 20l12 7h21l15 25l-2 15l-24 35l9 26l15 23l40 29l46 -2l13 -10l15 -30l16 -20l-31 -58l-31 -16l-7 -8l4 -9l15 -9h128l27 -18l37 6l20 12l36 -6l58 -8l14 -6l8 -11l4 -92l-4 -82l-16 -15l-20 2
l-17 24l-7 50l-2 8l-10 26l-15 25l-21 19l-65 -4l-15 -10l-19 2l-13 12h-32l-26 -14l-10 -14v-31l-6 -69l-6 -20l10 -33l12 -11l69 11l15 15l8 65l24 13l12 -4l17 -26l-3 -66v-22l12 -36v-30l4 -14l-13 -46l-15 -16l-27 6l-13 27l-8 43l-11 18l-9 6l-44 6l-34 -12l-6 -6
l10 -61q-1 10 -6 10l-5 -10q-5 -10 -1 -30l6 -31v-18l-6 -20v-8l22 -34l71 -4l36 6l44 -4h17l23 10l29 90l18 26l6 19l14 11l20 -5l6 -13z" />
    <glyph glyph-name="FLW168" unicode="&#x401;" 
d="M314 698v-6h-11v8h6zM476 712l12 -27l-4 -25v-8l-23 -16l-43 -8h-29l-35 21l-7 23l7 36l20 17l36 23l21 -2l32 -31zM510 171l10 -63l-12 -62l-28 -53l-13 -7h-31l-13 -4l-67 2h-26l-27 -4l-35 4l-61 -2l-21 4l-17 -2l-13 -6l-29 8l-34 -4l-13 -10l-18 2l-29 30l-11 26v16
l60 26h38l15 19l11 40l-4 109l-2 194l6 25l-6 48l-13 13l-59 2l-22 26l1 26l15 20l12 7h21l15 25l-2 15l-24 35l9 26l15 23l40 29l46 -2l13 -10l15 -30l16 -20l-31 -58l-31 -16l-7 -8l4 -9l15 -9h128l27 -18l37 6l20 12l36 -6l58 -8l14 -6l8 -11l4 -92l-4 -82l-16 -15l-20 2
l-17 24l-7 50l-2 8l-10 26l-15 25l-21 19l-65 -4l-15 -10l-19 2l-13 12h-32l-26 -14l-10 -14v-31l-6 -69l-6 -20l10 -33l12 -11l69 11l15 15l8 65l24 13l12 -4l17 -26l-3 -66v-22l12 -36v-30l4 -14l-13 -46l-15 -16l-27 6l-13 27l-8 43l-11 18l-9 6l-44 6l-34 -12l-6 -6
l10 -61q-1 10 -6 10l-5 -10q-5 -10 -1 -30l6 -31v-18l-6 -20v-8l22 -34l71 -4l36 6l44 -4h17l23 10l29 90l18 26l6 19l14 11l20 -5l6 -13z" />
    <glyph glyph-name="FLW170" unicode="&#xaa;" 
d="M462 140l6 -32l-22 -57l-54 -52l-22 -4l-31 -17l-36 -6h-38l-35 -8l-18 14l-32 4l-26 26l-14 4l-17 36l-7 47l-10 9l-23 27l-7 76l-20 27v90l10 60l17 30l19 80l44 44l21 2l23 13l36 12l26 3l7 12h13l54 -26l53 -14l31 28h18l22 -14l4 -74l-12 -26l8 -44l-14 -66h-17
l-40 40l-4 30l-13 30l-50 36l-20 8v19l-10 7h-12l-11 -14l-31 3l-48 -19l-40 -57v-43l-8 -10l-16 -43l7 -13l57 -20l18 14l21 6l27 -11l50 -9l12 -14l4 -12l-13 -17l-53 -8l-56 8l-36 -27l-22 6l-9 -10v-57l27 -39v-20l22 -30h34l10 -20l36 -7l47 -7l9 7v7l27 24v13l13 33
l27 39l39 8h28z" />
    <glyph glyph-name="FLW170" unicode="&#x404;" 
d="M462 140l6 -32l-22 -57l-54 -52l-22 -4l-31 -17l-36 -6h-38l-35 -8l-18 14l-32 4l-26 26l-14 4l-17 36l-7 47l-10 9l-23 27l-7 76l-20 27v90l10 60l17 30l19 80l44 44l21 2l23 13l36 12l26 3l7 12h13l54 -26l53 -14l31 28h18l22 -14l4 -74l-12 -26l8 -44l-14 -66h-17
l-40 40l-4 30l-13 30l-50 36l-20 8v19l-10 7h-12l-11 -14l-31 3l-48 -19l-40 -57v-43l-8 -10l-16 -43l7 -13l57 -20l18 14l21 6l27 -11l50 -9l12 -14l4 -12l-13 -17l-53 -8l-56 8l-36 -27l-22 6l-9 -10v-57l27 -39v-20l22 -30h34l10 -20l36 -7l47 -7l9 7v7l27 24v13l13 33
l27 39l39 8h28z" />
    <glyph glyph-name="FLW178" unicode="&#xb2;" 
d="M478 70l31 -33l-25 -38l-22 -15h-36l-70 -4v4h-61l-7 -4h-14l-8 10l-18 -6v-4h-12l2 4l-12 9l-34 -9l-13 6l-27 -10l-10 4l-16 15h-34l-5 29l-9 5l5 13v3l38 15l21 4h16l34 12h16l9 -10l5 7l8 -7l6 -2l8 12l-6 6h6l4 16v31l-4 40h4v13l-4 2l8 10v34l5 6v6l-9 10l9 22
l-5 18v112l8 27l-8 7l5 23l3 5l-8 9v21l-39 5h-8l-9 -9l4 -4h-14v4l-44 4l-28 5l-19 17v35h5l4 4l26 13l70 4l-4 -4l52 -4l12 8h49l30 -4l8 8l28 6l12 -10l25 4l62 -8v-4l10 -9l-6 -31l-16 -16h-14l-36 -14l-8 8l-4 -3l-9 9l-21 -9v-5h-10l-13 14l-21 -9h-4v-19l9 -28
l-5 -23l-4 -5l9 -12l-9 -10l9 -186l8 -70l-4 -4l4 -4l15 -62l25 6h12v-6l40 -3z" />
    <glyph glyph-name="FLW178" unicode="&#x406;" 
d="M478 70l31 -33l-25 -38l-22 -15h-36l-70 -4v4h-61l-7 -4h-14l-8 10l-18 -6v-4h-12l2 4l-12 9l-34 -9l-13 6l-27 -10l-10 4l-16 15h-34l-5 29l-9 5l5 13v3l38 15l21 4h16l34 12h16l9 -10l5 7l8 -7l6 -2l8 12l-6 6h6l4 16v31l-4 40h4v13l-4 2l8 10v34l5 6v6l-9 10l9 22
l-5 18v112l8 27l-8 7l5 23l3 5l-8 9v21l-39 5h-8l-9 -9l4 -4h-14v4l-44 4l-28 5l-19 17v35h5l4 4l26 13l70 4l-4 -4l52 -4l12 8h49l30 -4l8 8l28 6l12 -10l25 4l62 -8v-4l10 -9l-6 -31l-16 -16h-14l-36 -14l-8 8l-4 -3l-9 9l-21 -9v-5h-10l-13 14l-21 -9h-4v-19l9 -28
l-5 -23l-4 -5l9 -12l-9 -10l9 -186l8 -70l-4 -4l4 -4l15 -62l25 6h12v-6l40 -3z" />
    <glyph glyph-name="FLW179" unicode="&#xb3;" 
d="M350 545l4 -38l-28 -21h-6l-4 2l-6 -2h-38l-30 2l-4 50v13l-4 -4l-2 7l6 -3l13 21h4l13 12l4 -2h4l27 12l35 -18zM502 41l9 -9l-6 -16l-9 -18l-22 -10l-43 -4v4l-17 10l-18 -4h-59l-5 -6l-10 10l-22 -10h-38l-26 -12l-14 8l-8 10l-4 -6l-75 6v4l-3 3l-5 -3l-23 3l-12 6
l-9 25l5 30l22 14h25l13 9l62 -4h47v29l-7 15h-10l4 7h6l3 -4l13 22l-4 4l10 65l-6 17l-4 78h4l10 40v4l-14 12l-12 -2l-28 -26l-8 12l-14 14h-25l-9 -10h-22l-17 22l5 6l-5 3l-8 13l4 31h12v9l44 -9l5 3v-3l78 -9h10l4 -4l8 9l34 -5l19 -35v-99l3 -40v-31l-8 -16l5 -66
l3 -21l9 -28v-3l9 -9l22 5l26 4h61l25 -4l13 -21l-3 -15v-4z" />
    <glyph glyph-name="FLW179" unicode="&#x456;" 
d="M350 545l4 -38l-28 -21h-6l-4 2l-6 -2h-38l-30 2l-4 50v13l-4 -4l-2 7l6 -3l13 21h4l13 12l4 -2h4l27 12l35 -18zM502 41l9 -9l-6 -16l-9 -18l-22 -10l-43 -4v4l-17 10l-18 -4h-59l-5 -6l-10 10l-22 -10h-38l-26 -12l-14 8l-8 10l-4 -6l-75 6v4l-3 3l-5 -3l-23 3l-12 6
l-9 25l5 30l22 14h25l13 9l62 -4h47v29l-7 15h-10l4 7h6l3 -4l13 22l-4 4l10 65l-6 17l-4 78h4l10 40v4l-14 12l-12 -2l-28 -26l-8 12l-14 14h-25l-9 -10h-22l-17 22l5 6l-5 3l-8 13l4 31h12v9l44 -9l5 3v-3l78 -9h10l4 -4l8 9l34 -5l19 -35v-99l3 -40v-31l-8 -16l5 -66
l3 -21l9 -28v-3l9 -9l22 5l26 4h61l25 -4l13 -21l-3 -15v-4z" />
    <glyph glyph-name="FLW180" unicode="&#xb4;" 
d="M503 383v-21l-11 -14l4 -36l-4 -19l-16 -21l-8 -13l-28 -17l-6 -14v-5l-7 9l-4 16l-9 11h-31l-6 29l10 34l-10 13l-34 4h-7v2l-6 5h-2l-6 -13l-36 2l-16 -2l-14 -19v-42l-8 -13l-1 -51l7 -12l-4 -15l-3 -5l1 -26l12 -18l-20 -36l-4 -28l14 -16l53 -3l17 -19v-25l-26 -23
l-71 4h-20l-55 -4l-14 6l-18 -6l-22 10l-12 24v20l26 30l2 13l23 13l13 -4l10 8l-8 25l13 21l6 32l-6 14l6 31l-6 107l-5 9l-8 8l-42 5l-23 14l-7 15l4 13l47 36l67 -4l54 -1l133 1l15 8l27 -8h33zM414 683l6 -15l-18 -37h-22l-38 -35l-30 -31l-28 -21l6 -18l-22 -22l-6 -22
l-16 -13l-34 19l-6 -6h-10l-36 60l24 18l4 27l33 54l21 9l42 58l88 48l20 -35l18 -17l10 -21h-6z" />
    <glyph glyph-name="FLW180" unicode="&#x491;" 
d="M503 383v-21l-11 -14l4 -36l-4 -19l-16 -21l-8 -13l-28 -17l-6 -14v-5l-7 9l-4 16l-9 11h-31l-6 29l10 34l-10 13l-34 4h-7v2l-6 5h-2l-6 -13l-36 2l-16 -2l-14 -19v-42l-8 -13l-1 -51l7 -12l-4 -15l-3 -5l1 -26l12 -18l-20 -36l-4 -28l14 -16l53 -3l17 -19v-25l-26 -23
l-71 4h-20l-55 -4l-14 6l-18 -6l-22 10l-12 24v20l26 30l2 13l23 13l13 -4l10 8l-8 25l13 21l6 32l-6 14l6 31l-6 107l-5 9l-8 8l-42 5l-23 14l-7 15l4 13l47 36l67 -4l54 -1l133 1l15 8l27 -8h33zM414 683l6 -15l-18 -37h-22l-38 -35l-30 -31l-28 -21l6 -18l-22 -22l-6 -22
l-16 -13l-34 19l-6 -6h-10l-36 60l24 18l4 27l33 54l21 9l42 58l88 48l20 -35l18 -17l10 -21h-6z" />
    <glyph glyph-name="FLW184" unicode="&#xb8;" 
d="M202 546l11 -14l-4 -26l-30 -42l-8 -20l-17 -9l-23 7l-43 20l-6 6v78l22 18l18 6l24 16l16 -4l18 -25zM456 532l13 -34l-2 -21l-32 -29l-35 -13l-18 2l-40 45l-2 56l18 17l35 15l36 -8zM460 250l5 -42l-13 -27l-17 -11h-84l-13 11l-102 -11l-21 7h-27l-13 7l-17 -3
l-25 -31v-16l13 -22l6 -29l28 -33l42 -9h58l20 7h40l60 66h29l17 -24l-4 -32l-22 -28l-66 -46l-28 -10l-14 -11h-54l-16 -5l-16 3l-19 13l-34 8l-19 8l-61 60l-25 60l-12 46l4 74l26 73l5 19l40 42l9 13l39 21l17 21l48 -5h38l20 -6l38 2l32 -28l15 -5l51 -67l4 -40z
M374 238l8 17l-22 53l-27 18l-97 13l-29 -15l-23 -8l-17 -12l-15 -49l6 -11h51l27 -2h48l49 -4l25 -10z" />
    <glyph glyph-name="FLW184" unicode="&#x451;" 
d="M202 546l11 -14l-4 -26l-30 -42l-8 -20l-17 -9l-23 7l-43 20l-6 6v78l22 18l18 6l24 16l16 -4l18 -25zM456 532l13 -34l-2 -21l-32 -29l-35 -13l-18 2l-40 45l-2 56l18 17l35 15l36 -8zM460 250l5 -42l-13 -27l-17 -11h-84l-13 11l-102 -11l-21 7h-27l-13 7l-17 -3
l-25 -31v-16l13 -22l6 -29l28 -33l42 -9h58l20 7h40l60 66h29l17 -24l-4 -32l-22 -28l-66 -46l-28 -10l-14 -11h-54l-16 -5l-16 3l-19 13l-34 8l-19 8l-61 60l-25 60l-12 46l4 74l26 73l5 19l40 42l9 13l39 21l17 21l48 -5h38l20 -6l38 2l32 -28l15 -5l51 -67l4 -40z
M374 238l8 17l-22 53l-27 18l-97 13l-29 -15l-23 -8l-17 -12l-15 -49l6 -11h51l27 -2h48l49 -4l25 -10z" />
    <glyph glyph-name="FLW185" unicode="&#xb9;" 
d="M555 526l11 -36l-4 -82l-3 -19l-4 -61l-15 -32l-19 -20l-2 -11l-6 -5h-21l-8 -8l-72 -3l-56 60l-8 19l-2 66l-20 40l13 38l-17 22v18l-6 4l-8 -8l-2 -28l-20 -26l9 -31l-5 -101l-10 -17l2 -25l11 -20l-7 -114v-30l9 -23l-13 -95l-21 -14l-23 2l-12 30l-28 26l-10 40
l-16 112l-9 53l-9 29l-8 13l-10 -3l-13 -24v-34l-9 -14v-74l7 -13l-7 -27l7 -18l-7 -35l26 -27v-20l-17 -12l-55 -6l-54 12l-9 12l4 27l27 20l11 32l-6 42l-5 19l5 42l-7 46v18l13 22l-2 115l-6 11l6 23l7 11l-7 66l-11 14l-22 2l-16 26l5 32l11 16h35l19 11l34 -11l14 4h9
l27 -26l18 -3l24 15l27 -6l21 8l32 4l10 4l26 -8l40 -23h8l19 15h21l30 20l26 5h16l18 -13l27 -4zM553 194v-27l-19 -19l-32 -8l-14 -7l-20 2l-16 13l-52 -8h-30l-18 12l-11 13v21l19 34l8 6l28 -17h50l20 11l82 -20zM546 89v-23l-25 -21l-149 -3l-26 30v17l26 23l40 -6
l30 6h46l18 4l18 -2zM479 345l23 71l-8 18l-6 40l-13 26h-7l-26 6v-24l-14 -19h-14l-6 -36l4 -33l-6 -18l-4 -27l10 -27l23 -4l21 16zM228 427l6 76l-8 18h-10l-35 5l-2 -18l-21 -22v-10l3 -17l25 -32l2 -53l12 -27l14 7l5 -5v-8l-3 -15l10 -44l2 4v106l-7 22zM228 222v4
l-2 8z" />
    <glyph glyph-name="FLW185" unicode="&#x2116;" 
d="M555 526l11 -36l-4 -82l-3 -19l-4 -61l-15 -32l-19 -20l-2 -11l-6 -5h-21l-8 -8l-72 -3l-56 60l-8 19l-2 66l-20 40l13 38l-17 22v18l-6 4l-8 -8l-2 -28l-20 -26l9 -31l-5 -101l-10 -17l2 -25l11 -20l-7 -114v-30l9 -23l-13 -95l-21 -14l-23 2l-12 30l-28 26l-10 40
l-16 112l-9 53l-9 29l-8 13l-10 -3l-13 -24v-34l-9 -14v-74l7 -13l-7 -27l7 -18l-7 -35l26 -27v-20l-17 -12l-55 -6l-54 12l-9 12l4 27l27 20l11 32l-6 42l-5 19l5 42l-7 46v18l13 22l-2 115l-6 11l6 23l7 11l-7 66l-11 14l-22 2l-16 26l5 32l11 16h35l19 11l34 -11l14 4h9
l27 -26l18 -3l24 15l27 -6l21 8l32 4l10 4l26 -8l40 -23h8l19 15h21l30 20l26 5h16l18 -13l27 -4zM553 194v-27l-19 -19l-32 -8l-14 -7l-20 2l-16 13l-52 -8h-30l-18 12l-11 13v21l19 34l8 6l28 -17h50l20 11l82 -20zM546 89v-23l-25 -21l-149 -3l-26 30v17l26 23l40 -6
l30 6h46l18 4l18 -2zM479 345l23 71l-8 18l-6 40l-13 26h-7l-26 6v-24l-14 -19h-14l-6 -36l4 -33l-6 -18l-4 -27l10 -27l23 -4l21 16zM228 427l6 76l-8 18h-10l-35 5l-2 -18l-21 -22v-10l3 -17l25 -32l2 -53l12 -27l14 7l5 -5v-8l-3 -15l10 -44l2 4v106l-7 22zM228 222v4
l-2 8z" />
    <glyph glyph-name="FLW186" unicode="&#xba;" 
d="M442 154l12 -31l-2 -47l-14 -18l-20 -7l-34 -48l-26 -3l-32 -28h-14l-30 8l-56 -6l-22 22l-50 16l-28 52l18 20l-13 24l-25 -2l-8 29l-2 38l-6 53l10 22l27 22l-15 14l-18 2l18 15l13 17l-15 17l4 40l13 25l23 2l42 15l30 23h27l59 -5l14 -11l30 -20l30 22l53 4l9 -10
l6 -30l-4 -106l-26 -40l-27 2l-45 28l-24 40l-19 35l-33 1l-28 -24h-12l-27 -17l-23 -43l14 -18l30 3l12 -9l42 11l42 -27l2 -36l-8 -9l-17 -2l-19 -18l-48 7h-13l-27 -5l-10 -30l4 -31l34 -11l26 -29l14 12l29 -6l19 -10l41 18l17 19l2 47l11 22l11 12l52 -15v-7z" />
    <glyph glyph-name="FLW186" unicode="&#x454;" 
d="M442 154l12 -31l-2 -47l-14 -18l-20 -7l-34 -48l-26 -3l-32 -28h-14l-30 8l-56 -6l-22 22l-50 16l-28 52l18 20l-13 24l-25 -2l-8 29l-2 38l-6 53l10 22l27 22l-15 14l-18 2l18 15l13 17l-15 17l4 40l13 25l23 2l42 15l30 23h27l59 -5l14 -11l30 -20l30 22l53 4l9 -10
l6 -30l-4 -106l-26 -40l-27 2l-45 28l-24 40l-19 35l-33 1l-28 -24h-12l-27 -17l-23 -43l14 -18l30 3l12 -9l42 11l42 -27l2 -36l-8 -9l-17 -2l-19 -18l-48 7h-13l-27 -5l-10 -30l4 -31l34 -11l26 -29l14 12l29 -6l19 -10l41 18l17 19l2 47l11 22l11 12l52 -15v-7z" />
    <glyph glyph-name="FLW188" unicode="&#xbc;" 
d="M461 704l3 -52l-34 -28l-30 2l-14 10l-30 47v13l12 8l-4 19h4l10 9l5 -5l7 8l36 5l16 -8l10 -18zM212 727l14 -25l-10 -19l5 -3l-12 -10l-9 -22l-6 -3l10 -9l-26 -5l-5 -5v-8l-17 13l-22 9v22l-12 8l-6 34l13 19l52 9zM478 70l31 -33l-25 -38l-22 -15h-36l-70 -4v4h-61
l-7 -4h-14l-8 10l-18 -6v-4h-12l2 4l-12 9l-34 -9l-13 6l-27 -10l-10 4l-16 15h-34l-5 29l-9 5l5 13v3l38 15l21 4h16l34 12h16l9 -10l5 7l8 -7l6 -2l8 12l-6 6h6l4 16v31l-4 40h4v13l-4 2l8 10v34l5 6v6l-9 10l9 22l-5 18v112l8 27l-8 7l5 23l3 5l-8 9v21l-39 5h-8l-9 -9
l4 -4h-14v4l-44 4l-28 5l-19 17v35h5l4 4l26 13l70 4l-4 -4l52 -4l12 8h49l30 -4l8 8l28 6l12 -10l25 4l62 -8v-4l10 -9l-6 -31l-16 -16h-14l-36 -14l-8 8l-4 -3l-9 9l-21 -9v-5h-10l-13 14l-21 -9h-4v-19l9 -28l-5 -23l-4 -5l9 -12l-9 -10l9 -186l8 -70l-4 -4l4 -4l15 -62
l25 6h12v-6l40 -3z" />
    <glyph glyph-name="FLW188" unicode="&#x458;" 
d="M461 704l3 -52l-34 -28l-30 2l-14 10l-30 47v13l12 8l-4 19h4l10 9l5 -5l7 8l36 5l16 -8l10 -18zM212 727l14 -25l-10 -19l5 -3l-12 -10l-9 -22l-6 -3l10 -9l-26 -5l-5 -5v-8l-17 13l-22 9v22l-12 8l-6 34l13 19l52 9zM478 70l31 -33l-25 -38l-22 -15h-36l-70 -4v4h-61
l-7 -4h-14l-8 10l-18 -6v-4h-12l2 4l-12 9l-34 -9l-13 6l-27 -10l-10 4l-16 15h-34l-5 29l-9 5l5 13v3l38 15l21 4h16l34 12h16l9 -10l5 7l8 -7l6 -2l8 12l-6 6h6l4 16v31l-4 40h4v13l-4 2l8 10v34l5 6v6l-9 10l9 22l-5 18v112l8 27l-8 7l5 23l3 5l-8 9v21l-39 5h-8l-9 -9
l4 -4h-14v4l-44 4l-28 5l-19 17v35h5l4 4l26 13l70 4l-4 -4l52 -4l12 8h49l30 -4l8 8l28 6l12 -10l25 4l62 -8v-4l10 -9l-6 -31l-16 -16h-14l-36 -14l-8 8l-4 -3l-9 9l-21 -9v-5h-10l-13 14l-21 -9h-4v-19l9 -28l-5 -23l-4 -5l9 -12l-9 -10l9 -186l8 -70l-4 -4l4 -4l15 -62
l25 6h12v-6l40 -3z" />
    <glyph glyph-name="FLW189" unicode="&#xbd;" 
d="M478 152l12 -17l-2 5l-19 -54v-8h-3l-10 -26v-4l-8 -9l2 -5l-21 -8l-17 -21l-16 -9l-14 4h-12l-6 -4l-50 -5l-22 -13l-14 8l-14 14l-38 -4l-28 22l-14 8l-28 -18v-8h-48l-8 8l-13 26l9 30l-6 22v9h6l8 26l-8 52v40l8 13l30 -4v-5l31 -17v-21l12 -39h9v-10l31 -26h9l4 -18
l48 -16l4 4l10 -10h16l6 6v8l42 5l16 25l19 10v8l17 16l-4 6l13 22l-9 16l18 19v3l-4 5h4l3 4l-7 13l4 6l-18 16v5l-12 3l-54 22h-16l-12 9l-6 -3h-53l-29 16l-14 -4h-16l-6 4l-13 27l-21 4l-26 31l-5 4h-7l3 5l-13 21v16l-12 19v31l-9 7l13 9v12h8l10 10l-6 5l9 7v16l4 -7
l19 13v15l21 12l12 -5l21 14l7 -5l25 17l4 -4l18 14l26 -10l8 -4l9 -8l44 -5l25 -13h15l3 -12l26 -22h4l5 31l5 21h26l12 -9l6 -31h-6l-16 -30l12 -22l-6 -16l10 -10l-4 -48l-12 -13h-9l-13 31l-5 -4v13l-13 13l-4 21l-4 -3l-5 22l-9 4l-12 8h-6l-4 -6v6l-9 4l-12 9l-4 -4
l-27 25l-22 -2v2l-16 4h-15l-17 -6l-4 -7l8 -9l-30 -12l-28 5v4l-10 9h-6v-13l6 -5l-9 -10v-12l-9 -9l-4 -21l13 -23l-9 -7l5 -27l16 -16l31 -15l4 6l18 -12v-7l4 -3h4l4 3l19 9l3 -2l10 6l77 -29l40 4l17 -13l21 -40h9v-4l18 -4l13 -30l-3 -6l16 -16l6 -17h-6v-44l6 -5h-6z
" />
    <glyph glyph-name="FLW189" unicode="&#x405;" 
d="M478 152l12 -17l-2 5l-19 -54v-8h-3l-10 -26v-4l-8 -9l2 -5l-21 -8l-17 -21l-16 -9l-14 4h-12l-6 -4l-50 -5l-22 -13l-14 8l-14 14l-38 -4l-28 22l-14 8l-28 -18v-8h-48l-8 8l-13 26l9 30l-6 22v9h6l8 26l-8 52v40l8 13l30 -4v-5l31 -17v-21l12 -39h9v-10l31 -26h9l4 -18
l48 -16l4 4l10 -10h16l6 6v8l42 5l16 25l19 10v8l17 16l-4 6l13 22l-9 16l18 19v3l-4 5h4l3 4l-7 13l4 6l-18 16v5l-12 3l-54 22h-16l-12 9l-6 -3h-53l-29 16l-14 -4h-16l-6 4l-13 27l-21 4l-26 31l-5 4h-7l3 5l-13 21v16l-12 19v31l-9 7l13 9v12h8l10 10l-6 5l9 7v16l4 -7
l19 13v15l21 12l12 -5l21 14l7 -5l25 17l4 -4l18 14l26 -10l8 -4l9 -8l44 -5l25 -13h15l3 -12l26 -22h4l5 31l5 21h26l12 -9l6 -31h-6l-16 -30l12 -22l-6 -16l10 -10l-4 -48l-12 -13h-9l-13 31l-5 -4v13l-13 13l-4 21l-4 -3l-5 22l-9 4l-12 8h-6l-4 -6v6l-9 4l-12 9l-4 -4
l-27 25l-22 -2v2l-16 4h-15l-17 -6l-4 -7l8 -9l-30 -12l-28 5v4l-10 9h-6v-13l6 -5l-9 -10v-12l-9 -9l-4 -21l13 -23l-9 -7l5 -27l16 -16l31 -15l4 6l18 -12v-7l4 -3h4l4 3l19 9l3 -2l10 6l77 -29l40 4l17 -13l21 -40h9v-4l18 -4l13 -30l-3 -6l16 -16l6 -17h-6v-44l6 -5h-6z
" />
    <glyph glyph-name="FLW190" unicode="&#xbe;" 
d="M475 176v-34l-4 -32v-12l-31 -30v-10l-3 6l-39 -40l-44 -8l-4 -4l-32 -10l-8 -9l-4 6l-12 -9l-28 22l-3 -6h-13l-10 10l-4 -4l-22 12l-38 -4l-49 -14h-13l-25 31v33l3 44l6 19l4 3l-4 6l-6 16v15l6 7l8 14l21 4l21 -22v-9l22 -17h9l-3 -4l22 -10h12l4 -12l-7 -14l21 -12
l12 4l14 8l18 -17l-6 -16l6 -7h8l4 16h32l6 -9h6l13 12l-4 13l4 6l13 -15l18 5l9 44l17 8l4 4v4l-4 6l-5 12l-35 26l-17 5l-23 16l-2 -3h-15l-7 8l-6 -5l-38 -7l-18 7l-44 5l-40 31h-6l-6 -5l-22 30l-8 36l-4 26v14l34 56l12 3l71 27l21 -6l4 -3l10 9l30 -9h26l22 -18l30 -3
l10 -14h9l17 26h4l8 9l18 -4l3 -5h6l-4 4l5 3l2 -2l-3 -5v-9l3 -3l12 -31l-12 -35l-3 -4l9 -8h-6v-14l10 -21l-10 -14h-21l5 5l-31 30l-9 26l-56 43l-27 -3v3l-21 5l-23 4h-21l-22 -4l-44 -36l-7 -8l13 -16v-10h-6l-3 4l-9 -12l9 -10v-16l21 -18h52l23 -4l43 -4v-5l22 -12
l16 8l49 -5l31 -26h16l10 -26z" />
    <glyph glyph-name="FLW190" unicode="&#x455;" 
d="M475 176v-34l-4 -32v-12l-31 -30v-10l-3 6l-39 -40l-44 -8l-4 -4l-32 -10l-8 -9l-4 6l-12 -9l-28 22l-3 -6h-13l-10 10l-4 -4l-22 12l-38 -4l-49 -14h-13l-25 31v33l3 44l6 19l4 3l-4 6l-6 16v15l6 7l8 14l21 4l21 -22v-9l22 -17h9l-3 -4l22 -10h12l4 -12l-7 -14l21 -12
l12 4l14 8l18 -17l-6 -16l6 -7h8l4 16h32l6 -9h6l13 12l-4 13l4 6l13 -15l18 5l9 44l17 8l4 4v4l-4 6l-5 12l-35 26l-17 5l-23 16l-2 -3h-15l-7 8l-6 -5l-38 -7l-18 7l-44 5l-40 31h-6l-6 -5l-22 30l-8 36l-4 26v14l34 56l12 3l71 27l21 -6l4 -3l10 9l30 -9h26l22 -18l30 -3
l10 -14h9l17 26h4l8 9l18 -4l3 -5h6l-4 4l5 3l2 -2l-3 -5v-9l3 -3l12 -31l-12 -35l-3 -4l9 -8h-6v-14l10 -21l-10 -14h-21l5 5l-31 30l-9 26l-56 43l-27 -3v3l-21 5l-23 4h-21l-22 -4l-44 -36l-7 -8l13 -16v-10h-6l-3 4l-9 -12l9 -10v-16l21 -18h52l23 -4l43 -4v-5l22 -12
l16 8l49 -5l31 -26h16l10 -26z" />
    <glyph glyph-name="FLW191" unicode="&#xbf;" 
d="M408 572l4 -53l-34 -29l-31 4l-13 9l-31 47v13l13 9l-4 18h4l10 9l5 -5l7 8l36 4l16 -7l10 -19zM160 594l13 -26l-9 -18l5 -3l-13 -9l-8 -23l-6 -3l10 -9l-26 -5l-5 -4v-10l-17 14l-22 9v21l-12 10l-6 34l13 18l52 9zM466 41l9 -9l-14 -34l-23 -10l-42 -4v4l-17 10
l-19 -4h-59l-5 -6l-10 10l-22 -10h-38l-26 -12l-14 8l-8 10l-4 -6l-74 6v4l-4 3l-5 -3l-23 3l-12 6l-9 25l5 30l23 14h25l12 9l62 -4h47v29l-7 15h-9l4 7h5l3 -4l13 22l-4 4l10 65l-6 17l-4 78h4l10 40v4l-14 12l-12 -2l-28 -26l-8 12l-13 14h-25l-10 -10h-22l-17 22l5 6
l-5 3l-8 13l4 31h13v9l44 -9l4 3v-3l78 -9h10l4 -4l9 9l33 -5l19 -35v-99l3 -40v-31l-8 -16l5 -66l3 -21l10 -28v-3l8 -9l22 5l26 4h61l25 -4l13 -21l-3 -15v-4z" />
    <glyph glyph-name="FLW191" unicode="&#x457;" 
d="M408 572l4 -53l-34 -29l-31 4l-13 9l-31 47v13l13 9l-4 18h4l10 9l5 -5l7 8l36 4l16 -7l10 -19zM160 594l13 -26l-9 -18l5 -3l-13 -9l-8 -23l-6 -3l10 -9l-26 -5l-5 -4v-10l-17 14l-22 9v21l-12 10l-6 34l13 18l52 9zM466 41l9 -9l-14 -34l-23 -10l-42 -4v4l-17 10
l-19 -4h-59l-5 -6l-10 10l-22 -10h-38l-26 -12l-14 8l-8 10l-4 -6l-74 6v4l-4 3l-5 -3l-23 3l-12 6l-9 25l5 30l23 14h25l12 9l62 -4h47v29l-7 15h-9l4 7h5l3 -4l13 22l-4 4l10 65l-6 17l-4 78h4l10 40v4l-14 12l-12 -2l-28 -26l-8 12l-13 14h-25l-10 -10h-22l-17 22l5 6
l-5 3l-8 13l4 31h13v9l44 -9l4 3v-3l78 -9h10l4 -4l9 9l33 -5l19 -35v-99l3 -40v-31l-8 -16l5 -66l3 -21l10 -28v-3l8 -9l22 5l26 4h61l25 -4l13 -21l-3 -15v-4z" />
    <glyph glyph-name="FLW192" unicode="&#xc0;" 
d="M522 42l12 -33l-6 -9l-28 -14l-20 -16l-24 4l-50 12l-38 -6h-35l-47 36l-12 4v8l15 12l47 7l11 13v76l-11 12l-74 -6l-22 16l-21 -2l-39 -63l6 -17l61 -46l2 -8l-17 -8l-17 -20h-36l-13 -8h-37l-15 -6l-32 8h-16l-31 14l-9 24v16l36 18l26 6l32 50l8 66l14 28v24l14 34
l6 33l32 89l15 76l13 24l4 44l54 56l16 -6l12 -16l26 -18l20 -62l22 -36l-10 -38l2 -39l21 -28l7 -65l4 -28l8 -33l17 -31l10 -48l11 -26l17 -16l37 -30l9 -2zM308 223l14 19v21l-22 33v18l2 35l-6 38l-14 27h-8l-12 -26l-9 -14l-11 -33v-32l-10 -33l-10 -53l10 -7l30 5
l31 -5z" />
    <glyph glyph-name="FLW192" unicode="&#x410;" 
d="M522 42l12 -33l-6 -9l-28 -14l-20 -16l-24 4l-50 12l-38 -6h-35l-47 36l-12 4v8l15 12l47 7l11 13v76l-11 12l-74 -6l-22 16l-21 -2l-39 -63l6 -17l61 -46l2 -8l-17 -8l-17 -20h-36l-13 -8h-37l-15 -6l-32 8h-16l-31 14l-9 24v16l36 18l26 6l32 50l8 66l14 28v24l14 34
l6 33l32 89l15 76l13 24l4 44l54 56l16 -6l12 -16l26 -18l20 -62l22 -36l-10 -38l2 -39l21 -28l7 -65l4 -28l8 -33l17 -31l10 -48l11 -26l17 -16l37 -30l9 -2zM308 223l14 19v21l-22 33v18l2 35l-6 38l-14 27h-8l-12 -26l-9 -14l-11 -33v-32l-10 -33l-10 -53l10 -7l30 5
l31 -5z" />
    <glyph glyph-name="FLW193" unicode="&#xc1;" 
d="M507 192v-40l-4 -22l-7 -14l-2 -54l-12 -46l-6 -6l-30 -5l-40 -19l-59 -2l-13 8l-125 -6l-61 4l-21 -12l-27 8l-32 13l-10 11l2 20l46 40l14 5l13 33l-4 42l-4 22l10 83l5 9l-4 20l12 18l-13 62v67l-2 9v8l13 16l-6 15l-45 43l-27 -13l-8 8l-4 36l20 19l38 21l74 -2h82
l22 -11l64 11l33 -9l30 -2l23 -14h17l25 -28v-34l6 -8l-10 -56l-24 -18l-24 2l-22 18l9 29l-3 19l-24 21l-22 -5l-40 11l-8 -6l-28 6l-26 -11l-28 7l-26 -23l8 -53v-73l-6 -8v-6l36 -22l51 9l13 7l24 -2l14 -14l75 -2l34 -37l17 -21l14 -57zM410 88l19 64v50l-13 42l-27 24
h-8l-41 -4l-38 8l-10 -4l-56 -4l-14 -9l4 -80l-10 -17l12 -23l-2 -3l12 -40l30 -9l12 25h6l3 -2l13 -18l24 -18l28 -4l20 13l15 5l17 -1z" />
    <glyph glyph-name="FLW193" unicode="&#x411;" 
d="M507 192v-40l-4 -22l-7 -14l-2 -54l-12 -46l-6 -6l-30 -5l-40 -19l-59 -2l-13 8l-125 -6l-61 4l-21 -12l-27 8l-32 13l-10 11l2 20l46 40l14 5l13 33l-4 42l-4 22l10 83l5 9l-4 20l12 18l-13 62v67l-2 9v8l13 16l-6 15l-45 43l-27 -13l-8 8l-4 36l20 19l38 21l74 -2h82
l22 -11l64 11l33 -9l30 -2l23 -14h17l25 -28v-34l6 -8l-10 -56l-24 -18l-24 2l-22 18l9 29l-3 19l-24 21l-22 -5l-40 11l-8 -6l-28 6l-26 -11l-28 7l-26 -23l8 -53v-73l-6 -8v-6l36 -22l51 9l13 7l24 -2l14 -14l75 -2l34 -37l17 -21l14 -57zM410 88l19 64v50l-13 42l-27 24
h-8l-41 -4l-38 8l-10 -4l-56 -4l-14 -9l4 -80l-10 -17l12 -23l-2 -3l12 -40l30 -9l12 25h6l3 -2l13 -18l24 -18l28 -4l20 13l15 5l17 -1z" />
    <glyph glyph-name="FLW194" unicode="&#xc2;" 
d="M542 494l4 -4l-2 -14l-6 -6l-14 4l-8 8v8l8 6zM503 248l21 -114l-18 -47l-22 -44l-40 -41l-46 -16l-36 -10l-26 6l-78 4l-14 5l-28 -5h-24l-16 -6l-34 8h-46l-60 16l-6 12l6 24l17 13l36 3l30 20l13 18l4 37l6 13l-6 36l2 110l6 22l-12 65l12 46l-6 29l8 38l-2 13l-28 18
l-23 -7l-51 7l-12 13v14l46 34h15l19 -12l15 10l33 -6l47 2l13 8h24l10 9l38 -9l15 11l38 -11l32 -2l65 -46l23 -8l16 -4l11 -10l6 -86l-10 -40l-34 -51v-25l25 -22h26l3 -10zM385 448l7 2v20h-4l-18 -16l-20 -2l-11 9l-9 23h-18l-13 -16l-35 12l1 20l-53 8l-3 -8l-4 -66
v-30l7 -50l11 -11l37 -2l30 13l26 -5l50 19v13l-10 23l21 40zM423 150l3 32l-34 48l-22 4l-21 22l-23 7l-27 -13l-17 18l-12 2l-10 -7l-44 -3l-6 -30l-1 -54l-6 -36l6 -53l12 -6l49 -1l26 3l16 -3h18l9 13h23l13 13l25 10z" />
    <glyph glyph-name="FLW194" unicode="&#x412;" 
d="M542 494l4 -4l-2 -14l-6 -6l-14 4l-8 8v8l8 6zM503 248l21 -114l-18 -47l-22 -44l-40 -41l-46 -16l-36 -10l-26 6l-78 4l-14 5l-28 -5h-24l-16 -6l-34 8h-46l-60 16l-6 12l6 24l17 13l36 3l30 20l13 18l4 37l6 13l-6 36l2 110l6 22l-12 65l12 46l-6 29l8 38l-2 13l-28 18
l-23 -7l-51 7l-12 13v14l46 34h15l19 -12l15 10l33 -6l47 2l13 8h24l10 9l38 -9l15 11l38 -11l32 -2l65 -46l23 -8l16 -4l11 -10l6 -86l-10 -40l-34 -51v-25l25 -22h26l3 -10zM385 448l7 2v20h-4l-18 -16l-20 -2l-11 9l-9 23h-18l-13 -16l-35 12l1 20l-53 8l-3 -8l-4 -66
v-30l7 -50l11 -11l37 -2l30 13l26 -5l50 19v13l-10 23l21 40zM423 150l3 32l-34 48l-22 4l-21 22l-23 7l-27 -13l-17 18l-12 2l-10 -7l-44 -3l-6 -30l-1 -54l-6 -36l6 -53l12 -6l49 -1l26 3l16 -3h18l9 13h23l13 13l25 10z" />
    <glyph glyph-name="FLW195" unicode="&#xc3;" 
d="M574 550l18 -22l-6 -67l-2 -7l-6 -4h-6l-28 58l-14 6l-20 -4l-10 -10l10 -30l-12 -26l-14 -27l-32 -15l-26 6l-12 32l-24 10v18l4 8l-2 14l-22 18l-44 -14v-68l-8 -22v-61l-6 -34l6 -21v-48l6 -58l-12 -76v-12l4 -14l34 -24l16 -7l21 -21h17v-12l-30 -9l-48 -25h-34
l-12 -6l-26 2l-16 8l-26 -8l-54 10l-20 -8l-51 -4l-34 24l-21 28v19l48 27l24 6l36 47l-8 67l14 26l-6 40l4 39v25l-6 13l8 65l-8 26v54l-20 21h-44l-25 47v32l7 8l37 3l13 4h40l4 4l30 -6l30 6l80 -8h84l11 4l36 -7h31l62 -27l12 -2l6 -11l6 -6l27 6h9zM278 240l12 28
l-6 31l6 13l-12 44v48l-6 26l4 33l-16 27h-10l-6 -14l3 -10v-32l-11 -26l8 -27l-8 -17l-2 -201l-8 -27l6 -20l-6 -27l6 -9l15 -4l21 7v40l4 11l4 40l-4 29z" />
    <glyph glyph-name="FLW195" unicode="&#x413;" 
d="M574 550l18 -22l-6 -67l-2 -7l-6 -4h-6l-28 58l-14 6l-20 -4l-10 -10l10 -30l-12 -26l-14 -27l-32 -15l-26 6l-12 32l-24 10v18l4 8l-2 14l-22 18l-44 -14v-68l-8 -22v-61l-6 -34l6 -21v-48l6 -58l-12 -76v-12l4 -14l34 -24l16 -7l21 -21h17v-12l-30 -9l-48 -25h-34
l-12 -6l-26 2l-16 8l-26 -8l-54 10l-20 -8l-51 -4l-34 24l-21 28v19l48 27l24 6l36 47l-8 67l14 26l-6 40l4 39v25l-6 13l8 65l-8 26v54l-20 21h-44l-25 47v32l7 8l37 3l13 4h40l4 4l30 -6l30 6l80 -8h84l11 4l36 -7h31l62 -27l12 -2l6 -11l6 -6l27 6h9zM278 240l12 28
l-6 31l6 13l-12 44v48l-6 26l4 33l-16 27h-10l-6 -14l3 -10v-32l-11 -26l8 -27l-8 -17l-2 -201l-8 -27l6 -20l-6 -27l6 -9l15 -4l21 7v40l4 11l4 40l-4 29z" />
    <glyph glyph-name="FLW196" unicode="&#xc4;" 
d="M593 -54v-8l-17 -13l-12 5l-11 12l-21 -12l-4 -7l8 -25l-26 -6l-24 -8l-36 6l-6 8l-7 38l-13 40l-18 18l-69 3l-25 6l-149 -13l-13 -10l-27 -4l-7 -6l9 -26l4 -8l-6 -17l-44 -41l-23 1l-40 44l2 103l33 58l7 8l25 -8l33 14l38 48l11 40l-7 52l7 28l5 33l2 71l6 20l-6 16
l18 38l-9 56l5 18l-5 12l-5 4l-72 6l-8 13l8 27l12 7l26 4l12 5l30 -5l14 7l92 -5h26l8 5l112 -2l48 -12l8 -12v-15l-28 -19l-12 -4l-15 -23l-1 -107l-6 -6l-6 -48l-12 -36l20 -118l5 -19l-7 -45l7 -36l33 -26l32 -6l22 -27l4 -25l8 -7v-29l21 -30l7 -2l27 15zM358 232l6 67
l-8 21l6 19l2 159l-14 19l-18 1l-20 14l-22 2l-14 -4l-26 -40v-120l-12 -24v-53l-8 -31l12 -26v-25l-4 -71l-12 -24v-32l33 -12l17 18l10 2l24 -15l16 -5l11 11l13 36l-2 65l4 8z" />
    <glyph glyph-name="FLW196" unicode="&#x414;" 
d="M593 -54v-8l-17 -13l-12 5l-11 12l-21 -12l-4 -7l8 -25l-26 -6l-24 -8l-36 6l-6 8l-7 38l-13 40l-18 18l-69 3l-25 6l-149 -13l-13 -10l-27 -4l-7 -6l9 -26l4 -8l-6 -17l-44 -41l-23 1l-40 44l2 103l33 58l7 8l25 -8l33 14l38 48l11 40l-7 52l7 28l5 33l2 71l6 20l-6 16
l18 38l-9 56l5 18l-5 12l-5 4l-72 6l-8 13l8 27l12 7l26 4l12 5l30 -5l14 7l92 -5h26l8 5l112 -2l48 -12l8 -12v-15l-28 -19l-12 -4l-15 -23l-1 -107l-6 -6l-6 -48l-12 -36l20 -118l5 -19l-7 -45l7 -36l33 -26l32 -6l22 -27l4 -25l8 -7v-29l21 -30l7 -2l27 15zM358 232l6 67
l-8 21l6 19l2 159l-14 19l-18 1l-20 14l-22 2l-14 -4l-26 -40v-120l-12 -24v-53l-8 -31l12 -26v-25l-4 -71l-12 -24v-32l33 -12l17 18l10 2l24 -15l16 -5l11 11l13 36l-2 65l4 8z" />
    <glyph glyph-name="FLW197" unicode="&#xc5;" 
d="M513 215l9 -33l-10 -72v-48l-5 -13v-9l13 -10l-6 -28l-11 5l-31 -19h-13l-5 6l-25 -6l-41 11l-26 -13h-15l-16 19l-24 -14l-25 -5l-38 13l-77 -13l-59 2l-20 -6l-28 9l-22 16l-5 33l-5 2v7l34 11l16 14l28 2l16 11l18 93l2 34l-7 36l5 64l6 20l-4 89l14 27l-2 34l-27 33
l-15 11h-26l-38 14l-8 12v9l40 32l6 2l89 -7l38 7l55 -4h39l167 -3l12 -6l12 -21l5 -27v-20l6 -26v-29l3 -27l8 -13l-6 -25l-32 -13l-42 13l-11 18l4 12l9 14l-6 36l-3 32l-6 6l-25 -10l-30 6l-12 -6l-15 4l-23 13h-8l-5 -4h-13l-41 17l-13 -4l-27 -34l-2 -33v-53l-6 -14
l6 -32l19 -17h28l26 7l10 6l11 27l11 13l2 23l36 31h4l12 -18l17 -15l-2 -27l6 -17l5 -3l-5 -33l7 -19l16 -23v-9l-16 -20l-11 -49l-27 -25h-26l-20 32l-2 12l-21 28l-44 8l-15 -2l-12 -13l-7 -33l-6 -21v-46l11 -72l29 -15l45 9h12l14 23l22 -12l30 -1l13 -6l17 2l18 19
l13 88l28 42l5 6l8 -4l26 -4zM372 156l15 -16l-2 -9l-11 -8h-16l-11 11v8l13 14h12z" />
    <glyph glyph-name="FLW197" unicode="&#x415;" 
d="M513 215l9 -33l-10 -72v-48l-5 -13v-9l13 -10l-6 -28l-11 5l-31 -19h-13l-5 6l-25 -6l-41 11l-26 -13h-15l-16 19l-24 -14l-25 -5l-38 13l-77 -13l-59 2l-20 -6l-28 9l-22 16l-5 33l-5 2v7l34 11l16 14l28 2l16 11l18 93l2 34l-7 36l5 64l6 20l-4 89l14 27l-2 34l-27 33
l-15 11h-26l-38 14l-8 12v9l40 32l6 2l89 -7l38 7l55 -4h39l167 -3l12 -6l12 -21l5 -27v-20l6 -26v-29l3 -27l8 -13l-6 -25l-32 -13l-42 13l-11 18l4 12l9 14l-6 36l-3 32l-6 6l-25 -10l-30 6l-12 -6l-15 4l-23 13h-8l-5 -4h-13l-41 17l-13 -4l-27 -34l-2 -33v-53l-6 -14
l6 -32l19 -17h28l26 7l10 6l11 27l11 13l2 23l36 31h4l12 -18l17 -15l-2 -27l6 -17l5 -3l-5 -33l7 -19l16 -23v-9l-16 -20l-11 -49l-27 -25h-26l-20 32l-2 12l-21 28l-44 8l-15 -2l-12 -13l-7 -33l-6 -21v-46l11 -72l29 -15l45 9h12l14 23l22 -12l30 -1l13 -6l17 2l18 19
l13 88l28 42l5 6l8 -4l26 -4zM372 156l15 -16l-2 -9l-11 -8h-16l-11 11v8l13 14h12z" />
    <glyph glyph-name="FLW198" unicode="&#xc6;" 
d="M550 121l20 -42l-2 -21l-40 -66l-13 -6l-41 -2h-20l-30 32l-16 30l-8 33l4 21l-4 21l4 43l-4 20l-28 39l-8 -4l-14 -19l-26 -8l-10 -8l2 -11l18 -9l-6 -34l-14 -24l2 -27l54 -55l-2 -21l-8 -9l-86 -10l-68 2l-30 32l-15 -19l-31 6l-20 -29l-14 -6l-44 10h-18l-33 38
l-1 27l-6 13l7 61l19 18l32 -5l14 -11h10l5 13v14l8 10l13 74l32 34l14 20l20 5l8 10l-6 23l-30 26l-13 27v52l-11 21l-35 23l-25 4h-7l-19 27l4 41l22 21l38 16l22 -4l24 -20l28 -18l8 -2h8l35 26l15 8l23 -2l23 -12l40 6l36 -6l16 -18l-29 -34l-13 -2h-8l-12 -14l-7 -30
l7 -18l-3 -58v-26l7 -25l8 -7l25 5l36 47v116l5 36l36 23l26 19h11l14 -19l25 7l10 -2l7 -14l4 -38l-44 -35l-15 2l-14 21l2 23l-2 1h-6l-8 -7l3 -51l-9 -40l-4 -70l-10 -26v-18l-10 -9l4 -11l22 -20l20 -34l25 -13v-13l-13 -14l6 -58l20 -10l2 -5l6 -7l28 7l10 5zM248 418
l9 86l-9 14l-52 6l-12 -13l-4 -13l8 -34l-8 -18v-28l14 -41l38 -40h10l14 53zM234 240l6 6v5l-4 2h-8l-9 -9zM240 140l8 30l-8 26l6 23l-6 5l-24 8l-6 8h-20l-10 -8l-17 -48l7 -12l14 -6v-8l-3 -2v-12h13l20 -25l7 -3zM230 83l4 3v14l-6 4l-7 -14l2 -7h7zM184 70l6 2v5
l-10 19h-6l-7 -17l3 -9h14z" />
    <glyph glyph-name="FLW198" unicode="&#x416;" 
d="M550 121l20 -42l-2 -21l-40 -66l-13 -6l-41 -2h-20l-30 32l-16 30l-8 33l4 21l-4 21l4 43l-4 20l-28 39l-8 -4l-14 -19l-26 -8l-10 -8l2 -11l18 -9l-6 -34l-14 -24l2 -27l54 -55l-2 -21l-8 -9l-86 -10l-68 2l-30 32l-15 -19l-31 6l-20 -29l-14 -6l-44 10h-18l-33 38
l-1 27l-6 13l7 61l19 18l32 -5l14 -11h10l5 13v14l8 10l13 74l32 34l14 20l20 5l8 10l-6 23l-30 26l-13 27v52l-11 21l-35 23l-25 4h-7l-19 27l4 41l22 21l38 16l22 -4l24 -20l28 -18l8 -2h8l35 26l15 8l23 -2l23 -12l40 6l36 -6l16 -18l-29 -34l-13 -2h-8l-12 -14l-7 -30
l7 -18l-3 -58v-26l7 -25l8 -7l25 5l36 47v116l5 36l36 23l26 19h11l14 -19l25 7l10 -2l7 -14l4 -38l-44 -35l-15 2l-14 21l2 23l-2 1h-6l-8 -7l3 -51l-9 -40l-4 -70l-10 -26v-18l-10 -9l4 -11l22 -20l20 -34l25 -13v-13l-13 -14l6 -58l20 -10l2 -5l6 -7l28 7l10 5zM248 418
l9 86l-9 14l-52 6l-12 -13l-4 -13l8 -34l-8 -18v-28l14 -41l38 -40h10l14 53zM234 240l6 6v5l-4 2h-8l-9 -9zM240 140l8 30l-8 26l6 23l-6 5l-24 8l-6 8h-20l-10 -8l-17 -48l7 -12l14 -6v-8l-3 -2v-12h13l20 -25l7 -3zM230 83l4 3v14l-6 4l-7 -14l2 -7h7zM184 70l6 2v5
l-10 19h-6l-7 -17l3 -9h14z" />
    <glyph glyph-name="FLW199" unicode="&#xc7;" 
d="M486 209v-103l-28 -40l-6 -17l-40 -15l-60 -40l-80 -12l-53 -2l-93 50l-20 6l-25 38l-27 45v39l14 26l16 12h28l49 -12l18 -17l2 -31l25 -17l34 -63l40 -14l40 1l46 25l14 21l24 17l16 57l-20 58l-80 61h-38l-48 4l-26 10l-8 11l4 15l42 34h18l18 -13l32 4l40 23l37 44
v52l-37 44l-21 11l-51 3l-14 4l-70 -18l-8 -6l-9 -16l-7 -32l-42 -62l-26 2l-18 18v80l6 56l14 20l16 10l42 -10l32 6l23 14l11 3l80 -3l60 -27l36 -6l25 -29l13 -7l12 -13l10 -42l5 -5l2 -65l-27 -32l-4 -34l-9 -16l7 -15l16 -25l8 -32z" />
    <glyph glyph-name="FLW199" unicode="&#x417;" 
d="M486 209v-103l-28 -40l-6 -17l-40 -15l-60 -40l-80 -12l-53 -2l-93 50l-20 6l-25 38l-27 45v39l14 26l16 12h28l49 -12l18 -17l2 -31l25 -17l34 -63l40 -14l40 1l46 25l14 21l24 17l16 57l-20 58l-80 61h-38l-48 4l-26 10l-8 11l4 15l42 34h18l18 -13l32 4l40 23l37 44
v52l-37 44l-21 11l-51 3l-14 4l-70 -18l-8 -6l-9 -16l-7 -32l-42 -62l-26 2l-18 18v80l6 56l14 20l16 10l42 -10l32 6l23 14l11 3l80 -3l60 -27l36 -6l25 -29l13 -7l12 -13l10 -42l5 -5l2 -65l-27 -32l-4 -34l-9 -16l7 -15l16 -25l8 -32z" />
    <glyph glyph-name="FLW200" unicode="&#xc8;" 
d="M532 544l6 -24l-6 -9l-11 -5l-23 1l-12 -3l-7 -12l5 -42l-5 -24l15 -22l-21 -38l-5 -40l-6 -33l9 -31l-5 -24l5 -78l4 -20l4 -70l9 -10l23 -4l17 -24l6 -22l-2 -7l-24 -13l-89 -4l-19 6l-32 -6l-24 17l-13 17l2 25l21 19l25 -4l15 19l12 61l-22 79l22 38l8 32l-4 121
l-4 2h-6l-21 -26l-7 -20l-12 -14l-2 -19l-30 -36l-14 -38l-10 -23l-3 -19l-15 -11l-8 -10l-4 -24l-13 -22l-8 -50l-7 -14l2 -22l11 -12l-6 -6v-9l29 -7l-2 -24l-12 -7l-47 -5l-27 -4l-33 7l-97 2l-17 17v10l38 30l7 16l16 20l11 34l2 47l7 19l-3 31l3 34l10 15l-6 88l-6 30
l-1 39l-6 13l7 37l-18 53l-8 8l-26 -8l-10 13v15l10 10l20 -6l20 10l36 4l16 4l22 -4l65 -4l13 -14v-13l-40 -36l-22 -5l-10 -6l-4 -6v-54l-9 -14l7 -20l-11 -42v-38l-9 -37l13 -25l-17 -32l4 -72l18 -14l8 2l12 18l8 26l12 31l20 27l2 12v8l34 27l10 49l12 40l16 18l-6 46
l-2 2l29 28v71l-8 7v6l6 6l31 2l36 6h56l51 -4z" />
    <glyph glyph-name="FLW200" unicode="&#x418;" 
d="M532 544l6 -24l-6 -9l-11 -5l-23 1l-12 -3l-7 -12l5 -42l-5 -24l15 -22l-21 -38l-5 -40l-6 -33l9 -31l-5 -24l5 -78l4 -20l4 -70l9 -10l23 -4l17 -24l6 -22l-2 -7l-24 -13l-89 -4l-19 6l-32 -6l-24 17l-13 17l2 25l21 19l25 -4l15 19l12 61l-22 79l22 38l8 32l-4 121
l-4 2h-6l-21 -26l-7 -20l-12 -14l-2 -19l-30 -36l-14 -38l-10 -23l-3 -19l-15 -11l-8 -10l-4 -24l-13 -22l-8 -50l-7 -14l2 -22l11 -12l-6 -6v-9l29 -7l-2 -24l-12 -7l-47 -5l-27 -4l-33 7l-97 2l-17 17v10l38 30l7 16l16 20l11 34l2 47l7 19l-3 31l3 34l10 15l-6 88l-6 30
l-1 39l-6 13l7 37l-18 53l-8 8l-26 -8l-10 13v15l10 10l20 -6l20 10l36 4l16 4l22 -4l65 -4l13 -14v-13l-40 -36l-22 -5l-10 -6l-4 -6v-54l-9 -14l7 -20l-11 -42v-38l-9 -37l13 -25l-17 -32l4 -72l18 -14l8 2l12 18l8 26l12 31l20 27l2 12v8l34 27l10 49l12 40l16 18l-6 46
l-2 2l29 28v71l-8 7v6l6 6l31 2l36 6h56l51 -4z" />
    <glyph glyph-name="FLW201" unicode="&#xc9;" 
d="M528 548l12 -20l-4 -25l-14 -19l-28 24l-4 2l-10 -10l-4 -112l12 -18l-6 -23l-13 -31l6 -69l-12 -37v-26l6 -21v-36l11 -33l48 -51v-29l-14 -23l-11 -9l-34 -2l-13 -4l-40 6l-42 -4l-20 4l-38 34l-10 4l-6 6v8l20 13l40 13l26 36v31l10 13l-3 30l-11 26l5 25l-5 27l16 34
l10 53l-6 21l16 28l4 12l-2 8h-22l-20 -13l-6 -41l-30 -38l4 -13l-24 -17l-8 -26l-12 -16l-9 -33l-13 -27l-4 -40l-29 -21l-13 -59l-6 -7l2 -10l17 -9l2 -12v-6l-42 -30l-38 5l-69 -3h-34l-10 8l-10 13l2 31l18 16l34 6l8 21v40l-4 8v19l22 24l-18 29l8 44l-10 39l8 84l2 47
l4 27l-6 17l-8 7l-2 46l-29 3l-22 25l3 19l10 9h116l20 -7h15l5 -6l-5 -29l-10 -24l-26 -28l5 -42l-7 -20l2 -37l5 -9l-11 -21v-31l11 -13v-17l-18 -38l1 -14l6 -6v-12l-23 -22l2 -12l15 -15l19 2l46 45l6 34l13 20l-4 31l25 23l6 28l22 25l7 59l33 54l4 16l-6 17l-5 7
l21 34l33 10l-13 20l-38 -2l-30 -14l-22 -6l-26 10l-20 17l-58 9h-20l-20 24l-14 20l-2 32l-14 16l8 19l26 18l54 3l13 -17v-25l-11 -14v-7l24 -25l44 4l14 4h38l38 26v38l42 32l33 -16l27 -16l14 -38l-3 -40v-22l-10 -12l6 -13l19 -9h25z" />
    <glyph glyph-name="FLW201" unicode="&#x419;" 
d="M528 548l12 -20l-4 -25l-14 -19l-28 24l-4 2l-10 -10l-4 -112l12 -18l-6 -23l-13 -31l6 -69l-12 -37v-26l6 -21v-36l11 -33l48 -51v-29l-14 -23l-11 -9l-34 -2l-13 -4l-40 6l-42 -4l-20 4l-38 34l-10 4l-6 6v8l20 13l40 13l26 36v31l10 13l-3 30l-11 26l5 25l-5 27l16 34
l10 53l-6 21l16 28l4 12l-2 8h-22l-20 -13l-6 -41l-30 -38l4 -13l-24 -17l-8 -26l-12 -16l-9 -33l-13 -27l-4 -40l-29 -21l-13 -59l-6 -7l2 -10l17 -9l2 -12v-6l-42 -30l-38 5l-69 -3h-34l-10 8l-10 13l2 31l18 16l34 6l8 21v40l-4 8v19l22 24l-18 29l8 44l-10 39l8 84l2 47
l4 27l-6 17l-8 7l-2 46l-29 3l-22 25l3 19l10 9h116l20 -7h15l5 -6l-5 -29l-10 -24l-26 -28l5 -42l-7 -20l2 -37l5 -9l-11 -21v-31l11 -13v-17l-18 -38l1 -14l6 -6v-12l-23 -22l2 -12l15 -15l19 2l46 45l6 34l13 20l-4 31l25 23l6 28l22 25l7 59l33 54l4 16l-6 17l-5 7
l21 34l33 10l-13 20l-38 -2l-30 -14l-22 -6l-26 10l-20 17l-58 9h-20l-20 24l-14 20l-2 32l-14 16l8 19l26 18l54 3l13 -17v-25l-11 -14v-7l24 -25l44 4l14 4h38l38 26v38l42 32l33 -16l27 -16l14 -38l-3 -40v-22l-10 -12l6 -13l19 -9h25z" />
    <glyph glyph-name="FLW202" unicode="&#xca;" 
d="M564 557l12 -11l-2 -8l-10 -8l-22 2l-18 12l-2 7l20 12zM542 513v-13l-39 -28l-29 -26l-24 -11l-28 5l-8 -5l-44 -77v-12l-27 -30l39 -30l14 -42l14 -48l-10 -18v-13l22 -19l39 -8h35l42 -42v-44l-10 -30l-12 -10l-40 -14l-28 -22l-26 2l-62 34l-18 4l5 33l-19 21v9
l23 25l-7 36v36l-13 40l-22 28l-18 11l-21 23l-34 -2l-14 -6l-42 10l-16 -10l-8 -11v-42l8 -13l-6 -34l11 -51l-5 -15l7 -16l31 -24l40 -21l40 7l12 -1l6 -6v-13l-22 -18h-31l-38 -20l-120 -2l-9 8h-50l-14 11v23l64 47l9 17l4 40l5 14l-9 26l-5 10l18 40l-7 44l7 67l-7 13
l7 20l-7 94l7 22l-7 25l-18 15h-24l-23 23v21l14 10l44 9l1 2l75 -7l20 7l25 -2l25 -13l17 -6l4 -13v-8l-21 -11l-12 -14l-2 -14l-18 -12l-14 8l-6 -2l-5 -6v-28l5 -6h16l6 -5v-3l-6 -6h-18l-5 -6v-44l-6 -21l6 -29l7 -7l33 7h47l29 54v22l5 6l-5 32l3 15l10 7l8 10v10l8 7
l24 6l5 13l7 25l8 13l38 2l25 19l40 -21l17 -4l19 -26l2 -10l13 -11z" />
    <glyph glyph-name="FLW202" unicode="&#x41a;" 
d="M564 557l12 -11l-2 -8l-10 -8l-22 2l-18 12l-2 7l20 12zM542 513v-13l-39 -28l-29 -26l-24 -11l-28 5l-8 -5l-44 -77v-12l-27 -30l39 -30l14 -42l14 -48l-10 -18v-13l22 -19l39 -8h35l42 -42v-44l-10 -30l-12 -10l-40 -14l-28 -22l-26 2l-62 34l-18 4l5 33l-19 21v9
l23 25l-7 36v36l-13 40l-22 28l-18 11l-21 23l-34 -2l-14 -6l-42 10l-16 -10l-8 -11v-42l8 -13l-6 -34l11 -51l-5 -15l7 -16l31 -24l40 -21l40 7l12 -1l6 -6v-13l-22 -18h-31l-38 -20l-120 -2l-9 8h-50l-14 11v23l64 47l9 17l4 40l5 14l-9 26l-5 10l18 40l-7 44l7 67l-7 13
l7 20l-7 94l7 22l-7 25l-18 15h-24l-23 23v21l14 10l44 9l1 2l75 -7l20 7l25 -2l25 -13l17 -6l4 -13v-8l-21 -11l-12 -14l-2 -14l-18 -12l-14 8l-6 -2l-5 -6v-28l5 -6h16l6 -5v-3l-6 -6h-18l-5 -6v-44l-6 -21l6 -29l7 -7l33 7h47l29 54v22l5 6l-5 32l3 15l10 7l8 10v10l8 7
l24 6l5 13l7 25l8 13l38 2l25 19l40 -21l17 -4l19 -26l2 -10l13 -11z" />
    <glyph glyph-name="FLW203" unicode="&#xcb;" 
d="M530 5v-2l-19 -9l-40 -10h-40l-3 6l-78 -4l-13 -8l-27 14l-19 24l13 44l12 10l32 -10h4l6 10l-8 36l8 31l-6 33v16l6 24v79l-6 109l-26 22l-2 4l26 22l-2 14l-22 20l2 14l-12 12l-17 -2l-8 -10v-14l-17 -13l-10 -11l10 -32l2 -33l8 -13l-20 -28l6 -44l-15 -28l-4 -27
l11 -13v-40l8 -12l-15 -40l-4 -25l-3 -11v-26l-12 -18l-2 -33l-53 -47l-35 -2l-22 -8l-40 10l-20 13l-32 51l5 62l25 22l84 -13l22 13l7 10l2 29l13 31l-2 19l-4 3l2 65l-5 13l3 50l2 83l4 9l-9 40l-17 12l-22 2l-12 17l-8 40l8 15l18 10h46l84 2l4 3l53 -3l17 -10l23 8h15
l14 -10l54 2l11 8l15 -4l14 -38v-10l-23 -19h-33l-14 -13l7 -42v-46l-6 -12v-34l-5 -6l5 -54l-11 -20l11 -58l-7 -16l6 -38l-14 -26l8 -36l6 -38l24 -22h40l10 -11l2 -21z" />
    <glyph glyph-name="FLW203" unicode="&#x41b;" 
d="M530 5v-2l-19 -9l-40 -10h-40l-3 6l-78 -4l-13 -8l-27 14l-19 24l13 44l12 10l32 -10h4l6 10l-8 36l8 31l-6 33v16l6 24v79l-6 109l-26 22l-2 4l26 22l-2 14l-22 20l2 14l-12 12l-17 -2l-8 -10v-14l-17 -13l-10 -11l10 -32l2 -33l8 -13l-20 -28l6 -44l-15 -28l-4 -27
l11 -13v-40l8 -12l-15 -40l-4 -25l-3 -11v-26l-12 -18l-2 -33l-53 -47l-35 -2l-22 -8l-40 10l-20 13l-32 51l5 62l25 22l84 -13l22 13l7 10l2 29l13 31l-2 19l-4 3l2 65l-5 13l3 50l2 83l4 9l-9 40l-17 12l-22 2l-12 17l-8 40l8 15l18 10h46l84 2l4 3l53 -3l17 -10l23 8h15
l14 -10l54 2l11 8l15 -4l14 -38v-10l-23 -19h-33l-14 -13l7 -42v-46l-6 -12v-34l-5 -6l5 -54l-11 -20l11 -58l-7 -16l6 -38l-14 -26l8 -36l6 -38l24 -22h40l10 -11l2 -21z" />
    <glyph glyph-name="FLW204" unicode="&#xcc;" 
d="M568 26v-14l-28 -26l-34 -8l-100 6h-28l-18 10l-15 24l-59 -32l-28 6l-22 11l-2 17h-8l-15 -14l-40 -3l-13 -6l-50 -5l-21 5l-57 -3l-16 5l-7 13l7 25l46 40l12 15l-6 66l8 28v50l11 55l-7 35l2 34l5 12l-5 40l-8 14l13 16v24l-27 20l-20 31l-18 17l4 26l29 22l45 -4h48
l48 -4l26 -40l12 -8l4 -6l-8 -54l-2 -48v-18l21 -103l25 -13v-86l4 -6l8 4l10 17v37l20 20v31l-14 17l12 21l27 33l6 38l2 107l13 27l44 34l57 4l45 -8l15 4h9l27 -44l-5 -21l-6 -6h-27l-11 -9l-8 -34l-12 -27l4 -85v-122l8 -84l-6 -38l11 -36l35 -12zM421 276l19 90l-10 34
l-3 31l-13 2l-2 -9l7 -26l-25 -40l6 -38l-13 -14l-15 -34l6 -26l-6 -23l-4 -73l-17 -31v-29l7 -11h8l15 7l13 20v34l10 33l15 25zM212 79l8 67l-8 12v46l-12 22l-27 186l-13 30h-6l-20 -32l10 -17v-43l4 -36l-8 -17l-2 -33l6 -104l-6 -12l8 -76l21 -6l40 4z" />
    <glyph glyph-name="FLW204" unicode="&#x41c;" 
d="M568 26v-14l-28 -26l-34 -8l-100 6h-28l-18 10l-15 24l-59 -32l-28 6l-22 11l-2 17h-8l-15 -14l-40 -3l-13 -6l-50 -5l-21 5l-57 -3l-16 5l-7 13l7 25l46 40l12 15l-6 66l8 28v50l11 55l-7 35l2 34l5 12l-5 40l-8 14l13 16v24l-27 20l-20 31l-18 17l4 26l29 22l45 -4h48
l48 -4l26 -40l12 -8l4 -6l-8 -54l-2 -48v-18l21 -103l25 -13v-86l4 -6l8 4l10 17v37l20 20v31l-14 17l12 21l27 33l6 38l2 107l13 27l44 34l57 4l45 -8l15 4h9l27 -44l-5 -21l-6 -6h-27l-11 -9l-8 -34l-12 -27l4 -85v-122l8 -84l-6 -38l11 -36l35 -12zM421 276l19 90l-10 34
l-3 31l-13 2l-2 -9l7 -26l-25 -40l6 -38l-13 -14l-15 -34l6 -26l-6 -23l-4 -73l-17 -31v-29l7 -11h8l15 7l13 20v34l10 33l15 25zM212 79l8 67l-8 12v46l-12 22l-27 186l-13 30h-6l-20 -32l10 -17v-43l4 -36l-8 -17l-2 -33l6 -104l-6 -12l8 -76l21 -6l40 4z" />
    <glyph glyph-name="FLW205" unicode="&#xcd;" 
d="M274 450v-8l-9 -8l-13 2l-4 10l4 17l6 6l14 -6zM553 446l13 -25l-1 -13l-12 -8l-25 6l-2 8l4 34l-4 11l8 10l19 -13v-10zM641 547v-11l-21 -20h-14l-15 12l-21 -4l-5 -4l-35 -12l-18 6l-30 -5l-16 -19v-48l-16 -42l2 -104l14 -20l-5 -36v-107l-9 -19l25 -38l11 -8h26
l16 32h16l6 -11l-4 -15l-14 -12l23 -40l-13 -2l-38 -36l-34 -2l-72 2l-15 4l-19 -4h-29l-27 9l-11 9v6l-7 8l-24 -7l-14 5l-16 -6l-18 -11l-26 -2l-14 -7l-62 5h-88l-18 29l4 18l22 9l22 4l31 23l1 48l6 22l6 68l-10 33l12 47l-6 46l6 20l-8 56l6 7l-4 17l-8 10l6 38v8
l-40 34l-26 4l-14 14v15l60 25l28 -6l38 -6l12 14l67 -10l25 -33l30 -7l14 -16l-33 -17l-27 3l-12 6l-24 -2l-22 -24v-8l18 -19l-4 -9l-16 -12l-5 -86l7 -14h31l15 -12l28 10l20 -6l12 6l30 -10l58 10l13 16v25l9 12l-5 57l-19 17l13 29l-2 11l-51 7l-25 7l11 13v29l27 23
l25 -6l15 2l6 6l21 -2l6 -6l40 6l12 -6h26l24 -12l30 -8l9 -10h35l18 11l27 -5zM570 268v-12l-11 -7l-19 21l-8 34l14 12h7l12 -12zM379 150l11 36l-13 67l-11 9l-46 3l-21 9l-67 2l-12 -8h-20l-28 6l-5 -6l-9 -32l9 -20l-9 -56l9 -10l7 -38l-4 -12v-20l16 -20l50 -7l32 7
l10 -4l14 -23h9l25 20l48 9l7 24z" />
    <glyph glyph-name="FLW205" unicode="&#x41d;" 
d="M274 450v-8l-9 -8l-13 2l-4 10l4 17l6 6l14 -6zM553 446l13 -25l-1 -13l-12 -8l-25 6l-2 8l4 34l-4 11l8 10l19 -13v-10zM641 547v-11l-21 -20h-14l-15 12l-21 -4l-5 -4l-35 -12l-18 6l-30 -5l-16 -19v-48l-16 -42l2 -104l14 -20l-5 -36v-107l-9 -19l25 -38l11 -8h26
l16 32h16l6 -11l-4 -15l-14 -12l23 -40l-13 -2l-38 -36l-34 -2l-72 2l-15 4l-19 -4h-29l-27 9l-11 9v6l-7 8l-24 -7l-14 5l-16 -6l-18 -11l-26 -2l-14 -7l-62 5h-88l-18 29l4 18l22 9l22 4l31 23l1 48l6 22l6 68l-10 33l12 47l-6 46l6 20l-8 56l6 7l-4 17l-8 10l6 38v8
l-40 34l-26 4l-14 14v15l60 25l28 -6l38 -6l12 14l67 -10l25 -33l30 -7l14 -16l-33 -17l-27 3l-12 6l-24 -2l-22 -24v-8l18 -19l-4 -9l-16 -12l-5 -86l7 -14h31l15 -12l28 10l20 -6l12 6l30 -10l58 10l13 16v25l9 12l-5 57l-19 17l13 29l-2 11l-51 7l-25 7l11 13v29l27 23
l25 -6l15 2l6 6l21 -2l6 -6l40 6l12 -6h26l24 -12l30 -8l9 -10h35l18 11l27 -5zM570 268v-12l-11 -7l-19 21l-8 34l14 12h7l12 -12zM379 150l11 36l-13 67l-11 9l-46 3l-21 9l-67 2l-12 -8h-20l-28 6l-5 -6l-9 -32l9 -20l-9 -56l9 -10l7 -38l-4 -12v-20l16 -20l50 -7l32 7
l10 -4l14 -23h9l25 20l48 9l7 24z" />
    <glyph glyph-name="FLW206" unicode="&#xce;" 
d="M521 301l3 -84l-13 -51l-25 -70l-28 -32l-44 -61l-35 -13l-19 -14l-29 -6l-112 -3l-21 19l-24 4l-16 16l-2 14l-18 13h-6l-7 17l-6 20l-42 70l-23 98l6 28l-6 38l10 22l8 11l2 29l5 14l6 44l23 32l13 30l13 18l16 36l34 18l14 24l36 9l12 5h28l12 8l68 -6l18 -14l20 3
l68 -67l22 -47l12 -17l19 -102v-21zM450 213l4 25l-8 12v30l6 70l-6 20l-9 40l-18 21l-19 29l-48 30l-26 4l-42 13l-31 -15l-19 -26l-20 5l-10 -7v-20l-10 -13l-17 -13l-7 -14v-40l-12 -24l-6 -26l-2 -78l14 -46l15 -32l7 -24l46 -62l21 -8h40l40 -6l59 42l14 19l13 47z" />
    <glyph glyph-name="FLW206" unicode="&#x41e;" 
d="M521 301l3 -84l-13 -51l-25 -70l-28 -32l-44 -61l-35 -13l-19 -14l-29 -6l-112 -3l-21 19l-24 4l-16 16l-2 14l-18 13h-6l-7 17l-6 20l-42 70l-23 98l6 28l-6 38l10 22l8 11l2 29l5 14l6 44l23 32l13 30l13 18l16 36l34 18l14 24l36 9l12 5h28l12 8l68 -6l18 -14l20 3
l68 -67l22 -47l12 -17l19 -102v-21zM450 213l4 25l-8 12v30l6 70l-6 20l-9 40l-18 21l-19 29l-48 30l-26 4l-42 13l-31 -15l-19 -26l-20 5l-10 -7v-20l-10 -13l-17 -13l-7 -14v-40l-12 -24l-6 -26l-2 -78l14 -46l15 -32l7 -24l46 -62l21 -8h40l40 -6l59 42l14 19l13 47z" />
    <glyph glyph-name="FLW207" unicode="&#xcf;" 
d="M511 64l33 -44l-4 -23l-40 -34l-16 2l-13 13h-51l-14 -6l-82 14l-18 24v35l6 7l54 18l6 9l8 27l11 15l-5 35v48l7 26l-3 20l1 54l-5 14l5 26l-5 10l4 46l8 12l-7 19l2 2l-3 17l-10 10v40l-16 13l-44 -13l-6 -6l-17 4l-25 20l-46 -5l-34 -6l-8 -21l-5 -34v-15l5 -4v-7
l-18 -22l4 -34l14 -16l-7 -103l9 -21v-38l-14 -20l7 -86l19 -14l14 -16l28 -11l13 -35l-2 -11l-13 -7l-34 -8l-40 -14l-34 10l-11 6l-15 -6h-59l-21 38l8 28l13 12h25l16 28l14 4l8 10l-2 84l-6 12l4 54l-6 14l8 37l-6 49l8 28l-8 38l10 24l-4 50l-8 14l-15 9l-27 7l-11 14
l-2 26v10l15 10l26 -6l20 8l42 5l15 -3l16 -10l46 4l57 2l11 4h35l7 7l25 -7l6 -4l88 -2l38 -4l42 -16l8 -18l-2 -8l-46 -26h-15l-6 -6l8 -34l-6 -56l6 -19l-6 -90v-37l11 -20v-12l-11 -9l9 -37l-9 -26l-9 -10l15 -71l15 -9z" />
    <glyph glyph-name="FLW207" unicode="&#x41f;" 
d="M511 64l33 -44l-4 -23l-40 -34l-16 2l-13 13h-51l-14 -6l-82 14l-18 24v35l6 7l54 18l6 9l8 27l11 15l-5 35v48l7 26l-3 20l1 54l-5 14l5 26l-5 10l4 46l8 12l-7 19l2 2l-3 17l-10 10v40l-16 13l-44 -13l-6 -6l-17 4l-25 20l-46 -5l-34 -6l-8 -21l-5 -34v-15l5 -4v-7
l-18 -22l4 -34l14 -16l-7 -103l9 -21v-38l-14 -20l7 -86l19 -14l14 -16l28 -11l13 -35l-2 -11l-13 -7l-34 -8l-40 -14l-34 10l-11 6l-15 -6h-59l-21 38l8 28l13 12h25l16 28l14 4l8 10l-2 84l-6 12l4 54l-6 14l8 37l-6 49l8 28l-8 38l10 24l-4 50l-8 14l-15 9l-27 7l-11 14
l-2 26v10l15 10l26 -6l20 8l42 5l15 -3l16 -10l46 4l57 2l11 4h35l7 7l25 -7l6 -4l88 -2l38 -4l42 -16l8 -18l-2 -8l-46 -26h-15l-6 -6l8 -34l-6 -56l6 -19l-6 -90v-37l11 -20v-12l-11 -9l9 -37l-9 -26l-9 -10l15 -71l15 -9z" />
    <glyph glyph-name="FLW208" unicode="&#xd0;" 
d="M510 492l16 -66l-8 -62l-20 -31l-6 -27v-26l4 -4l-4 -14l-38 -18l-46 6l-23 -16l-23 12l-24 -6l-16 -10l-44 10l-13 -8l-7 -9l-8 -23l-3 -40l11 -20v-50l7 -13l34 -15l23 -6l13 8l29 -2l15 -19l11 -38h-16l-40 -25l-74 4l-16 -6l-30 6h-47l-9 -6l-20 6l-45 2l-10 8l-25 3
l-20 21l2 25l5 7l6 6l45 2l35 8l21 13l8 13l-2 68l-4 78v21l17 30l-8 88l8 136l-11 11l-20 -4l-9 -7l-21 4l-6 3h-44l-15 12l-7 12l6 22l28 21l26 9l56 -5h44l80 -5l13 8l21 -4l73 -3l36 -21l67 -9v-40zM452 398l2 28l-22 58l-32 10l-21 26h-13l-19 -3l-27 3h-40l-22 4
l-14 -7l-4 -10l4 -65l-8 -42l4 -14l12 -16l2 -39l11 -13h9l2 2l25 -2h50l39 8l14 14l34 20z" />
    <glyph glyph-name="FLW208" unicode="&#x420;" 
d="M510 492l16 -66l-8 -62l-20 -31l-6 -27v-26l4 -4l-4 -14l-38 -18l-46 6l-23 -16l-23 12l-24 -6l-16 -10l-44 10l-13 -8l-7 -9l-8 -23l-3 -40l11 -20v-50l7 -13l34 -15l23 -6l13 8l29 -2l15 -19l11 -38h-16l-40 -25l-74 4l-16 -6l-30 6h-47l-9 -6l-20 6l-45 2l-10 8l-25 3
l-20 21l2 25l5 7l6 6l45 2l35 8l21 13l8 13l-2 68l-4 78v21l17 30l-8 88l8 136l-11 11l-20 -4l-9 -7l-21 4l-6 3h-44l-15 12l-7 12l6 22l28 21l26 9l56 -5h44l80 -5l13 8l21 -4l73 -3l36 -21l67 -9v-40zM452 398l2 28l-22 58l-32 10l-21 26h-13l-19 -3l-27 3h-40l-22 4
l-14 -7l-4 -10l4 -65l-8 -42l4 -14l12 -16l2 -39l11 -13h9l2 2l25 -2h50l39 8l14 14l34 20z" />
    <glyph glyph-name="FLW209" unicode="&#xd1;" 
d="M498 450l6 -6l-4 -20l-21 -6l-15 -72l-16 -15l-22 2l-40 39l-7 68l-7 24l-33 20l-5 16l-29 24l-27 16h-19l-33 -14l-74 -76l-29 -124v-33l-5 -21l9 -53l17 -46l2 -13l26 -14l-5 -20l5 -16l31 -26l35 -18l8 -10l19 2l34 25l27 1l66 76l4 38l10 8l40 7l18 -3l10 -12v-21
l-13 -19l3 -66l-34 -20l-4 -14l-20 -15l-16 -33l-11 -7l-34 -6l-21 -13l-66 8l-26 -2l-16 13l-38 2l-66 55l-40 77v9l-16 18l-11 62l-5 14l9 36l-4 50l8 34l5 38l42 88l52 58l26 7l32 27l32 13l70 -7l80 -20l33 16l25 4l14 -4l20 -22v-41l-18 -27l11 -40v-4h11l2 4h8z" />
    <glyph glyph-name="FLW209" unicode="&#x421;" 
d="M498 450l6 -6l-4 -20l-21 -6l-15 -72l-16 -15l-22 2l-40 39l-7 68l-7 24l-33 20l-5 16l-29 24l-27 16h-19l-33 -14l-74 -76l-29 -124v-33l-5 -21l9 -53l17 -46l2 -13l26 -14l-5 -20l5 -16l31 -26l35 -18l8 -10l19 2l34 25l27 1l66 76l4 38l10 8l40 7l18 -3l10 -12v-21
l-13 -19l3 -66l-34 -20l-4 -14l-20 -15l-16 -33l-11 -7l-34 -6l-21 -13l-66 8l-26 -2l-16 13l-38 2l-66 55l-40 77v9l-16 18l-11 62l-5 14l9 36l-4 50l8 34l5 38l42 88l52 58l26 7l32 27l32 13l70 -7l80 -20l33 16l25 4l14 -4l20 -22v-41l-18 -27l11 -40v-4h11l2 4h8z" />
    <glyph glyph-name="FLW210" unicode="&#xd2;" 
d="M492 530l2 -23l-12 -21l-14 -62l-7 -14h-21l-34 34l-12 -15l-12 25l-10 13v23l-12 18l-6 6l-34 -10l-10 -31l-9 -33v-50l-4 -12l2 -54l-5 -27l7 -51l6 -14l-6 -40l-4 -15l-1 -71l9 -13l13 -25l8 -8l23 2l49 -10l21 -22l-9 -21l-18 -23l-56 7l-46 -9l-14 -8h-13l-21 17
l-20 -9l-46 -4l-30 11l-13 25l2 24l34 20h45v26l12 26v36l-12 25l-2 53v50l11 28l-5 46l1 68l-5 11l5 17v31l-13 17h-14l-20 30h-28l-17 -20l-31 -78l-18 -16l-18 2l-22 38l9 84l17 36l21 12l82 -2l231 4l68 -6l11 -14v-24l-3 -2l8 -8h10z" />
    <glyph glyph-name="FLW210" unicode="&#x422;" 
d="M492 530l2 -23l-12 -21l-14 -62l-7 -14h-21l-34 34l-12 -15l-12 25l-10 13v23l-12 18l-6 6l-34 -10l-10 -31l-9 -33v-50l-4 -12l2 -54l-5 -27l7 -51l6 -14l-6 -40l-4 -15l-1 -71l9 -13l13 -25l8 -8l23 2l49 -10l21 -22l-9 -21l-18 -23l-56 7l-46 -9l-14 -8h-13l-21 17
l-20 -9l-46 -4l-30 11l-13 25l2 24l34 20h45v26l12 26v36l-12 25l-2 53v50l11 28l-5 46l1 68l-5 11l5 17v31l-13 17h-14l-20 30h-28l-17 -20l-31 -78l-18 -16l-18 2l-22 38l9 84l17 36l21 12l82 -2l231 4l68 -6l11 -14v-24l-3 -2l8 -8h10z" />
    <glyph glyph-name="FLW211" unicode="&#xd3;" 
d="M498 593l42 -46v-13l-42 -27h-25l-21 -21l-12 -2l-15 -26l-3 -48l-22 -26l-14 -51l-6 -7l-12 -56l-24 -19l-18 -101l-33 -42v-50l11 -26v-20h-11l-13 14l-33 -8l-28 -24l-65 -4l-23 -12l-7 2l-54 36l-18 4l-22 32l-8 27v47l30 24l28 10l46 -12l20 -29l-4 -27l-2 -6v-7
l10 -7l21 7l36 47l13 40l4 57l-18 63l-12 18l-26 87l-31 65l-6 15l-21 23l-4 19l-6 7l-28 -3l-31 13l-8 10l2 7l11 17l20 14l38 4l10 5l28 -5l26 5l47 -9l27 -21v-17l-23 -16l-12 -4l-13 -14v-35l19 -40l2 -31l5 -28l40 -46l8 -2l14 2l24 34l16 17l4 27l-4 25l22 50l-20 34
l-4 5l-25 -1l-17 27v22l4 6h16l14 -8l19 8l33 6l32 13l29 -9l50 11h23z" />
    <glyph glyph-name="FLW211" unicode="&#x423;" 
d="M498 593l42 -46v-13l-42 -27h-25l-21 -21l-12 -2l-15 -26l-3 -48l-22 -26l-14 -51l-6 -7l-12 -56l-24 -19l-18 -101l-33 -42v-50l11 -26v-20h-11l-13 14l-33 -8l-28 -24l-65 -4l-23 -12l-7 2l-54 36l-18 4l-22 32l-8 27v47l30 24l28 10l46 -12l20 -29l-4 -27l-2 -6v-7
l10 -7l21 7l36 47l13 40l4 57l-18 63l-12 18l-26 87l-31 65l-6 15l-21 23l-4 19l-6 7l-28 -3l-31 13l-8 10l2 7l11 17l20 14l38 4l10 5l28 -5l26 5l47 -9l27 -21v-17l-23 -16l-12 -4l-13 -14v-35l19 -40l2 -31l5 -28l40 -46l8 -2l14 2l24 34l16 17l4 27l-4 25l22 50l-20 34
l-4 5l-25 -1l-17 27v22l4 6h16l14 -8l19 8l33 6l32 13l29 -9l50 11h23z" />
    <glyph glyph-name="FLW212" unicode="&#xd4;" 
d="M517 349l11 -73l-19 -29l-21 -25v-36l-6 -13l-60 -59l-20 -4l-18 -15l5 -23l21 -19l10 -4l4 -13v-28l-40 -24l-22 2l-18 10l-49 -3l-46 -11l-21 13l-28 -9l-63 7l-15 23l6 24l14 13h33l15 21l-9 28l-31 27l-28 11l-41 27l-13 21l-14 42l-19 32l8 85l61 89l26 14l38 4
l20 20l34 6l14 16l-2 11l-24 17l-29 -17l-17 1l-20 26v27l24 13l40 -4l34 -7l26 9h34l12 4l14 -2q10 36 16 36q4 0 4 -28h20l14 -10l34 -4l8 -5l9 -16l-4 -13l-7 -10l-40 -3l-14 -11l-37 6l-9 -9l9 -27l11 -10h33l27 -22l35 -6l27 -26l16 -6l14 -21l8 -21zM444 222l14 27v37
l-10 17v31l-8 13l-3 -4l-15 -1l-6 5l-20 53l-34 2l-8 6l-19 24h-13l2 -45l-10 -25l8 -46l-8 -54l-17 -34l19 -66l28 -2l32 9l30 25zM255 203l7 51l-14 22l-6 40l11 12v34l-11 14v43l-6 8l-19 5l-27 -18l-22 -18v-7l-14 -15h-8l-13 -12l-3 -13l-22 -33l-4 -34l4 -4l8 -4
l4 -12l-12 -15v-19l12 -28l44 -38l22 -2l40 -12l23 21v13z" />
    <glyph glyph-name="FLW212" unicode="&#x424;" 
d="M517 349l11 -73l-19 -29l-21 -25v-36l-6 -13l-60 -59l-20 -4l-18 -15l5 -23l21 -19l10 -4l4 -13v-28l-40 -24l-22 2l-18 10l-49 -3l-46 -11l-21 13l-28 -9l-63 7l-15 23l6 24l14 13h33l15 21l-9 28l-31 27l-28 11l-41 27l-13 21l-14 42l-19 32l8 85l61 89l26 14l38 4
l20 20l34 6l14 16l-2 11l-24 17l-29 -17l-17 1l-20 26v27l24 13l40 -4l34 -7l26 9h34l12 4l14 -2q10 36 16 36q4 0 4 -28h20l14 -10l34 -4l8 -5l9 -16l-4 -13l-7 -10l-40 -3l-14 -11l-37 6l-9 -9l9 -27l11 -10h33l27 -22l35 -6l27 -26l16 -6l14 -21l8 -21zM444 222l14 27v37
l-10 17v31l-8 13l-3 -4l-15 -1l-6 5l-20 53l-34 2l-8 6l-19 24h-13l2 -45l-10 -25l8 -46l-8 -54l-17 -34l19 -66l28 -2l32 9l30 25zM255 203l7 51l-14 22l-6 40l11 12v34l-11 14v43l-6 8l-19 5l-27 -18l-22 -18v-7l-14 -15h-8l-13 -12l-3 -13l-22 -33l-4 -34l4 -4l8 -4
l4 -12l-12 -15v-19l12 -28l44 -38l22 -2l40 -12l23 21v13z" />
    <glyph glyph-name="FLW213" unicode="&#xd5;" 
d="M546 33v-23l-22 -11l-30 -5h-26l-7 5l-15 -2l-20 -11l-30 4l-21 4l-57 5l-19 47l2 18l11 6l33 -6l9 2l12 13l-14 31l-17 27l-17 42l-17 19l-2 19l-5 6h-6l-32 -59l-14 -6l-21 -32l-4 -16l-17 -18l6 -9l40 -27l8 -36l-6 -10l-27 -16l-60 5l-13 6l-59 1l-37 -12l-18 5
l-10 21v30l21 16l31 -6h24l21 10l19 26l8 34l20 16l11 14l9 40l18 11l8 8l7 25l19 22l2 23l12 12l-6 30l-29 35l-33 60l-5 26l-43 74l-13 12h-49l-16 9h-13l-2 4l36 21l71 6l16 6l62 -4h24l2 2l22 -31v-13l-13 -12l-27 8l-32 -14v-7l34 -27l6 -6l-4 -16v-8l19 -14l17 -36
l2 -2l25 20l7 9v11l20 20l3 26l10 10v11l-10 7l-27 -1l-13 63l13 11l37 -11l17 13h44l8 5l21 -5l13 -13l25 4h27l13 3h8l11 -13v-34l-8 -14l-12 -6h-44l-14 -3l-32 -40l-28 -57l-15 -20l-13 -34l-31 -35l-3 -30l34 -78l53 -79l23 -61l12 -13h34l24 -6h12z" />
    <glyph glyph-name="FLW213" unicode="&#x425;" 
d="M546 33v-23l-22 -11l-30 -5h-26l-7 5l-15 -2l-20 -11l-30 4l-21 4l-57 5l-19 47l2 18l11 6l33 -6l9 2l12 13l-14 31l-17 27l-17 42l-17 19l-2 19l-5 6h-6l-32 -59l-14 -6l-21 -32l-4 -16l-17 -18l6 -9l40 -27l8 -36l-6 -10l-27 -16l-60 5l-13 6l-59 1l-37 -12l-18 5
l-10 21v30l21 16l31 -6h24l21 10l19 26l8 34l20 16l11 14l9 40l18 11l8 8l7 25l19 22l2 23l12 12l-6 30l-29 35l-33 60l-5 26l-43 74l-13 12h-49l-16 9h-13l-2 4l36 21l71 6l16 6l62 -4h24l2 2l22 -31v-13l-13 -12l-27 8l-32 -14v-7l34 -27l6 -6l-4 -16v-8l19 -14l17 -36
l2 -2l25 20l7 9v11l20 20l3 26l10 10v11l-10 7l-27 -1l-13 63l13 11l37 -11l17 13h44l8 5l21 -5l13 -13l25 4h27l13 3h8l11 -13v-34l-8 -14l-12 -6h-44l-14 -3l-32 -40l-28 -57l-15 -20l-13 -34l-31 -35l-3 -30l34 -78l53 -79l23 -61l12 -13h34l24 -6h12z" />
    <glyph glyph-name="FLW214" unicode="&#xd6;" 
d="M545 7l4 -5l-9 -100l-33 -22h-21l-21 22l-7 28l-6 37v13l-38 16l-140 -2l-23 -8l-32 5l-61 -5l-34 8l-26 -6l-50 14l-18 20l3 34l13 6l38 6l18 21v55l10 36l2 76l-4 30l8 48l-8 30l-6 46l10 18l-2 26l-6 14l8 40l-22 16l-34 10l-6 6v15l40 33l12 2l27 -10l53 8l10 5
l26 -3l27 -20l8 -13l-2 -15l-29 -14l-11 -20l-27 -8l-7 -10l5 -29l2 -47l-2 -128l-11 -23l6 -49v-34l-8 -13l4 -65l11 -19l12 -9l15 2l13 11l67 -19l27 13l34 -7l14 7l19 27l4 80v80l9 12l-4 27l-16 23l11 26l9 12l-9 34l-5 12l14 34l-4 22l-14 20l-4 18l-18 13l-25 3v12
l3 4v4l-7 10l-7 14l36 12h30l20 -8l103 12l13 -4l23 -32l-9 -40l-12 -14l-42 -12l-8 -8l2 -38l20 -6l-2 -9l-20 -25l-5 -32l-8 -14l-7 -41l7 -53l-3 -14v-58l5 -88l19 -15l19 -7l31 -34z" />
    <glyph glyph-name="FLW214" unicode="&#x426;" 
d="M545 7l4 -5l-9 -100l-33 -22h-21l-21 22l-7 28l-6 37v13l-38 16l-140 -2l-23 -8l-32 5l-61 -5l-34 8l-26 -6l-50 14l-18 20l3 34l13 6l38 6l18 21v55l10 36l2 76l-4 30l8 48l-8 30l-6 46l10 18l-2 26l-6 14l8 40l-22 16l-34 10l-6 6v15l40 33l12 2l27 -10l53 8l10 5
l26 -3l27 -20l8 -13l-2 -15l-29 -14l-11 -20l-27 -8l-7 -10l5 -29l2 -47l-2 -128l-11 -23l6 -49v-34l-8 -13l4 -65l11 -19l12 -9l15 2l13 11l67 -19l27 13l34 -7l14 7l19 27l4 80v80l9 12l-4 27l-16 23l11 26l9 12l-9 34l-5 12l14 34l-4 22l-14 20l-4 18l-18 13l-25 3v12
l3 4v4l-7 10l-7 14l36 12h30l20 -8l103 12l13 -4l23 -32l-9 -40l-12 -14l-42 -12l-8 -8l2 -38l20 -6l-2 -9l-20 -25l-5 -32l-8 -14l-7 -41l7 -53l-3 -14v-58l5 -88l19 -15l19 -7l31 -34z" />
    <glyph glyph-name="FLW215" unicode="&#xd7;" 
d="M546 297v-11l-34 -24l-33 -9l-27 -42l7 -38l6 -9l-13 -34l-2 -11v-11l36 -38l30 -6l16 -19l6 -19l-2 -16l-26 -18h-106l-17 -6l-42 11l-13 2l-14 21v25l14 11h26l19 16v44l13 56l-3 12l-25 22l-32 -2l-14 -6h-38l-15 -8h-65l-52 40l-34 46l-10 25l4 19l-4 26v26l-6 12v9
l16 19l-10 44l8 30l-14 25l-13 9l-13 -3l-17 1l-21 35v17l11 8l63 2l17 -6l61 8l32 -8l4 -4l-8 -40l-14 -12l-20 -1l-9 -11l2 -102l5 -11l-7 -92l7 -15l54 -35l28 6l18 -4h8l21 19h33l14 21l4 13l20 20l1 34l8 10l-6 30l4 16l9 10l-5 54v14l-17 19l-72 7l-6 10l26 27l4 13
l14 10l36 -6l11 6l23 -8l17 10l36 -10l27 -2l18 -13l6 -12l-6 -15l-14 -12l-20 -1l-11 -13v-80l4 -70l13 -23l20 -13l34 -12z" />
    <glyph glyph-name="FLW215" unicode="&#x427;" 
d="M546 297v-11l-34 -24l-33 -9l-27 -42l7 -38l6 -9l-13 -34l-2 -11v-11l36 -38l30 -6l16 -19l6 -19l-2 -16l-26 -18h-106l-17 -6l-42 11l-13 2l-14 21v25l14 11h26l19 16v44l13 56l-3 12l-25 22l-32 -2l-14 -6h-38l-15 -8h-65l-52 40l-34 46l-10 25l4 19l-4 26v26l-6 12v9
l16 19l-10 44l8 30l-14 25l-13 9l-13 -3l-17 1l-21 35v17l11 8l63 2l17 -6l61 8l32 -8l4 -4l-8 -40l-14 -12l-20 -1l-9 -11l2 -102l5 -11l-7 -92l7 -15l54 -35l28 6l18 -4h8l21 19h33l14 21l4 13l20 20l1 34l8 10l-6 30l4 16l9 10l-5 54v14l-17 19l-72 7l-6 10l26 27l4 13
l14 10l36 -6l11 6l23 -8l17 10l36 -10l27 -2l18 -13l6 -12l-6 -15l-14 -12l-20 -1l-11 -13v-80l4 -70l13 -23l20 -13l34 -12z" />
    <glyph glyph-name="FLW216" unicode="&#xd8;" 
d="M557 557v-19l-21 -18l-24 -7l-16 -19l-6 -36l14 -100l-12 -32v-27l8 -13l-10 -60l8 -13l-8 -29l6 -47l4 -5l-8 -28l14 -34l22 -31l22 -21l-10 -13l-36 -21l-94 -6h-20l-13 -6h-13l-17 14l-63 -6l-117 4l-9 6l-65 -10l-10 -4l-38 16l-9 13l4 25l36 36l2 66l13 20l-2 32
l-11 14l5 38v30l-3 112l-4 8l7 43l-3 65l-10 17l-34 15v21l7 10l35 3l13 12h13l10 -8h49l27 -6l15 -16l51 18l74 4l13 6l29 -12l9 -18l44 26h107zM425 360l5 12l-5 38l5 14v60l-16 23l-40 12l-27 -25l-17 -2l-12 -8l6 -72l15 -14v-8l-9 -12l13 -24l-13 -10l-6 -32v-26
l-8 -14l-4 -40l8 -28l-4 -32l10 -35l-8 -45l12 -20l13 -6l67 4l7 30v26l8 14v32l-8 41l8 11v136zM238 400l27 44l-15 20l6 16l-6 6l-47 38l-27 -7l-22 -25v-28l-8 -14v-19l12 -27l5 -18l-5 -6l-6 -62l-6 -8l-2 -110l-12 -14l-5 -26l13 -26l10 -34v-30l4 -14l42 -6l38 8
l13 12v49l5 39l8 42l-10 19v51l-6 14l6 42l-6 34l6 10z" />
    <glyph glyph-name="FLW216" unicode="&#x428;" 
d="M557 557v-19l-21 -18l-24 -7l-16 -19l-6 -36l14 -100l-12 -32v-27l8 -13l-10 -60l8 -13l-8 -29l6 -47l4 -5l-8 -28l14 -34l22 -31l22 -21l-10 -13l-36 -21l-94 -6h-20l-13 -6h-13l-17 14l-63 -6l-117 4l-9 6l-65 -10l-10 -4l-38 16l-9 13l4 25l36 36l2 66l13 20l-2 32
l-11 14l5 38v30l-3 112l-4 8l7 43l-3 65l-10 17l-34 15v21l7 10l35 3l13 12h13l10 -8h49l27 -6l15 -16l51 18l74 4l13 6l29 -12l9 -18l44 26h107zM425 360l5 12l-5 38l5 14v60l-16 23l-40 12l-27 -25l-17 -2l-12 -8l6 -72l15 -14v-8l-9 -12l13 -24l-13 -10l-6 -32v-26
l-8 -14l-4 -40l8 -28l-4 -32l10 -35l-8 -45l12 -20l13 -6l67 4l7 30v26l8 14v32l-8 41l8 11v136zM238 400l27 44l-15 20l6 16l-6 6l-47 38l-27 -7l-22 -25v-28l-8 -14v-19l12 -27l5 -18l-5 -6l-6 -62l-6 -8l-2 -110l-12 -14l-5 -26l13 -26l10 -34v-30l4 -14l42 -6l38 8
l13 12v49l5 39l8 42l-10 19v51l-6 14l6 42l-6 34l6 10z" />
    <glyph glyph-name="FLW217" unicode="&#xd9;" 
d="M546 -4l5 -14l-5 -42v-38l-16 -22l-17 -11l-36 6l-25 27l-6 14l12 40l-6 20l-82 20l-24 -10l-34 5l-50 3l-36 -6l-26 10l-16 -8l-34 1l-44 3l-76 22l-14 27l2 13l36 33l4 53l6 8l4 26l-10 58l10 40l4 50l9 19l-4 61l8 17l-6 29l-2 44v22l-36 24l-4 14l17 43l14 6l26 -2
l27 7l25 -5l12 -10l40 -13l23 17l118 -2l36 -25l31 23l40 -9l73 -2l13 -8l6 -6l-6 -24l-21 -30l-13 -10l-8 -10l-6 -107l2 -53l-4 -22l8 -44l-11 -26l3 -42v-113l35 -31l13 -7l8 -9zM244 360l9 66l-9 18l-6 40l-12 24l-26 26l-8 -20l-20 -14l-20 -44l9 -82l-5 -44l-6 -70
l2 -120l6 -6l16 -3l16 -10l6 -34h8l10 2v34l7 17l17 18v52l-6 38l8 38l-6 42l10 13v19zM414 381l12 55l-7 27l-5 41l-8 12l-31 24l-23 -19l-19 -21l-2 -30l-7 -30l4 -17l-8 -133v-36l-6 -38l12 -16v-26l-8 -34l15 -19v-40l25 -11h30l14 11l4 13l-6 56l6 13v37l13 16l5 18
l-5 29l5 23v42z" />
    <glyph glyph-name="FLW217" unicode="&#x429;" 
d="M546 -4l5 -14l-5 -42v-38l-16 -22l-17 -11l-36 6l-25 27l-6 14l12 40l-6 20l-82 20l-24 -10l-34 5l-50 3l-36 -6l-26 10l-16 -8l-34 1l-44 3l-76 22l-14 27l2 13l36 33l4 53l6 8l4 26l-10 58l10 40l4 50l9 19l-4 61l8 17l-6 29l-2 44v22l-36 24l-4 14l17 43l14 6l26 -2
l27 7l25 -5l12 -10l40 -13l23 17l118 -2l36 -25l31 23l40 -9l73 -2l13 -8l6 -6l-6 -24l-21 -30l-13 -10l-8 -10l-6 -107l2 -53l-4 -22l8 -44l-11 -26l3 -42v-113l35 -31l13 -7l8 -9zM244 360l9 66l-9 18l-6 40l-12 24l-26 26l-8 -20l-20 -14l-20 -44l9 -82l-5 -44l-6 -70
l2 -120l6 -6l16 -3l16 -10l6 -34h8l10 2v34l7 17l17 18v52l-6 38l8 38l-6 42l10 13v19zM414 381l12 55l-7 27l-5 41l-8 12l-31 24l-23 -19l-19 -21l-2 -30l-7 -30l4 -17l-8 -133v-36l-6 -38l12 -16v-26l-8 -34l15 -19v-40l25 -11h30l14 11l4 13l-6 56l6 13v37l13 16l5 18
l-5 29l5 23v42z" />
    <glyph glyph-name="FLW218" unicode="&#xda;" 
d="M521 230l17 -30l-4 -73l-18 -57l-26 -27l-6 -15l-7 -14l-31 -5l-25 -15h-61l-57 26l-19 -22l-48 -5l-48 1l-22 18l-1 27l25 27l33 9l9 104v63l-6 137l8 27l-4 36l-10 64l-26 9l-14 9l-32 -6h-4l-10 -9v-17l-20 -23l7 -71l-7 -20l-22 -3l-16 -5l-28 13l-7 63l1 126l14 12
l71 5l61 -7l10 5l30 1l12 11l24 -15l12 7l52 -9l38 -14l6 -40l-54 -14l-11 -14l-1 -66l-9 -28l2 -48l23 -20l27 10l25 -5l26 3l27 -13l41 -9l42 -38zM452 140l4 56l-12 51l-12 18l-41 15l-33 -4l-44 -21l-13 -65l6 -50v-32l9 -18l50 -18l36 -6l17 18l21 1z" />
    <glyph glyph-name="FLW218" unicode="&#x42a;" 
d="M521 230l17 -30l-4 -73l-18 -57l-26 -27l-6 -15l-7 -14l-31 -5l-25 -15h-61l-57 26l-19 -22l-48 -5l-48 1l-22 18l-1 27l25 27l33 9l9 104v63l-6 137l8 27l-4 36l-10 64l-26 9l-14 9l-32 -6h-4l-10 -9v-17l-20 -23l7 -71l-7 -20l-22 -3l-16 -5l-28 13l-7 63l1 126l14 12
l71 5l61 -7l10 5l30 1l12 11l24 -15l12 7l52 -9l38 -14l6 -40l-54 -14l-11 -14l-1 -66l-9 -28l2 -48l23 -20l27 10l25 -5l26 3l27 -13l41 -9l42 -38zM452 140l4 56l-12 51l-12 18l-41 15l-33 -4l-44 -21l-13 -65l6 -50v-32l9 -18l50 -18l36 -6l17 18l21 1z" />
    <glyph glyph-name="FLW219" unicode="&#xdb;" 
d="M312 544v-12l-8 -8h-11v22l2 3zM614 536l10 -17l-4 -10l-27 -17l-9 -8l-8 -40l-16 -7l-7 3l-8 10l-3 23l-6 6h-4l-8 -13l2 -36l-11 -18l-8 -73l6 -21l-6 -42l6 -26l-6 -33l8 -59l-8 -22l4 -44l7 -4l31 -9l31 -36l7 -27v-7l-38 -19h-83l-26 -8l-32 8l-12 9l-34 6l-58 -19
l-40 -2l-13 -8h-17l-15 16l-33 -2l-20 -8l-38 2h-34l-13 -6l-23 6l-28 15l-12 27l15 40l37 22l22 48l-6 60l6 21l-8 55l8 21l-8 59l4 14v124l-7 14l-61 28l-8 19l10 33l57 13l15 -6l25 6l27 -8l20 4l18 -7l27 11h10l17 -25l15 -15v-25l-29 -19l-38 -4l-26 -25l11 -54l6 -6
v-12l-13 -8v-18l17 -36l3 -4l18 14l22 -18h35l15 -18l19 2l13 11l14 -4l28 -27l16 -2l14 -39l10 -8l18 -5l6 -8v-12l-4 -4v-9l12 -9l-14 -26l8 -8l8 1l9 11v54l2 26l7 22l-9 34v18l4 37v31l5 36l-14 27l1 17l-5 16l-8 7l-18 4l-34 27l-4 15l6 19l16 13l34 2l17 11l29 -6
l40 6l74 -20l19 -33zM331 177l2 49l-11 16l-27 10l-27 16l-28 8l-25 -11l-42 -2l-13 -13l-2 -33l10 -27l-14 -74l17 -31l82 -2l13 5l25 2l35 33l5 9l-19 24z" />
    <glyph glyph-name="FLW219" unicode="&#x42b;" 
d="M312 544v-12l-8 -8h-11v22l2 3zM614 536l10 -17l-4 -10l-27 -17l-9 -8l-8 -40l-16 -7l-7 3l-8 10l-3 23l-6 6h-4l-8 -13l2 -36l-11 -18l-8 -73l6 -21l-6 -42l6 -26l-6 -33l8 -59l-8 -22l4 -44l7 -4l31 -9l31 -36l7 -27v-7l-38 -19h-83l-26 -8l-32 8l-12 9l-34 6l-58 -19
l-40 -2l-13 -8h-17l-15 16l-33 -2l-20 -8l-38 2h-34l-13 -6l-23 6l-28 15l-12 27l15 40l37 22l22 48l-6 60l6 21l-8 55l8 21l-8 59l4 14v124l-7 14l-61 28l-8 19l10 33l57 13l15 -6l25 6l27 -8l20 4l18 -7l27 11h10l17 -25l15 -15v-25l-29 -19l-38 -4l-26 -25l11 -54l6 -6
v-12l-13 -8v-18l17 -36l3 -4l18 14l22 -18h35l15 -18l19 2l13 11l14 -4l28 -27l16 -2l14 -39l10 -8l18 -5l6 -8v-12l-4 -4v-9l12 -9l-14 -26l8 -8l8 1l9 11v54l2 26l7 22l-9 34v18l4 37v31l5 36l-14 27l1 17l-5 16l-8 7l-18 4l-34 27l-4 15l6 19l16 13l34 2l17 11l29 -6
l40 6l74 -20l19 -33zM331 177l2 49l-11 16l-27 10l-27 16l-28 8l-25 -11l-42 -2l-13 -13l-2 -33l10 -27l-14 -74l17 -31l82 -2l13 5l25 2l35 33l5 9l-19 24z" />
    <glyph glyph-name="FLW220" unicode="&#xdc;" 
d="M299 414v-10l-5 -6h-12l-12 22l-2 40l12 12l14 -1zM450 230l17 -30l-4 -73l-19 -57l-25 -27l-13 -29l-31 -5l-26 -15h-60l-57 26l-20 -22l-47 -5l-49 1l-22 18l-1 27l26 27l33 9l9 104v63l-7 137l9 27l-15 100l-25 9l-21 36l2 27l23 9l29 1l12 11l24 -15l13 7l51 -9
l39 -14l6 -40l-54 -14l-11 -14l-2 -66l-8 -28l2 -48l22 -20l28 10l24 -5l26 3l28 -13l40 -9l42 -38l6 -32zM381 140l3 56l-12 51l-12 18l-40 15l-34 -4l-44 -21l-12 -65l6 -50v-32l8 -18l51 -18l36 -6l16 18l21 1z" />
    <glyph glyph-name="FLW220" unicode="&#x42c;" 
d="M299 414v-10l-5 -6h-12l-12 22l-2 40l12 12l14 -1zM450 230l17 -30l-4 -73l-19 -57l-25 -27l-13 -29l-31 -5l-26 -15h-60l-57 26l-20 -22l-47 -5l-49 1l-22 18l-1 27l26 27l33 9l9 104v63l-7 137l9 27l-15 100l-25 9l-21 36l2 27l23 9l29 1l12 11l24 -15l13 7l51 -9
l39 -14l6 -40l-54 -14l-11 -14l-2 -66l-8 -28l2 -48l22 -20l28 10l24 -5l26 3l28 -13l40 -9l42 -38l6 -32zM381 140l3 56l-12 51l-12 18l-40 15l-34 -4l-44 -21l-12 -65l6 -50v-32l8 -18l51 -18l36 -6l16 18l21 1z" />
    <glyph glyph-name="FLW221" unicode="&#xdd;" 
d="M503 299v-27l-11 -40l-12 -20l-8 -66l-26 -34l-14 -48l-14 -42l-20 -6l-28 -26l-27 -4l-21 -14l-36 6l-8 -6l-36 12h-29l-17 15l-36 10l-27 23l-21 16l-23 48l-9 30v20l32 46h19l45 -6l20 -22l15 -32l13 -16v-20l20 -24l14 -14l51 14h21l13 24l37 2l16 21l4 27l23 26
l2 58l-7 8l-20 -6l-28 27l-80 -2l-12 6l-18 -4h-8l-14 21v23l18 15l40 2l22 11l38 -1l22 -14l22 14l23 1l8 11l-8 35l-17 21l6 24l-14 30l-22 32l-6 12l-6 4h-24l-8 6l-37 -2l-15 -16l-16 22l-15 -6l-25 -31l-19 -9l-15 -20l-12 -32v-14l-22 -30l-25 -18h-19l-6 14l-8 76
l6 10l-6 34l-5 67l5 15l26 18h18l27 -22l61 10l52 26l10 -1l20 -19l26 8l18 -2l24 -22l26 -9l48 -40l9 -49l7 -32l20 -32l2 -23l6 -17l-2 -54z" />
    <glyph glyph-name="FLW221" unicode="&#x42d;" 
d="M503 299v-27l-11 -40l-12 -20l-8 -66l-26 -34l-14 -48l-14 -42l-20 -6l-28 -26l-27 -4l-21 -14l-36 6l-8 -6l-36 12h-29l-17 15l-36 10l-27 23l-21 16l-23 48l-9 30v20l32 46h19l45 -6l20 -22l15 -32l13 -16v-20l20 -24l14 -14l51 14h21l13 24l37 2l16 21l4 27l23 26
l2 58l-7 8l-20 -6l-28 27l-80 -2l-12 6l-18 -4h-8l-14 21v23l18 15l40 2l22 11l38 -1l22 -14l22 14l23 1l8 11l-8 35l-17 21l6 24l-14 30l-22 32l-6 12l-6 4h-24l-8 6l-37 -2l-15 -16l-16 22l-15 -6l-25 -31l-19 -9l-15 -20l-12 -32v-14l-22 -30l-25 -18h-19l-6 14l-8 76
l6 10l-6 34l-5 67l5 15l26 18h18l27 -22l61 10l52 26l10 -1l20 -19l26 8l18 -2l24 -22l26 -9l48 -40l9 -49l7 -32l20 -32l2 -23l6 -17l-2 -54z" />
    <glyph glyph-name="FLW222" unicode="&#xde;" 
d="M540 398l14 -130l-5 -64l-7 -48l-16 -46l-11 -14l-2 -34l-51 -65l-24 -21h-38l-13 -4l-25 6l-38 18l-22 13l-20 3l-14 -26l-160 -14l-88 6l-17 18l5 52l20 14l32 2l19 11l13 15l3 82v34l5 112l2 126l4 16l-4 49l-23 4l-17 11l-34 2l-8 10v28l15 16l45 9l82 -13l20 4l37 4
h17l24 -27l12 -11l12 3l24 17l46 10l12 8l60 2l52 -22l37 -47l11 -57l16 -38zM240 437l6 47l-10 25l-10 2l-7 -5l3 -29l-7 -13l-13 -8h-21l-6 -6l-9 -100l13 -20l17 -6l30 26v16l-11 16l-9 2l-25 16v19l7 11l20 2l7 -8l6 -32l11 8zM475 164l5 28v212l-5 13l-10 43l-30 51
l-19 11l-23 4l-17 -9l-30 -4l-11 -7l-15 -29l-6 -19l-8 -50l-13 -24l-11 -40v-47l13 -19l19 2l12 -12l2 -26l-8 -12l-20 -7v-11l8 -35l4 -27l16 -52l38 -32l40 -4l21 8l29 22l11 38zM234 66l6 19l-6 25l6 40l-8 13l-10 23l-16 18l-4 19l-6 13l-14 2l-3 -6l-4 -30l-7 -32
l-6 -80l17 -24h30l12 -4z" />
    <glyph glyph-name="FLW222" unicode="&#x42e;" 
d="M540 398l14 -130l-5 -64l-7 -48l-16 -46l-11 -14l-2 -34l-51 -65l-24 -21h-38l-13 -4l-25 6l-38 18l-22 13l-20 3l-14 -26l-160 -14l-88 6l-17 18l5 52l20 14l32 2l19 11l13 15l3 82v34l5 112l2 126l4 16l-4 49l-23 4l-17 11l-34 2l-8 10v28l15 16l45 9l82 -13l20 4l37 4
h17l24 -27l12 -11l12 3l24 17l46 10l12 8l60 2l52 -22l37 -47l11 -57l16 -38zM240 437l6 47l-10 25l-10 2l-7 -5l3 -29l-7 -13l-13 -8h-21l-6 -6l-9 -100l13 -20l17 -6l30 26v16l-11 16l-9 2l-25 16v19l7 11l20 2l7 -8l6 -32l11 8zM475 164l5 28v212l-5 13l-10 43l-30 51
l-19 11l-23 4l-17 -9l-30 -4l-11 -7l-15 -29l-6 -19l-8 -50l-13 -24l-11 -40v-47l13 -19l19 2l12 -12l2 -26l-8 -12l-20 -7v-11l8 -35l4 -27l16 -52l38 -32l40 -4l21 8l29 22l11 38zM234 66l6 19l-6 25l6 40l-8 13l-10 23l-16 18l-4 19l-6 13l-14 2l-3 -6l-4 -30l-7 -32
l-6 -80l17 -24h30l12 -4z" />
    <glyph glyph-name="FLW223" unicode="&#xdf;" 
d="M565 58l17 -8l-19 -24l-7 -21l-44 -21l-22 6l-65 -6l-27 8l-67 -6l-45 13l-16 23l-4 34l-6 6v2l6 6l38 2l18 7h32l8 9l-4 28l-9 14l-18 2l-5 4l25 4l5 10v34l16 44l6 4v10l-20 8l-36 34h-26l-18 -21h-34l-22 -31l-17 -142l-5 -5v-48l-23 -34l-35 -19h-53l-38 21l-7 19
l-16 21l-4 53l14 32l18 6l37 -11l25 5l19 22l5 100l14 20l-4 31l-19 34l-15 5l-16 18l-13 26l2 110l7 13l33 31l21 13l26 25l31 6l23 14l28 6l129 -7l21 5l30 -9h36l44 -2l16 -7l14 -22l-3 -40l-31 -22h-26l-14 9l-11 -3l-15 -22l9 -40l-7 -72l-6 -39l12 -157l-4 -26l-8 -14
l8 -46l22 -15l42 -5l24 -14zM378 440l7 33l-9 38h-4l-8 -2l-13 -19l-11 -4l-8 10l-1 21l-27 15l-44 4l-11 -6h-31l-18 -13l-31 -33l-5 -32l5 -8l2 -62l25 -30h76l26 -19h20l38 27l22 40l5 24z" />
    <glyph glyph-name="FLW223" unicode="&#x42f;" 
d="M565 58l17 -8l-19 -24l-7 -21l-44 -21l-22 6l-65 -6l-27 8l-67 -6l-45 13l-16 23l-4 34l-6 6v2l6 6l38 2l18 7h32l8 9l-4 28l-9 14l-18 2l-5 4l25 4l5 10v34l16 44l6 4v10l-20 8l-36 34h-26l-18 -21h-34l-22 -31l-17 -142l-5 -5v-48l-23 -34l-35 -19h-53l-38 21l-7 19
l-16 21l-4 53l14 32l18 6l37 -11l25 5l19 22l5 100l14 20l-4 31l-19 34l-15 5l-16 18l-13 26l2 110l7 13l33 31l21 13l26 25l31 6l23 14l28 6l129 -7l21 5l30 -9h36l44 -2l16 -7l14 -22l-3 -40l-31 -22h-26l-14 9l-11 -3l-15 -22l9 -40l-7 -72l-6 -39l12 -157l-4 -26l-8 -14
l8 -46l22 -15l42 -5l24 -14zM378 440l7 33l-9 38h-4l-8 -2l-13 -19l-11 -4l-8 10l-1 21l-27 15l-44 4l-11 -6h-31l-18 -13l-31 -33l-5 -32l5 -8l2 -62l25 -30h76l26 -19h20l38 27l22 40l5 24z" />
    <glyph glyph-name="FLW224" unicode="&#xe0;" 
d="M488 114l33 -62l-11 -16l-7 -8h-11l-24 -32l-12 -8l-48 6l-25 7l-23 21l-36 6l-21 -8l-23 -15l-26 -9l-32 5l-61 -9l-34 13l-45 44l-16 3l-17 29v38l-5 9l5 20l31 31l30 40l25 7l2 16l32 2l13 6l35 1l21 10h13l-2 -19l51 8l9 18l-8 14l-21 26l19 29l-17 31l-6 4h-2
l-12 -16l-15 4l-11 15l-2 6h-12l-22 -29v-32l-24 -25l-40 -13l-40 -2l-16 19l-6 34l6 35l47 40l29 9l24 4l18 9h44l18 10l14 -5l22 -14h42l76 -38l30 -44l-10 -33v-11l10 -15l-4 -34v-40l-13 -18l3 -42l-7 -32l5 -26l6 -5l42 31h12zM336 274l11 27l-17 25h-8l-6 -4v-10
l8 -38h12zM356 119l4 81l-11 16l-15 -22h-10l-10 9l-28 -7l-18 -8l-19 -7l-13 9l-38 4l-35 -15l-21 -1l-20 -16l-6 -20l-4 -36l10 -11l15 -20l17 -1l15 -18l27 -9l24 -17h8l12 13l14 36l8 2l18 -11l14 11l18 -2l16 4l23 23z" />
    <glyph glyph-name="FLW224" unicode="&#x430;" 
d="M488 114l33 -62l-11 -16l-7 -8h-11l-24 -32l-12 -8l-48 6l-25 7l-23 21l-36 6l-21 -8l-23 -15l-26 -9l-32 5l-61 -9l-34 13l-45 44l-16 3l-17 29v38l-5 9l5 20l31 31l30 40l25 7l2 16l32 2l13 6l35 1l21 10h13l-2 -19l51 8l9 18l-8 14l-21 26l19 29l-17 31l-6 4h-2
l-12 -16l-15 4l-11 15l-2 6h-12l-22 -29v-32l-24 -25l-40 -13l-40 -2l-16 19l-6 34l6 35l47 40l29 9l24 4l18 9h44l18 10l14 -5l22 -14h42l76 -38l30 -44l-10 -33v-11l10 -15l-4 -34v-40l-13 -18l3 -42l-7 -32l5 -26l6 -5l42 31h12zM336 274l11 27l-17 25h-8l-6 -4v-10
l8 -38h12zM356 119l4 81l-11 16l-15 -22h-10l-10 9l-28 -7l-18 -8l-19 -7l-13 9l-38 4l-35 -15l-21 -1l-20 -16l-6 -20l-4 -36l10 -11l15 -20l17 -1l15 -18l27 -9l24 -17h8l12 13l14 36l8 2l18 -11l14 11l18 -2l16 4l23 23z" />
    <glyph glyph-name="FLW225" unicode="&#xe1;" 
d="M442 265l10 -25l-8 -35v-47l-2 -46l-11 -34l-33 -35l-19 -51l-13 -6h-26l-62 -16h-34l-36 4l-36 18l-14 13l-24 7l-53 73l-2 21l-7 12v52l-8 14l4 26l11 22l-7 31l7 21l-7 32l36 69l2 19l42 36l2 8l38 22l16 14h30l34 20l34 10h29l53 56l43 -13l15 -27l2 -46l4 -5v-7
l-28 -13l-36 -11l-22 -2l-12 -12l6 -26l-6 -18v-11l12 -13h25l11 -14l4 -22l27 -23zM372 132l3 80v28l-9 23l-60 69l-80 5l-32 -17l-60 -62v-82l6 -22l-6 -27l8 -31l16 -11l3 -19l7 -13l26 -8l18 -23h54l14 10h15l19 15h17l9 6l22 40z" />
    <glyph glyph-name="FLW225" unicode="&#x431;" 
d="M442 265l10 -25l-8 -35v-47l-2 -46l-11 -34l-33 -35l-19 -51l-13 -6h-26l-62 -16h-34l-36 4l-36 18l-14 13l-24 7l-53 73l-2 21l-7 12v52l-8 14l4 26l11 22l-7 31l7 21l-7 32l36 69l2 19l42 36l2 8l38 22l16 14h30l34 20l34 10h29l53 56l43 -13l15 -27l2 -46l4 -5v-7
l-28 -13l-36 -11l-22 -2l-12 -12l6 -26l-6 -18v-11l12 -13h25l11 -14l4 -22l27 -23zM372 132l3 80v28l-9 23l-60 69l-80 5l-32 -17l-60 -62v-82l6 -22l-6 -27l8 -31l16 -11l3 -19l7 -13l26 -8l18 -23h54l14 10h15l19 15h17l9 6l22 40z" />
    <glyph glyph-name="FLW226" unicode="&#xe2;" 
d="M470 182l18 -38l-4 -60l-34 -72l-18 -13l-24 -4l-18 -23h-8l-12 12l-31 -8l-27 6l-68 -10h-54l-32 16h-37l-17 -10l-16 6l-11 13v23l27 19h28l22 25l-4 48l4 23v44l9 17l-7 26l2 84l-22 22l-59 21l-21 23v19l29 21l23 12l130 1l10 6l20 -7l44 7l27 -6l31 -19l14 10l18 -4
l68 -52l5 -56v-28l-29 -52l2 -13zM379 244l5 9l-9 59l-11 10l-38 2l-8 7l-6 -7l-8 -20h-5l-2 2l-9 22l-12 3l-24 -7l-14 -6l-8 -20l-2 -47l6 -13h8l34 -12l23 10l19 -10l13 10h35zM398 90l10 34l-4 16l-29 24h-31l-41 5l-59 -11l-10 -10l-6 -17v-40l-5 -31l5 -8l24 4l38 -10
l34 -2l7 8l8 -2l13 -20l4 3h2l40 33v24z" />
    <glyph glyph-name="FLW226" unicode="&#x432;" 
d="M470 182l18 -38l-4 -60l-34 -72l-18 -13l-24 -4l-18 -23h-8l-12 12l-31 -8l-27 6l-68 -10h-54l-32 16h-37l-17 -10l-16 6l-11 13v23l27 19h28l22 25l-4 48l4 23v44l9 17l-7 26l2 84l-22 22l-59 21l-21 23v19l29 21l23 12l130 1l10 6l20 -7l44 7l27 -6l31 -19l14 10l18 -4
l68 -52l5 -56v-28l-29 -52l2 -13zM379 244l5 9l-9 59l-11 10l-38 2l-8 7l-6 -7l-8 -20h-5l-2 2l-9 22l-12 3l-24 -7l-14 -6l-8 -20l-2 -47l6 -13h8l34 -12l23 10l19 -10l13 10h35zM398 90l10 34l-4 16l-29 24h-31l-41 5l-59 -11l-10 -10l-6 -17v-40l-5 -31l5 -8l24 4l38 -10
l34 -2l7 8l8 -2l13 -20l4 3h2l40 33v24z" />
    <glyph glyph-name="FLW227" unicode="&#xe3;" 
d="M503 383v-21l-11 -14l4 -36l-4 -19l-16 -21l-8 -13l-28 -17l-6 -14v-5l-7 9l-4 16l-9 11h-31l-6 29l10 34l-10 13l-34 4h-7v2l-6 5h-2l-6 -13l-36 2l-16 -2l-14 -19v-42l-8 -13l-1 -51l7 -12l-4 -15l-3 -5l1 -26l12 -18l-20 -36l-4 -28l14 -16l53 -3l17 -19v-25l-26 -23
l-71 4h-20l-55 -4l-14 6l-18 -6l-22 10l-12 24v20l26 30l2 13l23 13l13 -4l10 8l-8 25l13 21l6 32l-6 14l6 31l-6 107l-5 9l-8 8l-42 5l-23 14l-7 15l4 13l47 36l67 -4l54 -1l133 1l15 8l27 -8h33z" />
    <glyph glyph-name="FLW227" unicode="&#x433;" 
d="M503 383v-21l-11 -14l4 -36l-4 -19l-16 -21l-8 -13l-28 -17l-6 -14v-5l-7 9l-4 16l-9 11h-31l-6 29l10 34l-10 13l-34 4h-7v2l-6 5h-2l-6 -13l-36 2l-16 -2l-14 -19v-42l-8 -13l-1 -51l7 -12l-4 -15l-3 -5l1 -26l12 -18l-20 -36l-4 -28l14 -16l53 -3l17 -19v-25l-26 -23
l-71 4h-20l-55 -4l-14 6l-18 -6l-22 10l-12 24v20l26 30l2 13l23 13l13 -4l10 8l-8 25l13 21l6 32l-6 14l6 31l-6 107l-5 9l-8 8l-42 5l-23 14l-7 15l4 13l47 36l67 -4l54 -1l133 1l15 8l27 -8h33z" />
    <glyph glyph-name="FLW228" unicode="&#xe4;" 
d="M518 375v-13l-34 -19l-13 -11h-38l-27 -36l-10 -42l16 -33l-8 -27l8 -22l-12 -87l14 -25l11 -7h33l16 -17l18 -4l13 -38l9 -14l-14 -31l-6 -47l-27 -33l-15 -7h-14l-15 20l-3 80l-6 5h-27l-13 9l-36 2l-12 8l-21 -6l-11 6l-20 -10l-21 4l-21 -6h-14l-13 12l-34 -10h-27
l-13 -4l-13 4l-12 -14l-8 -68l-14 -14l-31 12h-9l-11 13l4 57l16 60l27 23l18 2l26 29l2 4h7l13 -20h6l13 34l25 25l-4 35l4 93l8 31l-6 27l-12 7l-9 -5h-4l-3 5v22l-14 9l-24 -7h-12l-21 30l19 53l12 7h34l2 2l24 -2l16 -5h30l8 -7l26 5l8 4l21 -4h25l14 -9l38 -2h21l19 11
l30 -13l25 4zM326 174l5 16l-7 70l-19 20l-12 29l-9 3l-24 -7v-31l18 -18v-9l-6 -7h-2l-4 2l-6 10l-2 -4l-2 -74l8 -36l-11 -19l-9 -38l7 -28l9 -6l40 6l20 13l6 66l-12 31z" />
    <glyph glyph-name="FLW228" unicode="&#x434;" 
d="M518 375v-13l-34 -19l-13 -11h-38l-27 -36l-10 -42l16 -33l-8 -27l8 -22l-12 -87l14 -25l11 -7h33l16 -17l18 -4l13 -38l9 -14l-14 -31l-6 -47l-27 -33l-15 -7h-14l-15 20l-3 80l-6 5h-27l-13 9l-36 2l-12 8l-21 -6l-11 6l-20 -10l-21 4l-21 -6h-14l-13 12l-34 -10h-27
l-13 -4l-13 4l-12 -14l-8 -68l-14 -14l-31 12h-9l-11 13l4 57l16 60l27 23l18 2l26 29l2 4h7l13 -20h6l13 34l25 25l-4 35l4 93l8 31l-6 27l-12 7l-9 -5h-4l-3 5v22l-14 9l-24 -7h-12l-21 30l19 53l12 7h34l2 2l24 -2l16 -5h30l8 -7l26 5l8 4l21 -4h25l14 -9l38 -2h21l19 11
l30 -13l25 4zM326 174l5 16l-7 70l-19 20l-12 29l-9 3l-24 -7v-31l18 -18v-9l-6 -7h-2l-4 2l-6 10l-2 -4l-2 -74l8 -36l-11 -19l-9 -38l7 -28l9 -6l40 6l20 13l6 66l-12 31z" />
    <glyph glyph-name="FLW229" unicode="&#xe5;" 
d="M442 270v-34l-12 -27l-20 -25h-28l-80 6l-18 -13l-33 5l-17 -18l-19 13l-7 2l-10 -6l-36 -7l-4 -2l-2 -24l6 -5l20 -2l26 -33v-28h9l11 18h6l4 -6v-34l6 -8l19 -3l5 5v12l8 10l12 2l14 -8l24 24l2 -2h11l5 8v26l-7 6l29 15l16 -11l28 9l18 -11l9 -16l-6 -22l-40 -49
l-73 -42l-34 -13l-56 6h-47l-17 22l-40 20l-52 61l-8 27l-6 38l-13 28l17 69v31l15 20l7 24l20 10l6 11l6 23l26 19h20l19 27l47 15h56l18 -15h29l33 -29l20 -5l6 -14v-19l24 -18zM335 266h35v4l-6 10l-6 24l-19 24h-11l-20 21l-32 -5l-28 18l-27 -8l-65 -30l-28 -35v-27
l34 -4l13 8l21 -8l32 -1l27 -17l9 9l10 15l28 -2l22 10zM170 77l2 1v12l-4 26h-6v-32z" />
    <glyph glyph-name="FLW229" unicode="&#x435;" 
d="M442 270v-34l-12 -27l-20 -25h-28l-80 6l-18 -13l-33 5l-17 -18l-19 13l-7 2l-10 -6l-36 -7l-4 -2l-2 -24l6 -5l20 -2l26 -33v-28h9l11 18h6l4 -6v-34l6 -8l19 -3l5 5v12l8 10l12 2l14 -8l24 24l2 -2h11l5 8v26l-7 6l29 15l16 -11l28 9l18 -11l9 -16l-6 -22l-40 -49
l-73 -42l-34 -13l-56 6h-47l-17 22l-40 20l-52 61l-8 27l-6 38l-13 28l17 69v31l15 20l7 24l20 10l6 11l6 23l26 19h20l19 27l47 15h56l18 -15h29l33 -29l20 -5l6 -14v-19l24 -18zM335 266h35v4l-6 10l-6 24l-19 24h-11l-20 21l-32 -5l-28 18l-27 -8l-65 -30l-28 -35v-27
l34 -4l13 8l21 -8l32 -1l27 -17l9 9l10 15l28 -2l22 10zM170 77l2 1v12l-4 26h-6v-32z" />
    <glyph glyph-name="FLW230" unicode="&#xe6;" 
d="M557 24v-8l-7 -10l-98 -18l-38 14l-18 14l-19 -4l-38 -26l-34 11l-21 -6l-19 6h-29l-10 15l10 30l6 4v10l12 14l-2 18l14 12l2 27l-28 -3l-8 18l-26 -4l-25 -22l1 -38l4 -12l21 -21l-2 -29l-21 -24l-32 10l-40 -11l-14 -7l-15 2l-25 26l-4 21l-18 23l2 34l13 14l13 -4
l12 -10l2 -13l28 -21h10l9 12v16l6 16l5 8l-5 14l11 42l30 22l10 23l-6 53q-5 44 -18 44q-9 0 -26 -13l-13 23l-7 4l-29 -14l-11 3l-4 42l8 33l18 26l12 8l38 -14l6 -11l26 -13l22 -16l13 -4l4 -14l8 -14q4 -8 5.5 -21.5t13.5 -28.5l-12 -10v-8l14 -20h14l7 7v33l11 32
l-11 15v18l-19 17l-10 13l-2 21l58 16l20 -6l6 -6l38 -6l16 -20v-14l-23 -4l-6 -14v-55l-6 -7l-19 -2l-9 -20l1 -13h33l21 9l11 20l8 68l23 24l17 32l9 8h45l38 -32l4 -40l-4 -18l-31 -22l-56 -2l-18 -26l-6 -38v-21l21 -45l-2 -16l-11 -10v-11l13 -5l11 -16l4 -24l24 -14
l13 -14l29 30h24l8 -9l4 -40zM131 362l11 10l-6 12h-11l-2 -14zM256 192h2v12h-6l-2 -6zM396 95l8 27l-27 7v6l-2 13l-37 8l-16 2l-6 -2l-19 -16v-19l19 -17l-12 -26l12 -20q8 -14 38 -14h4l17 24h17l6 4z" />
    <glyph glyph-name="FLW230" unicode="&#x436;" 
d="M557 24v-8l-7 -10l-98 -18l-38 14l-18 14l-19 -4l-38 -26l-34 11l-21 -6l-19 6h-29l-10 15l10 30l6 4v10l12 14l-2 18l14 12l2 27l-28 -3l-8 18l-26 -4l-25 -22l1 -38l4 -12l21 -21l-2 -29l-21 -24l-32 10l-40 -11l-14 -7l-15 2l-25 26l-4 21l-18 23l2 34l13 14l13 -4
l12 -10l2 -13l28 -21h10l9 12v16l6 16l5 8l-5 14l11 42l30 22l10 23l-6 53q-5 44 -18 44q-9 0 -26 -13l-13 23l-7 4l-29 -14l-11 3l-4 42l8 33l18 26l12 8l38 -14l6 -11l26 -13l22 -16l13 -4l4 -14l8 -14q4 -8 5.5 -21.5t13.5 -28.5l-12 -10v-8l14 -20h14l7 7v33l11 32
l-11 15v18l-19 17l-10 13l-2 21l58 16l20 -6l6 -6l38 -6l16 -20v-14l-23 -4l-6 -14v-55l-6 -7l-19 -2l-9 -20l1 -13h33l21 9l11 20l8 68l23 24l17 32l9 8h45l38 -32l4 -40l-4 -18l-31 -22l-56 -2l-18 -26l-6 -38v-21l21 -45l-2 -16l-11 -10v-11l13 -5l11 -16l4 -24l24 -14
l13 -14l29 30h24l8 -9l4 -40zM131 362l11 10l-6 12h-11l-2 -14zM256 192h2v12h-6l-2 -6zM396 95l8 27l-27 7v6l-2 13l-37 8l-16 2l-6 -2l-19 -16v-19l19 -17l-12 -26l12 -20q8 -14 38 -14h4l17 24h17l6 4z" />
    <glyph glyph-name="FLW231" unicode="&#xe7;" 
d="M442 134l8 -11l-17 -69l-31 -32l-22 -15l-20 -11h-20l-24 -16h-63l-17 12h-23l-27 22l-34 6l-59 61v53l15 27l14 5l32 -5l21 -9l17 -29l-4 -9l-15 -20l2 -18l31 -24l28 4l55 -4l20 8h26l19 19v4l6 5l16 -5l10 9l1 50l-5 6l-22 2l-20 18l-32 4l-15 9l-33 -7l-18 10l-14 16
v19l27 23l38 4l7 4l42 11l26 27l-6 18l-13 20l-27 13l-16 25h-38l-40 -4l-32 -30l-4 -29v-6l-13 -5h-17l-20 -14l-30 4l-8 13l12 67v36l12 18l20 8l38 4l10 4l57 -2l13 6l31 -6l23 -6l40 -1l22 -19l26 -8l34 -38l4 -40v-23l-6 -11l6 -23l-6 -9l8 -16v-4l-13 -9l-15 -25
l4 -12l16 -18z" />
    <glyph glyph-name="FLW231" unicode="&#x437;" 
d="M442 134l8 -11l-17 -69l-31 -32l-22 -15l-20 -11h-20l-24 -16h-63l-17 12h-23l-27 22l-34 6l-59 61v53l15 27l14 5l32 -5l21 -9l17 -29l-4 -9l-15 -20l2 -18l31 -24l28 4l55 -4l20 8h26l19 19v4l6 5l16 -5l10 9l1 50l-5 6l-22 2l-20 18l-32 4l-15 9l-33 -7l-18 10l-14 16
v19l27 23l38 4l7 4l42 11l26 27l-6 18l-13 20l-27 13l-16 25h-38l-40 -4l-32 -30l-4 -29v-6l-13 -5h-17l-20 -14l-30 4l-8 13l12 67v36l12 18l20 8l38 4l10 4l57 -2l13 6l31 -6l23 -6l40 -1l22 -19l26 -8l34 -38l4 -40v-23l-6 -11l6 -23l-6 -9l8 -16v-4l-13 -9l-15 -25
l4 -12l16 -18z" />
    <glyph glyph-name="FLW232" unicode="&#xe8;" 
d="M230 312l6 -6l-2 -10h-12l-2 2l8 14h2zM461 37l8 -11l-8 -27l-45 -21h-8l-16 13l-24 -3l-21 16l-19 -5h-14l-18 17v17l13 19h19l2 -2h10l7 8l7 26l12 16l-4 22l8 36l-29 8h-15l-12 -4h-5l-7 -20l-13 -11h-27l-6 -5l6 -16l8 -2h8v-8l-4 -5h-23l-17 -17l-14 -1l-17 -19v-28
l-13 -20l-10 -8l-30 -5l-15 -11l-33 9l-9 -7l-46 16l-1 16l34 19l18 -2h10l6 7l-6 20l14 48l-16 120l4 17l-8 35l18 32l-10 42l-4 4l-44 2l-6 8l4 13l16 17l74 -11l40 11l24 -4l20 -38l-4 -22l-4 -5l-19 -2l-19 -38l-26 -13v-18l11 -18l21 -6l6 -8l-12 -19l-13 -13l7 -27
l18 -19l14 4l8 8l-2 28l34 6l32 -6l10 4l6 4l-28 13l-10 17l4 14l14 20l-6 38l20 14l11 15v31l-7 10l16 17l40 4l31 -4l42 17l25 -4l7 -18v-14l-30 -24l-17 -2l-12 -16l6 -96l6 -21l-10 -32l-10 -27l8 -48v-58l21 -18l31 5l2 4h5zM173 333l3 13l-7 12l-7 2l-8 -6v-21l6 -5h7
zM354 209l12 49l-2 22l-19 4l-11 -34l-3 -58l31 -13v17zM173 84l7 20v40l-18 12l-8 -12l-12 -54l12 -18h8z" />
    <glyph glyph-name="FLW232" unicode="&#x438;" 
d="M230 312l6 -6l-2 -10h-12l-2 2l8 14h2zM461 37l8 -11l-8 -27l-45 -21h-8l-16 13l-24 -3l-21 16l-19 -5h-14l-18 17v17l13 19h19l2 -2h10l7 8l7 26l12 16l-4 22l8 36l-29 8h-15l-12 -4h-5l-7 -20l-13 -11h-27l-6 -5l6 -16l8 -2h8v-8l-4 -5h-23l-17 -17l-14 -1l-17 -19v-28
l-13 -20l-10 -8l-30 -5l-15 -11l-33 9l-9 -7l-46 16l-1 16l34 19l18 -2h10l6 7l-6 20l14 48l-16 120l4 17l-8 35l18 32l-10 42l-4 4l-44 2l-6 8l4 13l16 17l74 -11l40 11l24 -4l20 -38l-4 -22l-4 -5l-19 -2l-19 -38l-26 -13v-18l11 -18l21 -6l6 -8l-12 -19l-13 -13l7 -27
l18 -19l14 4l8 8l-2 28l34 6l32 -6l10 4l6 4l-28 13l-10 17l4 14l14 20l-6 38l20 14l11 15v31l-7 10l16 17l40 4l31 -4l42 17l25 -4l7 -18v-14l-30 -24l-17 -2l-12 -16l6 -96l6 -21l-10 -32l-10 -27l8 -48v-58l21 -18l31 5l2 4h5zM173 333l3 13l-7 12l-7 2l-8 -6v-21l6 -5h7
zM354 209l12 49l-2 22l-19 4l-11 -34l-3 -58l31 -13v17zM173 84l7 20v40l-18 12l-8 -12l-12 -54l12 -18h8z" />
    <glyph glyph-name="FLW233" unicode="&#xe9;" 
d="M424 568l5 -53l-13 -13l-14 -2l-11 -12v-46h-13l-24 22h-10l-11 -16v-6l-21 4l-15 -13h-23l-8 17l-2 27l-7 9l-19 -9l-6 -8v-9l12 -12v-6h-4l-16 4l-11 14l-9 -4l-8 -14l-10 -9l-4 9v20l-11 11l-31 2l-24 38l-6 34l6 23l40 30l23 14l19 -4l11 -8h15l12 -53l4 -5l10 -18
l14 -4l12 4l10 35l15 -10l17 -2v27l44 32l22 -4zM463 420l10 -12l-2 -18l-19 -15l-36 -7l-10 7h-6l-7 -11l7 -40l-7 -22l13 -20v-69l-4 -9l-22 6l-18 40l-4 5h-40l-11 -25l-16 -13l2 -21l-13 -2l-8 -8l-2 -13l-17 -11l-7 -10v-44l-8 -8l-29 2l-11 -14l11 -45l-9 -21l-14 -8
l-36 8l-13 -8l-71 2l-6 12v9l12 11h40l18 22l34 7l9 44l-4 27l-13 8h-25l-15 38l9 27l-9 93l-4 54l-14 12h-32l-8 8l2 14l17 8l23 -2l30 -12l43 18h9l10 -18l14 -12l6 -20l-16 -33l-25 -21v-17l19 -25l14 -28h7l15 -12l18 -18h18l2 18l14 25l16 23l-10 23l17 10l4 35l-14 31
l6 13l12 10l17 -2l18 -12l14 4l8 14l25 2l25 18zM452 41v-11l-15 -4l-19 -14l-29 4h-29l-9 6l-18 -10l-21 2l-6 14v9l12 11l31 -2l5 4l-5 31l5 21l18 19v14l-12 25l2 26l16 -2l13 -22l11 -34v-26l-9 -12l5 -18l40 -24h6zM144 306v14h-4l-9 -12l2 -2h11z" />
    <glyph glyph-name="FLW233" unicode="&#x439;" 
d="M424 568l5 -53l-13 -13l-14 -2l-11 -12v-46h-13l-24 22h-10l-11 -16v-6l-21 4l-15 -13h-23l-8 17l-2 27l-7 9l-19 -9l-6 -8v-9l12 -12v-6h-4l-16 4l-11 14l-9 -4l-8 -14l-10 -9l-4 9v20l-11 11l-31 2l-24 38l-6 34l6 23l40 30l23 14l19 -4l11 -8h15l12 -53l4 -5l10 -18
l14 -4l12 4l10 35l15 -10l17 -2v27l44 32l22 -4zM463 420l10 -12l-2 -18l-19 -15l-36 -7l-10 7h-6l-7 -11l7 -40l-7 -22l13 -20v-69l-4 -9l-22 6l-18 40l-4 5h-40l-11 -25l-16 -13l2 -21l-13 -2l-8 -8l-2 -13l-17 -11l-7 -10v-44l-8 -8l-29 2l-11 -14l11 -45l-9 -21l-14 -8
l-36 8l-13 -8l-71 2l-6 12v9l12 11h40l18 22l34 7l9 44l-4 27l-13 8h-25l-15 38l9 27l-9 93l-4 54l-14 12h-32l-8 8l2 14l17 8l23 -2l30 -12l43 18h9l10 -18l14 -12l6 -20l-16 -33l-25 -21v-17l19 -25l14 -28h7l15 -12l18 -18h18l2 18l14 25l16 23l-10 23l17 10l4 35l-14 31
l6 13l12 10l17 -2l18 -12l14 4l8 14l25 2l25 18zM452 41v-11l-15 -4l-19 -14l-29 4h-29l-9 6l-18 -10l-21 2l-6 14v9l12 11l31 -2l5 4l-5 31l5 21l18 19v14l-12 25l2 26l16 -2l13 -22l11 -34v-26l-9 -12l5 -18l40 -24h6zM144 306v14h-4l-9 -12l2 -2h11z" />
    <glyph glyph-name="FLW234" unicode="&#xea;" 
d="M274 387l15 -12l-13 -27l-26 -13l-37 -4l-7 -19l7 -16l21 -14l2 -16l-40 -8l-10 -20l2 -27l22 -21l-16 -42l-6 -44l8 -22l-2 -43l14 -11h7l17 18h27l9 14h6l2 -30l10 -6l-6 -27l-14 -11l-26 2h-27l-19 -4h-92l-34 11l-2 11l2 20l14 11h26l11 -4h7l18 25l2 138l14 28
l-20 98l-8 14l-10 8l-16 -2l-14 -11l-13 2l-19 31l-6 21l6 19l12 14l42 -6l54 4l11 4l23 -14l30 6l42 -4v-21zM478 78l10 -32l-2 -18l-32 -44l-32 -12h-34l-13 6h-15l-38 74l-8 30l2 18v8l-16 21l-5 19l-9 8l-20 -6l-30 21l-14 15l10 31l54 7l9 6l5 6l9 20l-10 22l15 11
l8 33l-6 24l6 26l20 21l6 19l14 6l44 7l29 -19l11 -2l40 -46l-4 -25l-20 -49l-8 -6l-38 4l-10 2h-6l-38 -16l-2 -36l-23 -10l-9 -11v-15l14 -12l20 20h4l6 -6l-6 -29l6 -25l10 -18v-31l11 -23l3 -16l6 -6l25 8l15 20v6h25zM308 42v-9l-2 -3h-7l-4 3l5 11z" />
    <glyph glyph-name="FLW234" unicode="&#x43a;" 
d="M274 387l15 -12l-13 -27l-26 -13l-37 -4l-7 -19l7 -16l21 -14l2 -16l-40 -8l-10 -20l2 -27l22 -21l-16 -42l-6 -44l8 -22l-2 -43l14 -11h7l17 18h27l9 14h6l2 -30l10 -6l-6 -27l-14 -11l-26 2h-27l-19 -4h-92l-34 11l-2 11l2 20l14 11h26l11 -4h7l18 25l2 138l14 28
l-20 98l-8 14l-10 8l-16 -2l-14 -11l-13 2l-19 31l-6 21l6 19l12 14l42 -6l54 4l11 4l23 -14l30 6l42 -4v-21zM478 78l10 -32l-2 -18l-32 -44l-32 -12h-34l-13 6h-15l-38 74l-8 30l2 18v8l-16 21l-5 19l-9 8l-20 -6l-30 21l-14 15l10 31l54 7l9 6l5 6l9 20l-10 22l15 11
l8 33l-6 24l6 26l20 21l6 19l14 6l44 7l29 -19l11 -2l40 -46l-4 -25l-20 -49l-8 -6l-38 4l-10 2h-6l-38 -16l-2 -36l-23 -10l-9 -11v-15l14 -12l20 20h4l6 -6l-6 -29l6 -25l10 -18v-31l11 -23l3 -16l6 -6l25 8l15 20v6h25zM308 42v-9l-2 -3h-7l-4 3l5 11z" />
    <glyph glyph-name="FLW235" unicode="&#xeb;" 
d="M500 389v-19l-60 -39l-20 7l-6 -14l-2 -35l-10 -21v-70l-2 -19l8 -57l-8 -24l2 -20v-8l18 -12h20l14 -8h13l-1 -48l-37 -16l-40 2l-25 14l-16 -5l-20 5h-20l-13 6h-15l-21 20v20l13 10l10 -8h17l9 14l-6 13v7l35 4l11 10v10l-15 20v14l-9 6v36l-4 6l6 21l28 21l8 10
l-20 36l-43 31h-10l-3 -11l7 -43h-11l-10 15v8l-10 6l-9 -2l-13 -18l-6 -49v-46l21 -19l4 -8l-6 -13l-27 -11l-5 -8v-19l1 -3v-10l-22 -16l-4 -36l-50 -24l-38 -3l-36 19l-12 4l-8 8l-9 52l19 32v4l10 10l40 -4l21 -36l13 -6l33 7l5 13v27l10 11l2 24l6 41l8 27l-4 44l13 26
l-11 26l-20 17l-7 -1h-8l-11 14l-16 12h-18l-8 8l2 18l24 16l98 -6l12 8l30 -25l13 19l41 8l60 2l14 -8l26 12l42 -14zM293 324h6v9h-6v-9z" />
    <glyph glyph-name="FLW235" unicode="&#x43b;" 
d="M500 389v-19l-60 -39l-20 7l-6 -14l-2 -35l-10 -21v-70l-2 -19l8 -57l-8 -24l2 -20v-8l18 -12h20l14 -8h13l-1 -48l-37 -16l-40 2l-25 14l-16 -5l-20 5h-20l-13 6h-15l-21 20v20l13 10l10 -8h17l9 14l-6 13v7l35 4l11 10v10l-15 20v14l-9 6v36l-4 6l6 21l28 21l8 10
l-20 36l-43 31h-10l-3 -11l7 -43h-11l-10 15v8l-10 6l-9 -2l-13 -18l-6 -49v-46l21 -19l4 -8l-6 -13l-27 -11l-5 -8v-19l1 -3v-10l-22 -16l-4 -36l-50 -24l-38 -3l-36 19l-12 4l-8 8l-9 52l19 32v4l10 10l40 -4l21 -36l13 -6l33 7l5 13v27l10 11l2 24l6 41l8 27l-4 44l13 26
l-11 26l-20 17l-7 -1h-8l-11 14l-16 12h-18l-8 8l2 18l24 16l98 -6l12 8l30 -25l13 19l41 8l60 2l14 -8l26 12l42 -14zM293 324h6v9h-6v-9z" />
    <glyph glyph-name="FLW236" unicode="&#xec;" 
d="M508 379v-19l-5 -6l-27 6l-22 -8l-22 -20h-32l-6 -12l6 -15l8 -11l6 -6l13 4h7l18 -33v-31l-4 -16l4 -34l-4 -20l-8 -12l2 -27l6 -15l-6 -32l8 -21l16 -13l26 -4l8 -8l-4 -14l-35 -18l-13 -8l-27 14l-67 5l-13 13v6l38 16l29 58l-16 74l-5 9l2 27v10l21 14l4 20v6l-8 7
l-32 -17l-14 -60v-27l-32 -32l6 -35l-25 -26l-8 -30v-20l-27 -26l-18 2l-14 30l-12 34l6 16l-6 18l-23 50l-4 58l-13 21l-23 19v6l-6 6l-11 -12l-10 -40l-13 -12h-15l-10 10l6 34l-8 40h25l2 -4h2l4 4l-8 14l8 13h13l10 -19v-8l2 -4l9 10v21l-40 27l-7 2l-14 20l-6 6h-26
l-16 25l2 21l14 12l32 -10h44l11 6h11l14 -22l17 -85l23 -21l2 -40l8 -20v-55l18 -38l7 -6h13l22 37l20 11l6 38l12 14l5 40l8 11h7l6 2v48l10 13l-4 33l2 13l19 13l34 4l19 10l39 -14l17 -2zM186 16v-14l-6 -4h-55l-31 14l-20 -12l-21 7l-6 7v14l40 30l11 34v46l8 20l8 11
l7 -2l8 -21l11 -14l-7 -54l5 -18z" />
    <glyph glyph-name="FLW236" unicode="&#x43c;" 
d="M508 379v-19l-5 -6l-27 6l-22 -8l-22 -20h-32l-6 -12l6 -15l8 -11l6 -6l13 4h7l18 -33v-31l-4 -16l4 -34l-4 -20l-8 -12l2 -27l6 -15l-6 -32l8 -21l16 -13l26 -4l8 -8l-4 -14l-35 -18l-13 -8l-27 14l-67 5l-13 13v6l38 16l29 58l-16 74l-5 9l2 27v10l21 14l4 20v6l-8 7
l-32 -17l-14 -60v-27l-32 -32l6 -35l-25 -26l-8 -30v-20l-27 -26l-18 2l-14 30l-12 34l6 16l-6 18l-23 50l-4 58l-13 21l-23 19v6l-6 6l-11 -12l-10 -40l-13 -12h-15l-10 10l6 34l-8 40h25l2 -4h2l4 4l-8 14l8 13h13l10 -19v-8l2 -4l9 10v21l-40 27l-7 2l-14 20l-6 6h-26
l-16 25l2 21l14 12l32 -10h44l11 6h11l14 -22l17 -85l23 -21l2 -40l8 -20v-55l18 -38l7 -6h13l22 37l20 11l6 38l12 14l5 40l8 11h7l6 2v48l10 13l-4 33l2 13l19 13l34 4l19 10l39 -14l17 -2zM186 16v-14l-6 -4h-55l-31 14l-20 -12l-21 7l-6 7v14l40 30l11 34v46l8 20l8 11
l7 -2l8 -21l11 -14l-7 -54l5 -18z" />
    <glyph glyph-name="FLW237" unicode="&#xed;" 
d="M498 402l17 -17l-6 -25l-11 -13h-31l-25 -6l-5 -13v-76l7 -12v-12l-7 -10v-49l-7 -38l-10 -35l16 -12l-1 -31l21 -15l26 -12l8 2l12 -10v-16l-6 -4l-61 -4l-25 -8l-26 8h-33l-20 26l5 8l22 17l6 -5h12l11 13l-3 47v58l-6 22l-2 1h-8l-10 -9l-22 8l-26 -22l-28 20l-48 -6
l-13 14l-17 -12l-8 -9l8 -47l-8 -40l6 -44l7 -8l21 14l21 -24v-9l-15 -9l-42 -6l-90 10l-22 5v19l20 12l26 -10l9 12l15 48l-12 16l12 38l-8 46v77l10 57l-4 13l-15 17l-37 -4l-14 18l4 26l45 2l4 6l67 -8h11l9 10l20 -2l30 -32v-10l-6 -6h-46l-26 -30l8 -30l-2 -20l-6 -24
l2 -16l17 -11h36l9 11l24 -6l24 28h8l12 -22v-25l7 -9h3l11 23l7 31l14 -20h6l11 27v53l9 14l-5 15l-9 6l-31 -6l-27 31l7 16l11 12l93 6l7 6z" />
    <glyph glyph-name="FLW237" unicode="&#x43d;" 
d="M498 402l17 -17l-6 -25l-11 -13h-31l-25 -6l-5 -13v-76l7 -12v-12l-7 -10v-49l-7 -38l-10 -35l16 -12l-1 -31l21 -15l26 -12l8 2l12 -10v-16l-6 -4l-61 -4l-25 -8l-26 8h-33l-20 26l5 8l22 17l6 -5h12l11 13l-3 47v58l-6 22l-2 1h-8l-10 -9l-22 8l-26 -22l-28 20l-48 -6
l-13 14l-17 -12l-8 -9l8 -47l-8 -40l6 -44l7 -8l21 14l21 -24v-9l-15 -9l-42 -6l-90 10l-22 5v19l20 12l26 -10l9 12l15 48l-12 16l12 38l-8 46v77l10 57l-4 13l-15 17l-37 -4l-14 18l4 26l45 2l4 6l67 -8h11l9 10l20 -2l30 -32v-10l-6 -6h-46l-26 -30l8 -30l-2 -20l-6 -24
l2 -16l17 -11h36l9 11l24 -6l24 28h8l12 -22v-25l7 -9h3l11 23l7 31l14 -20h6l11 27v53l9 14l-5 15l-9 6l-31 -6l-27 31l7 16l11 12l93 6l7 6z" />
    <glyph glyph-name="FLW238" unicode="&#xee;" 
d="M463 268l11 -87l-11 -45l-29 -74l-30 -34l-17 -16l-27 -22h-70l-10 -8h-19l-13 12l-28 -8l-26 10h-20l-38 34l-13 4l-13 26l-16 15l-5 37l-13 62l6 28v44l18 47l16 31l4 26l14 12l22 6l20 26l20 6l24 14h14l6 -6l16 6l5 6l29 -6l66 -8l34 -34h12l32 -52zM414 152l16 42
l-9 16l-21 72l-32 48l-48 3l-19 17l-87 10l-18 -23l-42 -36l-6 -65l-15 -21v-13l7 -26v-24l16 -52h11l29 -38l44 -26l34 -2h29l9 5h16l8 4l20 25h8l23 15l9 31z" />
    <glyph glyph-name="FLW238" unicode="&#x43e;" 
d="M463 268l11 -87l-11 -45l-29 -74l-30 -34l-17 -16l-27 -22h-70l-10 -8h-19l-13 12l-28 -8l-26 10h-20l-38 34l-13 4l-13 26l-16 15l-5 37l-13 62l6 28v44l18 47l16 31l4 26l14 12l22 6l20 26l20 6l24 14h14l6 -6l16 6l5 6l29 -6l66 -8l34 -34h12l32 -52zM414 152l16 42
l-9 16l-21 72l-32 48l-48 3l-19 17l-87 10l-18 -23l-42 -36l-6 -65l-15 -21v-13l7 -26v-24l16 -52h11l29 -38l44 -26l34 -2h29l9 5h16l8 4l20 25h8l23 15l9 31z" />
    <glyph glyph-name="FLW239" unicode="&#xef;" 
d="M513 49l13 -21l-2 -24l-30 -22h-52l-16 6l-22 -6h-25l-9 -4l-22 4l-20 14l-25 12l-17 -28h-12l-15 14l-65 -6l-20 6l-30 -8h-38l-38 36l4 21l28 17h30l14 21l-4 21l-6 17l-8 8v9l11 14l9 50v47l-9 43l-5 11l12 19l-4 44l-6 6l-36 -6l-6 -4h-8l-18 30l2 24l11 7l15 -4
l6 -3h8l13 9h105l31 7l29 -13l24 6h29l7 5l29 -11l43 4l13 5l27 -12l21 9h13l32 -27v-15l-45 -65l-8 -22l-3 -34l-2 -46l-12 -18l17 -46l-3 -21l-8 -21v-19l17 -27zM384 156l4 40l-8 13v59l6 28l-6 5v13l6 8l-11 28l-9 12l-48 -6l-38 12l-21 -12l-38 -2l-21 -74l6 -24
l-12 -60l6 -16l21 -30v-14l-17 -28l4 -6l4 -28l26 -14l26 -4l14 -13l23 -15l30 25l49 13v30l6 12l-7 32z" />
    <glyph glyph-name="FLW239" unicode="&#x43f;" 
d="M513 49l13 -21l-2 -24l-30 -22h-52l-16 6l-22 -6h-25l-9 -4l-22 4l-20 14l-25 12l-17 -28h-12l-15 14l-65 -6l-20 6l-30 -8h-38l-38 36l4 21l28 17h30l14 21l-4 21l-6 17l-8 8v9l11 14l9 50v47l-9 43l-5 11l12 19l-4 44l-6 6l-36 -6l-6 -4h-8l-18 30l2 24l11 7l15 -4
l6 -3h8l13 9h105l31 7l29 -13l24 6h29l7 5l29 -11l43 4l13 5l27 -12l21 9h13l32 -27v-15l-45 -65l-8 -22l-3 -34l-2 -46l-12 -18l17 -46l-3 -21l-8 -21v-19l17 -27zM384 156l4 40l-8 13v59l6 28l-6 5v13l6 8l-11 28l-9 12l-48 -6l-38 12l-21 -12l-38 -2l-21 -74l6 -24
l-12 -60l6 -16l21 -30v-14l-17 -28l4 -6l4 -28l26 -14l26 -4l14 -13l23 -15l30 25l49 13v30l6 12l-7 32z" />
    <glyph glyph-name="FLW240" unicode="&#xf0;" 
d="M490 270l10 -78l-10 -55l-22 -41l-14 -46l-58 -45l-42 -8l-55 -1l-17 14l-30 -5l-10 3v-18l-8 -12l-18 4v-17l4 -48l6 -5l28 2l32 -10l6 6l14 -8l12 -18l-22 -28l-28 -18h-21l-19 8l-40 -2h-21l-53 -2l-14 -10l-15 4l-23 20v30l18 24l15 7l17 -5l26 30l8 63l8 30l-6 31
l12 66v18l-20 27l6 38l-8 55l8 63l-11 19l-6 6l-27 6l-22 14l7 40l19 17l14 -4l13 -9l36 4l25 -10l26 -20l32 16l24 23h42l8 5l23 -3l13 -8l32 -5l40 -26l8 -16l25 -18l23 -65l-13 -15zM419 130l21 56l-8 56l-11 42l-27 60l-28 26l-44 2l-4 -8l-18 -20h-14l-12 12h-14
l-20 -25l-18 -13l-8 -14v-49l6 -67l-8 -22v-29l28 -41l14 -4l51 -40l29 10l7 -6h13l4 10l12 18l17 8l7 22zM314 242l22 -23l-22 -27h-9l-11 23l2 17l9 10h9z" />
    <glyph glyph-name="FLW240" unicode="&#x440;" 
d="M490 270l10 -78l-10 -55l-22 -41l-14 -46l-58 -45l-42 -8l-55 -1l-17 14l-30 -5l-10 3v-18l-8 -12l-18 4v-17l4 -48l6 -5l28 2l32 -10l6 6l14 -8l12 -18l-22 -28l-28 -18h-21l-19 8l-40 -2h-21l-53 -2l-14 -10l-15 4l-23 20v30l18 24l15 7l17 -5l26 30l8 63l8 30l-6 31
l12 66v18l-20 27l6 38l-8 55l8 63l-11 19l-6 6l-27 6l-22 14l7 40l19 17l14 -4l13 -9l36 4l25 -10l26 -20l32 16l24 23h42l8 5l23 -3l13 -8l32 -5l40 -26l8 -16l25 -18l23 -65l-13 -15zM419 130l21 56l-8 56l-11 42l-27 60l-28 26l-44 2l-4 -8l-18 -20h-14l-12 12h-14
l-20 -25l-18 -13l-8 -14v-49l6 -67l-8 -22v-29l28 -41l14 -4l51 -40l29 10l7 -6h13l4 10l12 18l17 8l7 22zM314 242l22 -23l-22 -27h-9l-11 23l2 17l9 10h9z" />
    <glyph glyph-name="FLW241" unicode="&#xf1;" 
d="M476 125l8 -9l-5 -29l-7 -31l-28 -18l-27 -33l-13 -7l-55 -8l-37 -14h-40l-20 -4l-36 4l-44 31l-30 5l-24 12l-25 48l-13 7l-26 69l-12 19l20 132l14 19l2 15l72 57l42 14l16 4l15 11l36 2l13 5l18 -5l9 -11l53 -12l44 -26l16 -26l5 -20l8 -12l-6 -15l11 -23l-7 -24
l-38 -24h-21l-19 12l-8 19l-21 21l-4 40l-13 13l-17 -9l-26 4l-22 -8l-24 8l-24 -23h-17l-13 -13l-6 -38l6 -35l14 -19v-8l-14 -18l7 -22v-8l-27 -6v-22l20 -29l13 -2l57 -42l26 9l13 14h34l10 -6l53 27l34 40l21 19l23 -2l26 -17z" />
    <glyph glyph-name="FLW241" unicode="&#x441;" 
d="M476 125l8 -9l-5 -29l-7 -31l-28 -18l-27 -33l-13 -7l-55 -8l-37 -14h-40l-20 -4l-36 4l-44 31l-30 5l-24 12l-25 48l-13 7l-26 69l-12 19l20 132l14 19l2 15l72 57l42 14l16 4l15 11l36 2l13 5l18 -5l9 -11l53 -12l44 -26l16 -26l5 -20l8 -12l-6 -15l11 -23l-7 -24
l-38 -24h-21l-19 12l-8 19l-21 21l-4 40l-13 13l-17 -9l-26 4l-22 -8l-24 8l-24 -23h-17l-13 -13l-6 -38l6 -35l14 -19v-8l-14 -18l7 -22v-8l-27 -6v-22l20 -29l13 -2l57 -42l26 9l13 14h34l10 -6l53 27l34 40l21 19l23 -2l26 -17z" />
    <glyph glyph-name="FLW242" unicode="&#xf2;" 
d="M442 334l4 -92l-13 -8h-25l-12 8h-8l-22 -27h-14l-6 34l18 23l-2 25l-27 15l-13 -5l-33 13l-7 -40l24 -44h-2l-3 -2l-9 8l-6 -4l2 -27l7 -17l-3 -38v-32l-14 -18l2 -26l24 -32h48l4 -53l-8 -9l-49 -8l-25 -14l-34 6l-19 8h-27l-15 10h-21l-8 9l2 27l40 32l10 6l17 31
l-4 101l-13 21v25l-2 2l-14 -4l-12 13l20 21v42l-20 10h-22l-24 -4l-9 -27l-3 -17l-22 -27l-36 5l-10 10l4 36l6 28v48l23 34l38 4l13 4l22 -2l18 -8l62 6l14 -6l18 8l42 2l10 5l28 -7l60 -8l22 -19l12 -15z" />
    <glyph glyph-name="FLW242" unicode="&#x442;" 
d="M442 334l4 -92l-13 -8h-25l-12 8h-8l-22 -27h-14l-6 34l18 23l-2 25l-27 15l-13 -5l-33 13l-7 -40l24 -44h-2l-3 -2l-9 8l-6 -4l2 -27l7 -17l-3 -38v-32l-14 -18l2 -26l24 -32h48l4 -53l-8 -9l-49 -8l-25 -14l-34 6l-19 8h-27l-15 10h-21l-8 9l2 27l40 32l10 6l17 31
l-4 101l-13 21v25l-2 2l-14 -4l-12 13l20 21v42l-20 10h-22l-24 -4l-9 -27l-3 -17l-22 -27l-36 5l-10 10l4 36l6 28v48l23 34l38 4l13 4l22 -2l18 -8l62 6l14 -6l18 8l42 2l10 5l28 -7l60 -8l22 -19l12 -15z" />
    <glyph glyph-name="FLW243" unicode="&#xf3;" 
d="M596 381v-21l-16 18l-19 -18h-25l-27 -26h-27l-47 -56l-4 -14l-13 -9l-4 -13l4 -31v-17l-22 -32l2 -10l18 -12l-2 -6l-38 -28l-10 -12v-49l-4 -13l6 -27l7 -13l-9 -22l-16 12h-15l-9 -8v-9l9 -9l19 6l21 -26l-5 -22l-14 -9l-12 2l-9 21l-9 6l-8 -6l-4 -6v-42l4 -11l8 -7
h18l14 13h8v-19l-16 -16l-24 14h-44l-25 -40l-27 12l-56 -31l-26 7l-14 6l-36 6l-51 42l-5 56l1 42l13 28l35 25l21 -2l40 -23l22 -35v-9l-9 -6v-7l9 -7l22 2h8l6 8v16l20 3l8 7l-2 26l16 8l9 8l-4 58l-29 58l-5 22l5 24l-5 8l-20 13l-7 13l-2 27l-40 39v44l-33 32l-49 6
l-21 7l-8 11l6 23l13 19l27 12l87 -4l14 -4h52l26 -17l29 -6l19 17h12l16 10l64 8l20 -14l72 17l28 -5l21 -21l27 5zM344 300l18 2v10l-31 20l-43 8l-18 -20h-9l-19 18l-8 -4l-4 -32l6 -18l12 -4l13 4l4 -4l3 -20l-5 -5l-15 -2v-7l15 -22l2 -26l23 -32l26 -12l4 32l19 33v28
l-6 35z" />
    <glyph glyph-name="FLW243" unicode="&#x443;" 
d="M596 381v-21l-16 18l-19 -18h-25l-27 -26h-27l-47 -56l-4 -14l-13 -9l-4 -13l4 -31v-17l-22 -32l2 -10l18 -12l-2 -6l-38 -28l-10 -12v-49l-4 -13l6 -27l7 -13l-9 -22l-16 12h-15l-9 -8v-9l9 -9l19 6l21 -26l-5 -22l-14 -9l-12 2l-9 21l-9 6l-8 -6l-4 -6v-42l4 -11l8 -7
h18l14 13h8v-19l-16 -16l-24 14h-44l-25 -40l-27 12l-56 -31l-26 7l-14 6l-36 6l-51 42l-5 56l1 42l13 28l35 25l21 -2l40 -23l22 -35v-9l-9 -6v-7l9 -7l22 2h8l6 8v16l20 3l8 7l-2 26l16 8l9 8l-4 58l-29 58l-5 22l5 24l-5 8l-20 13l-7 13l-2 27l-40 39v44l-33 32l-49 6
l-21 7l-8 11l6 23l13 19l27 12l87 -4l14 -4h52l26 -17l29 -6l19 17h12l16 10l64 8l20 -14l72 17l28 -5l21 -21l27 5zM344 300l18 2v10l-31 20l-43 8l-18 -20h-9l-19 18l-8 -4l-4 -32l6 -18l12 -4l13 4l4 -4l3 -20l-5 -5l-15 -2v-7l15 -22l2 -26l23 -32l26 -12l4 32l19 33v28
l-6 35z" />
    <glyph glyph-name="FLW244" unicode="&#xf4;" 
d="M538 184l13 -34l-1 -12l-24 -22l-9 -60l-25 -28l-2 -10l-29 -14l-40 -32h-27l-11 -8h-17l-14 24l-9 8l-9 -5l3 -19l6 -10l-9 -40l22 -26l2 -25l19 -15l8 -4v-15l-29 -25h-22l-27 36l-29 27l-21 -11l-21 -8l-18 -32l-2 -14l-4 -2h-7l-21 16l-14 2l-7 9l4 23l38 34l35 50
v40l-22 16l-8 4l-14 -20l-18 6l-13 8l-15 -5l-10 -9l-57 23l-44 51l-21 90l6 26l-8 91l6 59l25 40l32 36l17 14l36 5h31l9 6l18 -11h54v53l-16 11l-22 27l-28 -7l-11 10l-4 36l7 23l16 17l71 -25l23 8l27 -6l23 6l20 17l29 -6l19 -13l8 -13l-8 -34v-13l-42 -19l-24 -38v-32
l26 -10l52 15l76 -36l38 -38l2 -55l12 -20v-86zM472 158l7 78l-13 20l-2 36l-8 13l-8 40l-8 11h-21l-11 6l-23 4l-42 -40l-36 -103l5 -25l-9 -62v-34l21 -17l19 -36h9l18 7l38 -11l38 25l15 34l3 40zM252 163l2 53v47l-8 21l-56 67h-46l-17 -19l-11 -31l9 -36l-6 -4l-23 -23
l-9 -20l-4 -34l15 -48l-11 -26l13 -14l23 -40h9l22 -14l51 14l39 56l2 30z" />
    <glyph glyph-name="FLW244" unicode="&#x444;" 
d="M538 184l13 -34l-1 -12l-24 -22l-9 -60l-25 -28l-2 -10l-29 -14l-40 -32h-27l-11 -8h-17l-14 24l-9 8l-9 -5l3 -19l6 -10l-9 -40l22 -26l2 -25l19 -15l8 -4v-15l-29 -25h-22l-27 36l-29 27l-21 -11l-21 -8l-18 -32l-2 -14l-4 -2h-7l-21 16l-14 2l-7 9l4 23l38 34l35 50
v40l-22 16l-8 4l-14 -20l-18 6l-13 8l-15 -5l-10 -9l-57 23l-44 51l-21 90l6 26l-8 91l6 59l25 40l32 36l17 14l36 5h31l9 6l18 -11h54v53l-16 11l-22 27l-28 -7l-11 10l-4 36l7 23l16 17l71 -25l23 8l27 -6l23 6l20 17l29 -6l19 -13l8 -13l-8 -34v-13l-42 -19l-24 -38v-32
l26 -10l52 15l76 -36l38 -38l2 -55l12 -20v-86zM472 158l7 78l-13 20l-2 36l-8 13l-8 40l-8 11h-21l-11 6l-23 4l-42 -40l-36 -103l5 -25l-9 -62v-34l21 -17l19 -36h9l18 7l38 -11l38 25l15 34l3 40zM252 163l2 53v47l-8 21l-56 67h-46l-17 -19l-11 -31l9 -36l-6 -4l-23 -23
l-9 -20l-4 -34l15 -48l-11 -26l13 -14l23 -40h9l22 -14l51 14l39 56l2 30z" />
    <glyph glyph-name="FLW245" unicode="&#xf5;" 
d="M528 77l10 -29l-4 -39l-8 -15l-14 -10l-60 -4l-24 4l-36 -8l-20 8l-25 -8l-33 14l-9 11l19 29l-25 32l-11 34l-30 25l-24 -19l-11 -2h-5l-6 -6l20 -26v-21l-25 -40l-13 -11l-36 5l-31 -5l-84 13l-27 15l2 17l29 19l31 4l20 10l42 30l16 8l51 64l11 24l-8 28l-16 14
l-24 34l28 46l-34 6l-32 40v13l-7 7l-44 -13h-34l-4 9l4 26l31 12h40l26 6l34 -8h54l12 -6l14 -12l-16 -27l8 -29l34 -18l-12 -14v-6l14 -11l50 39v32l-44 20v14l-12 6h-2v6l14 -6l28 22l34 -6l18 9l54 -11l64 11l24 -13l16 -26l-16 -38l-20 -13l-60 -8l-9 6l-13 -4l-18 -19
l-7 -28l-42 -33l-13 -4l-20 -30l2 -19l27 -30l25 -13l15 -23l9 -24l20 -44l28 5l50 12z" />
    <glyph glyph-name="FLW245" unicode="&#x445;" 
d="M528 77l10 -29l-4 -39l-8 -15l-14 -10l-60 -4l-24 4l-36 -8l-20 8l-25 -8l-33 14l-9 11l19 29l-25 32l-11 34l-30 25l-24 -19l-11 -2h-5l-6 -6l20 -26v-21l-25 -40l-13 -11l-36 5l-31 -5l-84 13l-27 15l2 17l29 19l31 4l20 10l42 30l16 8l51 64l11 24l-8 28l-16 14
l-24 34l28 46l-34 6l-32 40v13l-7 7l-44 -13h-34l-4 9l4 26l31 12h40l26 6l34 -8h54l12 -6l14 -12l-16 -27l8 -29l34 -18l-12 -14v-6l14 -11l50 39v32l-44 20v14l-12 6h-2v6l14 -6l28 22l34 -6l18 9l54 -11l64 11l24 -13l16 -26l-16 -38l-20 -13l-60 -8l-9 6l-13 -4l-18 -19
l-7 -28l-42 -33l-13 -4l-20 -30l2 -19l27 -30l25 -13l15 -23l9 -24l20 -44l28 5l50 12z" />
    <glyph glyph-name="FLW246" unicode="&#xf6;" 
d="M512 -51l7 -13l-7 -27l-30 -38l-10 -7l-11 1l-31 57l8 32l-13 22l-17 12h-27l-17 -10l-64 4l-28 -4l-172 13l-40 14l-9 23l2 17l5 6l26 -6l14 6l24 27l3 106l-5 60l-2 68l-12 24l-34 28l-14 15v23l40 21l37 -9l13 9l36 -4l28 -5l32 5l30 -13l4 -4v-12l-10 -11l-3 -28h-27
l-12 7h-8l-11 -9v-31l-15 -26l6 -56l-12 -18l6 -40l13 -13v-15l-19 -21l12 -31l20 -30l20 -12h16l18 12l17 -6l23 10h2l10 -27l30 25l6 8l4 53l-10 32l6 33l8 16l-10 26l10 20l-2 34l-8 17l-4 23l-16 20l-33 4l-5 6v36l7 8l38 6l13 7l50 -9l32 7l27 -7l25 -4l6 -14l-4 -30
l-12 -11h-14l-9 -15l-3 -60l-2 -11l-20 -21l4 -26l8 -9l-6 -40l6 -61v-26l8 -10h13l13 -14v-9l27 -19z" />
    <glyph glyph-name="FLW246" unicode="&#x446;" 
d="M512 -51l7 -13l-7 -27l-30 -38l-10 -7l-11 1l-31 57l8 32l-13 22l-17 12h-27l-17 -10l-64 4l-28 -4l-172 13l-40 14l-9 23l2 17l5 6l26 -6l14 6l24 27l3 106l-5 60l-2 68l-12 24l-34 28l-14 15v23l40 21l37 -9l13 9l36 -4l28 -5l32 5l30 -13l4 -4v-12l-10 -11l-3 -28h-27
l-12 7h-8l-11 -9v-31l-15 -26l6 -56l-12 -18l6 -40l13 -13v-15l-19 -21l12 -31l20 -30l20 -12h16l18 12l17 -6l23 10h2l10 -27l30 25l6 8l4 53l-10 32l6 33l8 16l-10 26l10 20l-2 34l-8 17l-4 23l-16 20l-33 4l-5 6v36l7 8l38 6l13 7l50 -9l32 7l27 -7l25 -4l6 -14l-4 -30
l-12 -11h-14l-9 -15l-3 -60l-2 -11l-20 -21l4 -26l8 -9l-6 -40l6 -61v-26l8 -10h13l13 -14v-9l27 -19z" />
    <glyph glyph-name="FLW247" unicode="&#xf7;" 
d="M496 20v-22l-27 -12l-6 -6l-27 6l-11 8l-74 -14l-33 6l-27 14l-9 14l14 31l26 13l14 19v6h-16l-11 -6h-11l-16 19l-71 8l-67 44l-20 31l-8 61l8 28v46l-6 12l-16 11l-62 15l-5 25l2 13l33 31l28 -2l10 -7h76l25 7l27 -7l6 5h7l19 -23l-4 -10l-15 -12l-15 -4l-19 -27
l-25 -2l-13 -15l3 -80l14 -48l23 -18l25 -6l28 16l14 -2l7 6l-7 22l5 12l49 18l24 48v20l-13 12h-7l-18 22l-30 4l-5 8l2 42l27 12l20 7l13 -7l27 7l32 -7l32 9l29 -13l7 -8l-2 -28l-11 -14l-36 -13l-7 -12l-6 -57l7 -32l15 -21l6 -67l6 -16l-6 -19l-13 -17l4 -27z" />
    <glyph glyph-name="FLW247" unicode="&#x447;" 
d="M496 20v-22l-27 -12l-6 -6l-27 6l-11 8l-74 -14l-33 6l-27 14l-9 14l14 31l26 13l14 19v6h-16l-11 -6h-11l-16 19l-71 8l-67 44l-20 31l-8 61l8 28v46l-6 12l-16 11l-62 15l-5 25l2 13l33 31l28 -2l10 -7h76l25 7l27 -7l6 5h7l19 -23l-4 -10l-15 -12l-15 -4l-19 -27
l-25 -2l-13 -15l3 -80l14 -48l23 -18l25 -6l28 16l14 -2l7 6l-7 22l5 12l49 18l24 48v20l-13 12h-7l-18 22l-30 4l-5 8l2 42l27 12l20 7l13 -7l27 7l32 -7l32 9l29 -13l7 -8l-2 -28l-11 -14l-36 -13l-7 -12l-6 -57l7 -32l15 -21l6 -67l6 -16l-6 -19l-13 -17l4 -27z" />
    <glyph glyph-name="FLW248" unicode="&#xf8;" 
d="M520 28v-6l-17 -8l-17 -21l-30 -17l-44 -2l-8 -8l-26 4l-29 18l-19 -4l-18 -16l-28 12l-33 -6l-38 2l-15 12l-29 -6h-25l-15 -12l-67 18l-13 5l-5 8l5 21l29 32v32l20 38l-7 70l7 34l-16 72l-20 18l-18 4l-6 32v28l24 16l56 8l24 -6l24 -18l24 3l16 9l17 20l28 -4l7 4
l80 -8l20 -4l4 -42l21 8l23 32l21 -4l13 10l27 -4l36 -36l-5 -22l-26 -30l-5 -23l-23 -36l-6 -29l8 -133v-27l-6 -10v-8l6 -6l32 -1l14 -6h24zM230 75l12 15v12l-16 22v104l6 56l-6 11l-21 2l-15 21l-15 36l-15 -38l-16 -12l-11 -64l9 -18v-28l-18 -21l-4 -13l22 -27v-11
l-11 -32l5 -8l10 -40l70 -1l8 7zM370 162l15 40v42l-19 22l-2 20l-6 22l-18 -4l-31 -30l-13 6l-6 -40l8 -71l-20 -65l18 -62l40 -5l28 5v4l8 18l8 69z" />
    <glyph glyph-name="FLW248" unicode="&#x448;" 
d="M520 28v-6l-17 -8l-17 -21l-30 -17l-44 -2l-8 -8l-26 4l-29 18l-19 -4l-18 -16l-28 12l-33 -6l-38 2l-15 12l-29 -6h-25l-15 -12l-67 18l-13 5l-5 8l5 21l29 32v32l20 38l-7 70l7 34l-16 72l-20 18l-18 4l-6 32v28l24 16l56 8l24 -6l24 -18l24 3l16 9l17 20l28 -4l7 4
l80 -8l20 -4l4 -42l21 8l23 32l21 -4l13 10l27 -4l36 -36l-5 -22l-26 -30l-5 -23l-23 -36l-6 -29l8 -133v-27l-6 -10v-8l6 -6l32 -1l14 -6h24zM230 75l12 15v12l-16 22v104l6 56l-6 11l-21 2l-15 21l-15 36l-15 -38l-16 -12l-11 -64l9 -18v-28l-18 -21l-4 -13l22 -27v-11
l-11 -32l5 -8l10 -40l70 -1l8 7zM370 162l15 40v42l-19 22l-2 20l-6 22l-18 -4l-31 -30l-13 6l-6 -40l8 -71l-20 -65l18 -62l40 -5l28 5v4l8 18l8 69z" />
    <glyph glyph-name="FLW249" unicode="&#xf9;" 
d="M557 -51v-13l-38 -40l-2 -8l-17 -11l-26 4l-22 23l-4 26v30l-4 8l-7 6h-51l-22 17l-67 -9l-25 2l-13 4h-45l-44 9l-26 -11l-57 14l-23 16v20l14 22l26 18l2 78l6 30l-6 67l-2 85l-34 47l4 27l11 8l40 5l2 4l79 -11l17 -31l15 -8v23l14 22l98 -1l29 -5l8 -33l15 21l24 26
l66 -9l25 -13l9 -17v-23l-38 -17l-9 -9l5 -140l-7 -22v-78l11 -46l31 -26l7 -12v-32l12 -31l6 -6h13zM398 280l6 29l-10 13l-8 2l-9 -2l-11 -10l-29 -12l-3 -11l26 -38l-21 -29v-85l13 -21h8l21 4l5 7l12 61l-6 32l6 18v42zM246 164l13 30l-9 60l7 22l-5 36l-14 26h-10
l-16 -4l-36 -27v-31l20 -22v-7l-24 -32v-40l-7 -21l5 -27l22 -32l4 -19h2l14 -6l28 14l12 40zM172 75h6v5l-2 2zM352 62h4v14h-4l-7 -6v-8l5 -4z" />
    <glyph glyph-name="FLW249" unicode="&#x449;" 
d="M557 -51v-13l-38 -40l-2 -8l-17 -11l-26 4l-22 23l-4 26v30l-4 8l-7 6h-51l-22 17l-67 -9l-25 2l-13 4h-45l-44 9l-26 -11l-57 14l-23 16v20l14 22l26 18l2 78l6 30l-6 67l-2 85l-34 47l4 27l11 8l40 5l2 4l79 -11l17 -31l15 -8v23l14 22l98 -1l29 -5l8 -33l15 21l24 26
l66 -9l25 -13l9 -17v-23l-38 -17l-9 -9l5 -140l-7 -22v-78l11 -46l31 -26l7 -12v-32l12 -31l6 -6h13zM398 280l6 29l-10 13l-8 2l-9 -2l-11 -10l-29 -12l-3 -11l26 -38l-21 -29v-85l13 -21h8l21 4l5 7l12 61l-6 32l6 18v42zM246 164l13 30l-9 60l7 22l-5 36l-14 26h-10
l-16 -4l-36 -27v-31l20 -22v-7l-24 -32v-40l-7 -21l5 -27l22 -32l4 -19h2l14 -6l28 14l12 40zM172 75h6v5l-2 2zM352 62h4v14h-4l-7 -6v-8l5 -4z" />
    <glyph glyph-name="FLW250" unicode="&#xfa;" 
d="M474 156l12 -35l-11 -17l4 -42l-5 -13l-20 -21l-46 -42l-40 -14l-107 12l-40 -10l-67 10l-18 10l-9 18v10l45 27l14 4l22 36l-2 40l-6 11l14 27l-8 21l-8 12v54l-17 20v12l19 21l-2 13l-12 12l-25 -4l-21 -23l-4 -35l-44 -40l-16 2l-22 16l-5 8l-2 76l-6 20l6 23l15 25
l67 26l34 -3l23 -9l26 9l9 5l42 -7l49 13l27 -8l21 -16l8 -8l-2 -27l-14 -28l-38 -21l-13 -4l-13 -17l2 -33l30 -26l52 6l22 -14l34 -6l18 -27l19 -7zM394 92l6 24l-46 49h-13l-29 -19l-24 -4l-14 -4l-2 -17l4 -9l4 -44l14 -14h7l11 4l29 -5l42 21z" />
    <glyph glyph-name="FLW250" unicode="&#x44a;" 
d="M474 156l12 -35l-11 -17l4 -42l-5 -13l-20 -21l-46 -42l-40 -14l-107 12l-40 -10l-67 10l-18 10l-9 18v10l45 27l14 4l22 36l-2 40l-6 11l14 27l-8 21l-8 12v54l-17 20v12l19 21l-2 13l-12 12l-25 -4l-21 -23l-4 -35l-44 -40l-16 2l-22 16l-5 8l-2 76l-6 20l6 23l15 25
l67 26l34 -3l23 -9l26 9l9 5l42 -7l49 13l27 -8l21 -16l8 -8l-2 -27l-14 -28l-38 -21l-13 -4l-13 -17l2 -33l30 -26l52 6l22 -14l34 -6l18 -27l19 -7zM394 92l6 24l-46 49h-13l-29 -19l-24 -4l-14 -4l-2 -17l4 -9l4 -44l14 -14h7l11 4l29 -5l42 21z" />
    <glyph glyph-name="FLW251" unicode="&#xfb;" 
d="M586 372v-12l-6 -32l-8 -4l-28 17h-14l-26 -21v-13l6 -15l-6 -20l-8 -11l4 -29v-88l-4 -32l8 -54l9 -11l13 4h10l14 -12h24v-27l-8 -18l-15 -14l-41 10h-51l-15 -14l-32 10l-12 8l-48 -4h-32l-17 -6l-57 8l-41 -16l-33 8l-58 -12h-18l-13 4l-47 2l-12 16v20l54 40l12 4
l14 19l6 27l-14 42l4 54l-8 21l12 86l-4 7l-17 12h-31l-26 34v32l10 14l15 8l36 -6l23 4l66 -2l22 11l52 -19l44 -44l-10 -12l-44 -1l-28 -19l-26 -2l-10 -12l4 -47l6 -19h19l27 6h18l18 -14l35 -6l53 -11l14 -15v-20l24 -32l6 -27v-13l-10 -10l10 -40l6 -6l18 21l10 25v28
l6 12l-6 21l-4 3l4 24l-10 13l-12 1l-2 2v6l16 7l11 47l-5 29l-24 17l-2 10l-6 9l-30 15l2 20l-2 11v9l28 31l32 -9l58 4l4 7l38 -11h27zM284 52l36 27v19l-15 10l-6 11l13 19v8l-2 8l-24 13l-23 1l-19 -10l-26 -6l-20 16h-8l-12 -20l12 -27l-18 -23v-19l8 -7h10l16 -14
l57 -11z" />
    <glyph glyph-name="FLW251" unicode="&#x44b;" 
d="M586 372v-12l-6 -32l-8 -4l-28 17h-14l-26 -21v-13l6 -15l-6 -20l-8 -11l4 -29v-88l-4 -32l8 -54l9 -11l13 4h10l14 -12h24v-27l-8 -18l-15 -14l-41 10h-51l-15 -14l-32 10l-12 8l-48 -4h-32l-17 -6l-57 8l-41 -16l-33 8l-58 -12h-18l-13 4l-47 2l-12 16v20l54 40l12 4
l14 19l6 27l-14 42l4 54l-8 21l12 86l-4 7l-17 12h-31l-26 34v32l10 14l15 8l36 -6l23 4l66 -2l22 11l52 -19l44 -44l-10 -12l-44 -1l-28 -19l-26 -2l-10 -12l4 -47l6 -19h19l27 6h18l18 -14l35 -6l53 -11l14 -15v-20l24 -32l6 -27v-13l-10 -10l10 -40l6 -6l18 21l10 25v28
l6 12l-6 21l-4 3l4 24l-10 13l-12 1l-2 2v6l16 7l11 47l-5 29l-24 17l-2 10l-6 9l-30 15l2 20l-2 11v9l28 31l32 -9l58 4l4 7l38 -11h27zM284 52l36 27v19l-15 10l-6 11l13 19v8l-2 8l-24 13l-23 1l-19 -10l-26 -6l-20 16h-8l-12 -20l12 -27l-18 -23v-19l8 -7h10l16 -14
l57 -11z" />
    <glyph glyph-name="FLW252" unicode="&#xfc;" 
d="M452 127v-21l-10 -36l-54 -56l-32 -18l-30 -10l-20 -8h-26l-8 -6l-30 20h-26l-26 -6l-16 5l-11 9l-21 -2l-14 -7l-26 7l-21 -12l-13 10l-14 22l6 38l8 6h32l14 -6l14 2l12 12l-6 48l16 46l-10 26v30l6 22l-10 36v40l-10 16l-26 13l-19 5l-15 20l2 20l40 38h78l17 10
l23 -2l16 -12h51l8 -3l5 -6l-5 -25l4 -32l-17 -28l2 -12v-8l-16 -13h-6l-7 11v29l-6 6h-7l-16 -21l2 -25l20 -15l-2 -19h13l15 7l23 -12l43 -2l14 6l28 -22l26 -8l-10 -17l18 -14l24 -27zM339 83l15 69l-8 11l-18 13l-33 -9l-23 17l-26 -6l-14 6l-18 6l-6 -27l6 -40l-6 -21
l20 -32h12l12 6l56 -4l6 -6l16 -2l9 6v13z" />
    <glyph glyph-name="FLW252" unicode="&#x44c;" 
d="M452 127v-21l-10 -36l-54 -56l-32 -18l-30 -10l-20 -8h-26l-8 -6l-30 20h-26l-26 -6l-16 5l-11 9l-21 -2l-14 -7l-26 7l-21 -12l-13 10l-14 22l6 38l8 6h32l14 -6l14 2l12 12l-6 48l16 46l-10 26v30l6 22l-10 36v40l-10 16l-26 13l-19 5l-15 20l2 20l40 38h78l17 10
l23 -2l16 -12h51l8 -3l5 -6l-5 -25l4 -32l-17 -28l2 -12v-8l-16 -13h-6l-7 11v29l-6 6h-7l-16 -21l2 -25l20 -15l-2 -19h13l15 7l23 -12l43 -2l14 6l28 -22l26 -8l-10 -17l18 -14l24 -27zM339 83l15 69l-8 11l-18 13l-33 -9l-23 17l-26 -6l-14 6l-18 6l-6 -27l6 -40l-6 -21
l20 -32h12l12 6l56 -4l6 -6l16 -2l9 6v13z" />
    <glyph glyph-name="FLW253" unicode="&#xfd;" 
d="M430 198l16 -26l-11 -24l-15 -6l-6 -28l8 -25l-18 -33l-27 -32l-15 -21l-12 -7l-20 -2l-27 -24l-42 6h-33l-12 -6l-40 32l-24 1l-22 35l-4 11l-30 19l-13 28l7 33l10 21v2l4 4l32 7l16 7l22 -7l22 -38l-6 -44l33 -30h51l23 9l36 29l15 7l14 20l-6 49l-59 -2l-9 -15h-14
l-17 20l-34 20v30l34 24l25 -2l19 -10l49 4l14 14l-2 26l-19 31l-27 17l-13 2l-35 30l-38 -6l-7 -11l-2 -15l-35 -17l-10 -35l-28 -26h-18l-28 40l-8 50l16 6l-10 20l4 50l10 13l12 5l28 -5l22 -13l45 2l27 12h80l53 -20l9 -23l32 -40l20 -59l4 -6l-12 -36l8 -19z" />
    <glyph glyph-name="FLW253" unicode="&#x44d;" 
d="M430 198l16 -26l-11 -24l-15 -6l-6 -28l8 -25l-18 -33l-27 -32l-15 -21l-12 -7l-20 -2l-27 -24l-42 6h-33l-12 -6l-40 32l-24 1l-22 35l-4 11l-30 19l-13 28l7 33l10 21v2l4 4l32 7l16 7l22 -7l22 -38l-6 -44l33 -30h51l23 9l36 29l15 7l14 20l-6 49l-59 -2l-9 -15h-14
l-17 20l-34 20v30l34 24l25 -2l19 -10l49 4l14 14l-2 26l-19 31l-27 17l-13 2l-35 30l-38 -6l-7 -11l-2 -15l-35 -17l-10 -35l-28 -26h-18l-28 40l-8 50l16 6l-10 20l4 50l10 13l12 5l28 -5l22 -13l45 2l27 12h80l53 -20l9 -23l32 -40l20 -59l4 -6l-12 -36l8 -19z" />
    <glyph glyph-name="FLW254" unicode="&#xfe;" 
d="M520 259l8 -27l-2 -36l-4 -38l-6 -12l-2 -21l-16 -21l-2 -27l-14 -30l-2 -21l-8 -6l-34 -4l-36 -26l-42 -6l-62 6l-18 9l-4 6l-18 19l-3 24l-13 10l-16 -2v-51l-8 -8h-32l-13 -7l-35 7l-66 -5l-19 7h-27l-6 11l6 22l20 24l36 16l13 18l5 22l6 14l6 6l10 -6l13 -20v-16
l17 -16l30 -16l12 2l2 14v9l-10 9l-19 2l-13 14l-2 38l-14 10h-32l-6 8v26l6 14l2 49l6 25l-6 21l-21 27l-1 13l-24 15h-20l-14 39v17l12 9l80 7l18 -9l71 -7l4 -26l-19 -30l8 -24l15 4l15 24l2 23l15 23l37 16l59 6l15 11l29 -4l31 -13l18 -3l40 -27l10 -4l10 -18l7 -22
l9 -20zM452 146l4 26l-2 85l-22 34l-7 27l-23 26l-34 16l-30 -8l-26 -24h-36l-6 -21l-12 -35l-4 -20l26 -40l-18 -33l10 -54l14 -21l3 -21l13 -23l12 -4l46 -9l33 36l23 3l16 12l6 32z" />
    <glyph glyph-name="FLW254" unicode="&#x44e;" 
d="M520 259l8 -27l-2 -36l-4 -38l-6 -12l-2 -21l-16 -21l-2 -27l-14 -30l-2 -21l-8 -6l-34 -4l-36 -26l-42 -6l-62 6l-18 9l-4 6l-18 19l-3 24l-13 10l-16 -2v-51l-8 -8h-32l-13 -7l-35 7l-66 -5l-19 7h-27l-6 11l6 22l20 24l36 16l13 18l5 22l6 14l6 6l10 -6l13 -20v-16
l17 -16l30 -16l12 2l2 14v9l-10 9l-19 2l-13 14l-2 38l-14 10h-32l-6 8v26l6 14l2 49l6 25l-6 21l-21 27l-1 13l-24 15h-20l-14 39v17l12 9l80 7l18 -9l71 -7l4 -26l-19 -30l8 -24l15 4l15 24l2 23l15 23l37 16l59 6l15 11l29 -4l31 -13l18 -3l40 -27l10 -4l10 -18l7 -22
l9 -20zM452 146l4 26l-2 85l-22 34l-7 27l-23 26l-34 16l-30 -8l-26 -24h-36l-6 -21l-12 -35l-4 -20l26 -40l-18 -33l10 -54l14 -21l3 -21l13 -23l12 -4l46 -9l33 36l23 3l16 12l6 32z" />
    <glyph glyph-name="FLW255" unicode="&#xff;" 
d="M507 42l25 -14l-4 -12l-21 -34l-1 -6l-18 -8l-28 6l-27 -8l-15 16h-12l-10 -12h-17l-17 16h-46l-10 9l-20 -11l-40 34l-4 8v4l30 17l50 6l20 7l14 14l-10 68l6 21v12l-6 5l-53 -5l-32 -25l-27 19l-34 -36l-8 -57l14 -36l6 -6v-8l-64 -42l-56 -4l-24 20l-22 28v40l22 19
h32l14 -34h20l6 9l2 109l6 13v16l-36 40l-12 67l10 40l56 53l20 4l69 10l46 -4l13 -6l46 12l19 -6l63 4l10 4l23 -2l25 -14l13 -19l-4 -15l-41 -46l-26 12l-9 -4l-11 -21l-4 -47l-18 -24l12 -88l-6 -28l6 -48l6 -18v-3l4 -6h34l23 15l17 -4zM340 276l8 44l-6 14h-36l-13 4
l-25 3l-22 -7l-31 4l-9 -4l-20 -27l-7 -31l19 -25l17 -11l38 7l19 -13h56l14 4l4 9z" />
    <glyph glyph-name="FLW255" unicode="&#x44f;" 
d="M507 42l25 -14l-4 -12l-21 -34l-1 -6l-18 -8l-28 6l-27 -8l-15 16h-12l-10 -12h-17l-17 16h-46l-10 9l-20 -11l-40 34l-4 8v4l30 17l50 6l20 7l14 14l-10 68l6 21v12l-6 5l-53 -5l-32 -25l-27 19l-34 -36l-8 -57l14 -36l6 -6v-8l-64 -42l-56 -4l-24 20l-22 28v40l22 19
h32l14 -34h20l6 9l2 109l6 13v16l-36 40l-12 67l10 40l56 53l20 4l69 10l46 -4l13 -6l46 12l19 -6l63 4l10 4l23 -2l25 -14l13 -19l-4 -15l-41 -46l-26 12l-9 -4l-11 -21l-4 -47l-18 -24l12 -88l-6 -28l6 -48l6 -18v-3l4 -6h34l23 15l17 -4zM340 276l8 44l-6 14h-36l-13 4
l-25 3l-22 -7l-31 4l-9 -4l-20 -27l-7 -31l19 -25l17 -11l38 7l19 -13h56l14 4l4 9z" />
  </font>
</defs>
</svg>
